<svg width="452" height="828" viewBox="0 0 452 828" fill="none" xmlns="http://www.w3.org/2000/svg">
<g opacity="0.1">
<path d="M109.723 784.228L109.528 783.995L109.723 783.8L109.723 750.153L108.748 749.219L109.723 748.323L109.723 716.079L107.929 714.443L109.723 712.885L109.723 682.004L107.032 679.667L109.723 677.408L109.723 647.968L106.057 644.891L109.723 641.971L109.723 613.893L104.965 610.077L109.723 606.494L109.723 579.818L103.795 575.301L109.723 571.017L109.723 545.743L102.429 540.525L109.723 535.579L109.723 511.707L100.947 505.71L109.723 500.102L109.723 477.632L100.947 472.025L65.8419 472.025L57.0656 477.632L57.0656 500.102L65.8419 505.71L57.0656 511.707L57.0656 535.579L64.3596 540.525L57.0656 545.743L57.0656 571.017L62.9945 575.301L57.0656 579.818L57.0656 606.494L61.8243 610.077L57.0656 613.893L57.0656 641.971L60.7321 644.891L57.0656 647.968L57.0656 677.408L59.757 679.667L57.0656 682.004L57.0656 712.885L58.8599 714.443L57.0656 716.079L57.0655 748.323L58.0407 749.219L57.0655 750.153L57.0655 783.8L57.2606 783.995L57.0655 784.228L57.0655 819.277L65.8419 828L100.947 828L109.723 819.277L109.723 784.228Z" fill="#636E80"/>
<path d="M109.723 443.558L100.947 438.3L65.8419 438.3L57.0656 443.558L57.0656 464.664L65.8419 469.922L100.947 469.922L109.723 464.664L109.723 443.558Z" fill="#636E80"/>
<path d="M109.723 409.483L100.947 404.576L65.8419 404.576L57.0656 409.483L57.0656 429.188L65.8419 434.094L100.947 434.094L109.723 429.188L109.723 409.483Z" fill="#636E80"/>
<path d="M109.723 375.447L100.947 370.851L65.8419 370.851L57.0656 375.447L57.0656 393.711L65.8419 398.306L100.947 398.306L109.723 393.711L109.723 375.447Z" fill="#636E80"/>
<path d="M109.723 341.372L100.947 337.166L65.8419 337.166L57.0656 341.372L57.0656 358.273L65.8419 362.479L100.947 362.479L109.723 358.273L109.723 341.372Z" fill="#636E80"/>
<path d="M109.723 307.297L100.947 303.442L65.8419 303.442L57.0656 307.297L57.0656 322.796L65.8419 326.69L100.947 326.69L109.723 322.796L109.723 307.297Z" fill="#636E80"/>
<path d="M109.723 273.261L100.947 269.717L65.8419 269.717L57.0656 273.261L57.0656 287.358L65.8419 290.863L100.947 290.863L109.723 287.358L109.723 273.261Z" fill="#636E80"/>
<path d="M109.724 239.186L100.947 235.993L65.8419 235.993L57.0656 239.186L57.0656 251.881L65.8419 255.036L100.947 255.036L109.723 251.881L109.724 239.186Z" fill="#636E80"/>
<path d="M109.724 205.111L100.947 202.307L65.8419 202.307L57.0656 205.111L57.0656 216.405L65.8419 219.247L100.947 219.247L109.724 216.405L109.724 205.111Z" fill="#636E80"/>
<path d="M109.724 171.036L100.947 168.583L65.8419 168.583L57.0656 171.036L57.0656 180.967L65.8419 183.42L100.947 183.42L109.724 180.967L109.724 171.036Z" fill="#636E80"/>
<path d="M109.724 137L100.947 134.859L65.8419 134.859L57.0656 137L57.0656 145.49L65.8419 147.632L100.947 147.632L109.724 145.49L109.724 137Z" fill="#636E80"/>
<path d="M109.724 102.926L100.947 101.134L65.8419 101.134L57.0656 102.926L57.0656 110.052L65.8419 111.805L100.947 111.805L109.724 110.052L109.724 102.926Z" fill="#636E80"/>
<path d="M109.724 68.8507L100.947 67.4488L65.8419 67.4488L57.0656 68.8507L57.0656 74.5753L65.8419 76.0162L100.947 76.0162L109.724 74.5753L109.724 68.8507Z" fill="#636E80"/>
<path d="M109.724 34.7758L100.947 33.7244L65.8419 33.7244L57.0656 34.7758L57.0656 39.0985L65.8419 40.1889L100.947 40.1889L109.724 39.0985L109.724 34.7758Z" fill="#636E80"/>
<path d="M109.724 0.739897L100.947 -1.5345e-05L65.8419 -1.68795e-05L57.0656 0.739894L57.0656 3.6606L65.8419 4.36157L100.947 4.36157L109.724 3.6606L109.724 0.739897Z" fill="#636E80"/>
<path d="M52.6578 784.228L52.4629 783.995L52.6578 783.8L52.6578 750.153L51.7217 749.219L52.6578 748.323L52.6578 716.079L50.9026 714.443L52.6578 712.885L52.6578 682.004L50.0055 679.667L52.6578 677.408L52.6578 647.968L49.0303 644.891L52.6578 641.971L52.6578 613.893L47.9382 610.077L52.6578 606.494L52.6578 579.818L46.729 575.301L52.6578 571.017L52.6578 545.743L45.4027 540.525L52.6578 535.579L52.6578 511.707L43.9206 505.71L52.6578 500.102L52.6578 477.632L43.9206 472.025L8.81532 472.025L-2.0878e-05 477.632L-2.18602e-05 500.102L8.81532 505.71L-2.23674e-05 511.707L-2.34109e-05 535.579L7.29414 540.525L-2.38552e-05 545.743L-2.49599e-05 571.017L5.9679 575.301L-2.53447e-05 579.818L-2.65107e-05 606.494L4.75864 610.077L-2.68341e-05 613.893L-2.80614e-05 641.971L3.66651 644.891L-2.83236e-05 647.968L-2.96105e-05 677.408L2.69138 679.667L-2.98113e-05 682.004L-3.11612e-05 712.885L1.79422 714.443L-3.13008e-05 716.079L-3.27102e-05 748.323L0.975095 749.219L-3.27903e-05 750.153L-3.4261e-05 783.8L0.233975 783.995L-3.42797e-05 784.228L-3.58117e-05 819.277L8.8153 828L43.9206 828L52.6578 819.277L52.6578 784.228Z" fill="#636E80"/>
<path d="M52.6578 443.558L43.9206 438.3L8.81532 438.3L-1.93885e-05 443.558L-2.03111e-05 464.664L8.81532 469.922L43.9206 469.922L52.6578 464.664L52.6578 443.558Z" fill="#636E80"/>
<path d="M52.6578 409.483L43.9206 404.576L8.81532 404.576L-1.78991e-05 409.483L-1.87604e-05 429.188L8.81532 434.094L43.9206 434.094L52.6578 429.188L52.6578 409.483Z" fill="#636E80"/>
<path d="M52.6579 375.447L43.9206 370.851L8.81532 370.851L-1.64113e-05 375.447L-1.72096e-05 393.711L8.81532 398.306L43.9206 398.306L52.6579 393.711L52.6579 375.447Z" fill="#636E80"/>
<path d="M52.6579 341.372L43.9206 337.166L8.81532 337.166L-1.49218e-05 341.372L-1.56606e-05 358.273L8.81532 362.479L43.9206 362.479L52.6579 358.273L52.6579 341.372Z" fill="#636E80"/>
<path d="M52.6579 307.297L43.9206 303.442L8.81532 303.442L-1.34324e-05 307.297L-1.41099e-05 322.796L8.81532 326.69L43.9206 326.69L52.6579 322.796L52.6579 307.297Z" fill="#636E80"/>
<path d="M52.6579 273.261L43.9206 269.717L8.81533 269.717L-1.19446e-05 273.261L-1.25608e-05 287.358L8.81533 290.863L43.9206 290.863L52.6579 287.358L52.6579 273.261Z" fill="#636E80"/>
<path d="M52.6579 239.186L43.9206 235.993L8.81533 235.993L-1.04552e-05 239.186L-1.10101e-05 251.881L8.81533 255.036L43.9206 255.036L52.6579 251.881L52.6579 239.186Z" fill="#636E80"/>
<path d="M52.6579 205.111L43.9206 202.307L8.81533 202.307L-8.9657e-06 205.111L-9.45935e-06 216.405L8.81533 219.247L43.9206 219.247L52.6579 216.405L52.6579 205.111Z" fill="#636E80"/>
<path d="M52.6579 171.036L43.9206 168.583L8.81533 168.583L-7.47624e-06 171.036L-7.91031e-06 180.967L8.81533 183.42L43.9206 183.42L52.6579 180.967L52.6579 171.036Z" fill="#636E80"/>
<path d="M52.6579 137L43.9206 134.859L8.81533 134.859L-5.98848e-06 137L-6.35957e-06 145.49L8.81533 147.632L43.9206 147.632L52.6579 145.49L52.6579 137Z" fill="#636E80"/>
<path d="M52.6579 102.926L43.9206 101.134L8.81533 101.134L-4.49902e-06 102.926L-4.81053e-06 110.052L8.81533 111.805L43.9206 111.805L52.6579 110.052L52.6579 102.926Z" fill="#636E80"/>
<path d="M52.6579 68.8507L43.9206 67.4488L8.81534 67.4488L-3.00956e-06 68.8507L-3.25979e-06 74.5753L8.81533 76.0162L43.9206 76.0162L52.6579 74.5753L52.6579 68.8507Z" fill="#636E80"/>
<path d="M52.6579 34.7758L43.9206 33.7244L8.81534 33.7244L-1.5201e-06 34.7758L-1.70905e-06 39.0985L8.81534 40.1889L43.9206 40.1889L52.6579 39.0985L52.6579 34.7758Z" fill="#636E80"/>
<path d="M52.6579 0.739894L43.9206 -1.78377e-05L8.81534 -1.93722e-05L-3.23425e-08 0.739892L-1.60011e-07 3.6606L8.81534 4.36156L43.9206 4.36157L52.6579 3.6606L52.6579 0.739894Z" fill="#636E80"/>
<path d="M166.789 784.228L166.555 783.995L166.789 783.8L166.789 750.153L165.814 749.219L166.789 748.323L166.789 716.079L164.995 714.443L166.789 712.885L166.789 682.004L164.098 679.667L166.789 677.408L166.789 647.968L163.122 644.891L166.789 641.971L166.789 613.893L162.03 610.077L166.789 606.494L166.789 579.818L160.821 575.301L166.789 571.017L166.789 545.743L159.495 540.525L166.789 535.579L166.789 511.707L157.974 505.71L166.789 500.102L166.789 477.632L157.974 472.025L122.868 472.025L114.131 477.632L114.131 500.102L122.868 505.71L114.131 511.707L114.131 535.579L121.386 540.525L114.131 545.743L114.131 571.017L120.06 575.301L114.131 579.818L114.131 606.494L118.851 610.077L114.131 613.893L114.131 641.971L117.759 644.891L114.131 647.968L114.131 677.408L116.784 679.667L114.131 682.004L114.131 712.885L115.886 714.443L114.131 716.079L114.131 748.323L115.067 749.219L114.131 750.153L114.131 783.8L114.326 783.995L114.131 784.228L114.131 819.277L122.868 828L157.974 828L166.789 819.277L166.789 784.228Z" fill="#636E80"/>
<path d="M166.789 443.558L157.974 438.3L122.868 438.3L114.131 443.558L114.131 464.664L122.868 469.922L157.974 469.922L166.789 464.664L166.789 443.558Z" fill="#636E80"/>
<path d="M166.789 409.483L157.974 404.576L122.868 404.576L114.131 409.483L114.131 429.188L122.868 434.094L157.974 434.094L166.789 429.188L166.789 409.483Z" fill="#636E80"/>
<path d="M166.789 375.447L157.974 370.851L122.868 370.851L114.131 375.447L114.131 393.711L122.868 398.306L157.974 398.306L166.789 393.711L166.789 375.447Z" fill="#636E80"/>
<path d="M166.789 341.372L157.974 337.166L122.868 337.166L114.131 341.372L114.131 358.273L122.868 362.479L157.974 362.479L166.789 358.273L166.789 341.372Z" fill="#636E80"/>
<path d="M166.789 307.297L157.974 303.442L122.868 303.442L114.131 307.297L114.131 322.796L122.868 326.69L157.974 326.69L166.789 322.796L166.789 307.297Z" fill="#636E80"/>
<path d="M166.789 273.261L157.974 269.717L122.868 269.717L114.131 273.261L114.131 287.358L122.868 290.863L157.974 290.863L166.789 287.358L166.789 273.261Z" fill="#636E80"/>
<path d="M166.789 239.186L157.974 235.993L122.868 235.993L114.131 239.186L114.131 251.881L122.868 255.036L157.974 255.036L166.789 251.881L166.789 239.186Z" fill="#636E80"/>
<path d="M166.789 205.111L157.974 202.307L122.868 202.307L114.131 205.111L114.131 216.405L122.868 219.247L157.974 219.247L166.789 216.405L166.789 205.111Z" fill="#636E80"/>
<path d="M166.789 171.036L157.974 168.583L122.868 168.583L114.131 171.036L114.131 180.967L122.868 183.42L157.974 183.42L166.789 180.967L166.789 171.036Z" fill="#636E80"/>
<path d="M166.789 137L157.974 134.859L122.868 134.859L114.131 137L114.131 145.49L122.868 147.632L157.974 147.632L166.789 145.49L166.789 137Z" fill="#636E80"/>
<path d="M166.789 102.926L157.974 101.134L122.868 101.134L114.131 102.926L114.131 110.052L122.868 111.805L157.974 111.805L166.789 110.052L166.789 102.926Z" fill="#636E80"/>
<path d="M166.789 68.8507L157.974 67.4488L122.868 67.4488L114.131 68.8507L114.131 74.5753L122.868 76.0162L157.974 76.0162L166.789 74.5753L166.789 68.8507Z" fill="#636E80"/>
<path d="M166.789 34.7758L157.974 33.7244L122.868 33.7244L114.131 34.7758L114.131 39.0985L122.868 40.1889L157.974 40.1889L166.789 39.0985L166.789 34.7758Z" fill="#636E80"/>
<path d="M166.789 0.739899L157.974 -1.28523e-05L122.868 -1.43868e-05L114.131 0.739897L114.131 3.6606L122.868 4.36157L157.974 4.36157L166.789 3.6606L166.789 0.739899Z" fill="#636E80"/>
<path d="M223.816 784.228L223.621 783.995L223.816 783.8L223.816 750.153L222.84 749.219L223.816 748.323L223.816 716.079L222.021 714.443L223.816 712.885L223.816 682.004L221.124 679.667L223.816 677.408L223.816 647.968L220.149 644.891L223.816 641.971L223.816 613.893L219.057 610.077L223.816 606.494L223.816 579.818L217.887 575.301L223.816 571.017L223.816 545.743L216.522 540.525L223.816 535.579L223.816 511.707L215.039 505.71L223.816 500.102L223.816 477.632L215.039 472.025L179.934 472.025L171.158 477.632L171.158 500.102L179.934 505.71L171.158 511.707L171.158 535.579L178.452 540.525L171.158 545.743L171.158 571.017L177.087 575.301L171.158 579.818L171.158 606.494L175.916 610.077L171.158 613.893L171.158 641.971L174.824 644.891L171.158 647.968L171.158 677.408L173.849 679.667L171.158 682.004L171.158 712.885L172.952 714.443L171.158 716.079L171.158 748.323L172.133 749.219L171.158 750.153L171.158 783.8L171.353 783.995L171.158 784.228L171.158 819.277L179.934 828L215.039 828L223.816 819.277L223.816 784.228Z" fill="#636E80"/>
<path d="M223.816 443.558L215.039 438.3L179.934 438.3L171.158 443.558L171.158 464.664L179.934 469.922L215.039 469.922L223.816 464.664L223.816 443.558Z" fill="#636E80"/>
<path d="M223.816 409.483L215.039 404.576L179.934 404.576L171.158 409.483L171.158 429.188L179.934 434.094L215.039 434.094L223.816 429.188L223.816 409.483Z" fill="#636E80"/>
<path d="M223.816 375.447L215.039 370.851L179.934 370.851L171.158 375.447L171.158 393.711L179.934 398.306L215.039 398.306L223.816 393.711L223.816 375.447Z" fill="#636E80"/>
<path d="M223.816 341.372L215.039 337.166L179.934 337.166L171.158 341.372L171.158 358.273L179.934 362.479L215.039 362.479L223.816 358.273L223.816 341.372Z" fill="#636E80"/>
<path d="M223.816 307.297L215.039 303.442L179.934 303.442L171.158 307.297L171.158 322.796L179.934 326.69L215.039 326.69L223.816 322.796L223.816 307.297Z" fill="#636E80"/>
<path d="M223.816 273.261L215.039 269.717L179.934 269.717L171.158 273.261L171.158 287.358L179.934 290.863L215.039 290.863L223.816 287.358L223.816 273.261Z" fill="#636E80"/>
<path d="M223.816 239.186L215.039 235.993L179.934 235.993L171.158 239.186L171.158 251.881L179.934 255.036L215.039 255.036L223.816 251.881L223.816 239.186Z" fill="#636E80"/>
<path d="M223.816 205.111L215.039 202.307L179.934 202.307L171.158 205.111L171.158 216.405L179.934 219.247L215.039 219.247L223.816 216.405L223.816 205.111Z" fill="#636E80"/>
<path d="M223.816 171.036L215.039 168.583L179.934 168.583L171.158 171.036L171.158 180.967L179.934 183.42L215.039 183.42L223.816 180.967L223.816 171.036Z" fill="#636E80"/>
<path d="M223.816 137L215.039 134.859L179.934 134.859L171.158 137L171.158 145.49L179.934 147.632L215.039 147.632L223.816 145.49L223.816 137Z" fill="#636E80"/>
<path d="M223.816 102.926L215.039 101.134L179.934 101.134L171.158 102.926L171.158 110.052L179.934 111.805L215.039 111.805L223.816 110.052L223.816 102.926Z" fill="#636E80"/>
<path d="M223.816 68.8507L215.039 67.4488L179.934 67.4488L171.158 68.8507L171.158 74.5753L179.934 76.0162L215.039 76.0162L223.816 74.5753L223.816 68.8507Z" fill="#636E80"/>
<path d="M223.816 34.7758L215.039 33.7244L179.934 33.7244L171.158 34.7758L171.158 39.0985L179.934 40.1889L215.039 40.1889L223.816 39.0985L223.816 34.7758Z" fill="#636E80"/>
<path d="M223.816 0.739902L215.039 -1.03579e-05L179.934 -1.18924e-05L171.158 0.739899L171.158 3.6606L179.934 4.36157L215.039 4.36157L223.816 3.66061L223.816 0.739902Z" fill="#636E80"/>
<path d="M280.842 784.228L280.647 783.995L280.842 783.8L280.842 750.153L279.906 749.219L280.842 748.323L280.842 716.079L279.087 714.443L280.842 712.885L280.842 682.004L278.19 679.667L280.842 677.409L280.842 647.968L277.215 644.891L280.842 641.971L280.842 613.893L276.123 610.077L280.842 606.494L280.842 579.818L274.913 575.301L280.842 571.017L280.842 545.743L273.587 540.525L280.842 535.579L280.842 511.707L272.105 505.71L280.842 500.102L280.842 477.632L272.105 472.025L237 472.025L228.184 477.632L228.184 500.102L237 505.71L228.184 511.707L228.184 535.579L235.478 540.525L228.184 545.743L228.184 571.017L234.152 575.301L228.184 579.818L228.184 606.494L232.943 610.077L228.184 613.893L228.184 641.971L231.851 644.891L228.184 647.968L228.184 677.408L230.876 679.667L228.184 682.004L228.184 712.885L229.979 714.443L228.184 716.079L228.184 748.323L229.159 749.219L228.184 750.153L228.184 783.8L228.418 783.995L228.184 784.228L228.184 819.277L237 828L272.105 828L280.842 819.277L280.842 784.228Z" fill="#636E80"/>
<path d="M280.842 443.558L272.105 438.3L237 438.3L228.184 443.558L228.184 464.664L237 469.922L272.105 469.922L280.842 464.664L280.842 443.558Z" fill="#636E80"/>
<path d="M280.842 409.483L272.105 404.576L237 404.576L228.184 409.483L228.184 429.188L237 434.094L272.105 434.094L280.842 429.188L280.842 409.483Z" fill="#636E80"/>
<path d="M280.842 375.447L272.105 370.851L237 370.851L228.184 375.447L228.184 393.711L237 398.306L272.105 398.306L280.842 393.711L280.842 375.447Z" fill="#636E80"/>
<path d="M280.842 341.372L272.105 337.166L237 337.166L228.184 341.372L228.184 358.273L237 362.479L272.105 362.479L280.842 358.273L280.842 341.372Z" fill="#636E80"/>
<path d="M280.842 307.297L272.105 303.442L237 303.442L228.184 307.297L228.184 322.796L237 326.69L272.105 326.69L280.842 322.796L280.842 307.297Z" fill="#636E80"/>
<path d="M280.842 273.261L272.105 269.717L237 269.717L228.184 273.261L228.184 287.358L237 290.863L272.105 290.863L280.842 287.358L280.842 273.261Z" fill="#636E80"/>
<path d="M280.842 239.186L272.105 235.993L237 235.993L228.184 239.186L228.184 251.881L237 255.036L272.105 255.036L280.842 251.881L280.842 239.186Z" fill="#636E80"/>
<path d="M280.842 205.111L272.105 202.307L237 202.307L228.184 205.111L228.184 216.405L237 219.247L272.105 219.247L280.842 216.405L280.842 205.111Z" fill="#636E80"/>
<path d="M280.842 171.036L272.105 168.583L237 168.583L228.184 171.036L228.184 180.967L237 183.42L272.105 183.42L280.842 180.967L280.842 171.036Z" fill="#636E80"/>
<path d="M280.842 137L272.105 134.859L237 134.859L228.184 137L228.184 145.49L237 147.632L272.105 147.632L280.842 145.49L280.842 137Z" fill="#636E80"/>
<path d="M280.842 102.926L272.105 101.134L237 101.134L228.184 102.926L228.184 110.052L237 111.805L272.105 111.805L280.842 110.052L280.842 102.926Z" fill="#636E80"/>
<path d="M280.842 68.8507L272.105 67.4488L237 67.4488L228.184 68.8507L228.184 74.5753L237 76.0162L272.105 76.0162L280.842 74.5753L280.842 68.8507Z" fill="#636E80"/>
<path d="M280.842 34.7758L272.105 33.7244L237 33.7244L228.184 34.7758L228.184 39.0985L237 40.1889L272.105 40.1889L280.842 39.0985L280.842 34.7758Z" fill="#636E80"/>
<path d="M280.842 0.739904L272.105 -7.86346e-06L237 -9.39796e-06L228.184 0.739902L228.184 3.66061L237 4.36157L272.105 4.36158L280.842 3.66061L280.842 0.739904Z" fill="#636E80"/>
<path d="M337.908 784.228L337.713 783.995L337.908 783.8L337.908 750.153L336.933 749.219L337.908 748.323L337.908 716.079L336.113 714.443L337.908 712.885L337.908 682.004L335.216 679.667L337.908 677.409L337.908 647.968L334.241 644.891L337.908 641.971L337.908 613.893L333.149 610.077L337.908 606.494L337.908 579.818L331.979 575.301L337.908 571.017L337.908 545.743L330.614 540.525L337.908 535.579L337.908 511.707L329.131 505.71L337.908 500.102L337.908 477.632L329.131 472.025L294.026 472.025L285.25 477.632L285.25 500.102L294.026 505.71L285.25 511.707L285.25 535.579L292.544 540.525L285.25 545.743L285.25 571.017L291.179 575.301L285.25 579.818L285.25 606.494L290.009 610.077L285.25 613.893L285.25 641.971L288.916 644.891L285.25 647.968L285.25 677.409L287.941 679.667L285.25 682.004L285.25 712.885L287.044 714.443L285.25 716.079L285.25 748.323L286.225 749.219L285.25 750.153L285.25 783.8L285.445 783.995L285.25 784.228L285.25 819.277L294.026 828L329.131 828L337.908 819.277L337.908 784.228Z" fill="#636E80"/>
<path d="M337.908 443.558L329.131 438.3L294.026 438.3L285.25 443.558L285.25 464.664L294.026 469.922L329.131 469.922L337.908 464.664L337.908 443.558Z" fill="#636E80"/>
<path d="M337.908 409.483L329.131 404.576L294.026 404.576L285.25 409.483L285.25 429.188L294.026 434.094L329.131 434.094L337.908 429.188L337.908 409.483Z" fill="#636E80"/>
<path d="M337.908 375.447L329.131 370.851L294.026 370.851L285.25 375.447L285.25 393.711L294.026 398.306L329.131 398.306L337.908 393.711L337.908 375.447Z" fill="#636E80"/>
<path d="M337.908 341.372L329.131 337.166L294.026 337.166L285.25 341.372L285.25 358.273L294.026 362.479L329.131 362.479L337.908 358.273L337.908 341.372Z" fill="#636E80"/>
<path d="M337.908 307.297L329.131 303.442L294.026 303.442L285.25 307.297L285.25 322.796L294.026 326.69L329.131 326.69L337.908 322.796L337.908 307.297Z" fill="#636E80"/>
<path d="M337.908 273.261L329.131 269.717L294.026 269.717L285.25 273.261L285.25 287.358L294.026 290.863L329.131 290.863L337.908 287.358L337.908 273.261Z" fill="#636E80"/>
<path d="M337.908 239.186L329.131 235.993L294.026 235.993L285.25 239.186L285.25 251.881L294.026 255.036L329.131 255.036L337.908 251.881L337.908 239.186Z" fill="#636E80"/>
<path d="M337.908 205.111L329.131 202.307L294.026 202.307L285.25 205.111L285.25 216.405L294.026 219.247L329.131 219.247L337.908 216.405L337.908 205.111Z" fill="#636E80"/>
<path d="M337.908 171.036L329.131 168.583L294.026 168.583L285.25 171.036L285.25 180.967L294.026 183.42L329.131 183.42L337.908 180.967L337.908 171.036Z" fill="#636E80"/>
<path d="M337.908 137L329.131 134.859L294.026 134.859L285.25 137L285.25 145.49L294.026 147.632L329.131 147.632L337.908 145.49L337.908 137Z" fill="#636E80"/>
<path d="M337.908 102.926L329.131 101.134L294.026 101.134L285.25 102.926L285.25 110.052L294.026 111.805L329.131 111.805L337.908 110.052L337.908 102.926Z" fill="#636E80"/>
<path d="M337.908 68.8507L329.131 67.4488L294.026 67.4488L285.25 68.8507L285.25 74.5753L294.026 76.0162L329.131 76.0162L337.908 74.5753L337.908 68.8507Z" fill="#636E80"/>
<path d="M337.908 34.7758L329.131 33.7244L294.026 33.7244L285.25 34.7758L285.25 39.0985L294.026 40.1889L329.131 40.1889L337.908 39.0985L337.908 34.7758Z" fill="#636E80"/>
<path d="M337.908 0.739907L329.131 -5.37075e-06L294.026 -6.90525e-06L285.25 0.739904L285.25 3.66061L294.026 4.36158L329.131 4.36158L337.908 3.66061L337.908 0.739907Z" fill="#636E80"/>
<path d="M394.973 784.228L394.739 783.995L394.973 783.8L394.973 750.154L393.998 749.219L394.973 748.323L394.973 716.079L393.179 714.443L394.973 712.885L394.973 682.004L392.282 679.667L394.973 677.409L394.973 647.968L391.307 644.891L394.973 641.971L394.973 613.893L390.215 610.077L394.973 606.494L394.973 579.818L389.006 575.301L394.973 571.017L394.973 545.743L387.679 540.525L394.973 535.579L394.973 511.707L386.158 505.71L394.973 500.102L394.973 477.632L386.158 472.025L351.053 472.025L342.316 477.632L342.316 500.102L351.053 505.71L342.316 511.707L342.316 535.579L349.571 540.525L342.316 545.743L342.316 571.017L348.244 575.301L342.316 579.818L342.316 606.494L347.035 610.077L342.316 613.893L342.316 641.971L345.943 644.891L342.316 647.968L342.315 677.409L344.968 679.667L342.315 682.004L342.315 712.885L344.071 714.443L342.315 716.079L342.315 748.323L343.252 749.219L342.315 750.153L342.315 783.8L342.51 783.995L342.315 784.228L342.315 819.277L351.053 828L386.158 828L394.973 819.277L394.973 784.228Z" fill="#636E80"/>
<path d="M394.973 443.558L386.158 438.3L351.053 438.3L342.316 443.558L342.316 464.664L351.053 469.922L386.158 469.922L394.973 464.664L394.973 443.558Z" fill="#636E80"/>
<path d="M394.973 409.483L386.158 404.576L351.053 404.576L342.316 409.483L342.316 429.188L351.053 434.094L386.158 434.094L394.973 429.188L394.973 409.483Z" fill="#636E80"/>
<path d="M394.973 375.447L386.158 370.851L351.053 370.851L342.316 375.447L342.316 393.711L351.053 398.306L386.158 398.306L394.973 393.711L394.973 375.447Z" fill="#636E80"/>
<path d="M394.973 341.372L386.158 337.166L351.053 337.166L342.316 341.372L342.316 358.273L351.053 362.479L386.158 362.479L394.973 358.273L394.973 341.372Z" fill="#636E80"/>
<path d="M394.973 307.297L386.158 303.442L351.053 303.442L342.316 307.297L342.316 322.796L351.053 326.69L386.158 326.69L394.973 322.796L394.973 307.297Z" fill="#636E80"/>
<path d="M394.973 273.261L386.158 269.717L351.053 269.717L342.316 273.261L342.316 287.358L351.053 290.863L386.158 290.863L394.973 287.358L394.973 273.261Z" fill="#636E80"/>
<path d="M394.973 239.186L386.158 235.993L351.053 235.993L342.316 239.186L342.316 251.881L351.053 255.036L386.158 255.036L394.973 251.881L394.973 239.186Z" fill="#636E80"/>
<path d="M394.973 205.111L386.158 202.307L351.053 202.307L342.316 205.111L342.316 216.405L351.053 219.247L386.158 219.247L394.973 216.405L394.973 205.111Z" fill="#636E80"/>
<path d="M394.973 171.036L386.158 168.583L351.053 168.583L342.316 171.036L342.316 180.967L351.053 183.42L386.158 183.42L394.973 180.967L394.973 171.036Z" fill="#636E80"/>
<path d="M394.973 137L386.158 134.859L351.053 134.859L342.316 137L342.316 145.49L351.053 147.632L386.158 147.632L394.973 145.49L394.973 137Z" fill="#636E80"/>
<path d="M394.973 102.926L386.158 101.134L351.053 101.134L342.316 102.926L342.316 110.052L351.053 111.805L386.158 111.805L394.973 110.052L394.973 102.926Z" fill="#636E80"/>
<path d="M394.973 68.8507L386.158 67.4488L351.053 67.4488L342.316 68.8507L342.316 74.5753L351.053 76.0162L386.158 76.0162L394.973 74.5753L394.973 68.8507Z" fill="#636E80"/>
<path d="M394.973 34.7758L386.158 33.7244L351.053 33.7244L342.316 34.7758L342.316 39.0985L351.053 40.1889L386.158 40.1889L394.973 39.0985L394.973 34.7758Z" fill="#636E80"/>
<path d="M394.973 0.739909L386.158 -2.87804e-06L351.053 -4.41254e-06L342.316 0.739907L342.316 3.66061L351.053 4.36158L386.158 4.36158L394.973 3.66061L394.973 0.739909Z" fill="#636E80"/>
<path d="M452 784.228L451.805 783.995L452 783.8L452 750.154L451.025 749.219L452 748.323L452 716.079L450.206 714.443L452 712.885L452 682.004L449.309 679.667L452 677.409L452 647.968L448.333 644.891L452 641.971L452 613.893L447.241 610.077L452 606.494L452 579.818L446.071 575.301L452 571.017L452 545.743L444.706 540.525L452 535.579L452 511.707L443.224 505.71L452 500.102L452 477.632L443.224 472.025L408.118 472.025L399.342 477.632L399.342 500.102L408.118 505.71L399.342 511.707L399.342 535.579L406.636 540.525L399.342 545.743L399.342 571.017L405.271 575.301L399.342 579.818L399.342 606.494L404.101 610.077L399.342 613.893L399.342 641.971L403.009 644.891L399.342 647.968L399.342 677.409L402.033 679.667L399.342 682.004L399.342 712.885L401.136 714.443L399.342 716.079L399.342 748.323L400.317 749.219L399.342 750.154L399.342 783.8L399.537 783.995L399.342 784.228L399.342 819.277L408.118 828L443.224 828L452 819.277L452 784.228Z" fill="#636E80"/>
<path d="M452 443.558L443.224 438.3L408.118 438.3L399.342 443.558L399.342 464.664L408.118 469.922L443.224 469.922L452 464.664L452 443.558Z" fill="#636E80"/>
<path d="M452 409.483L443.224 404.576L408.118 404.576L399.342 409.483L399.342 429.188L408.118 434.094L443.224 434.094L452 429.188L452 409.483Z" fill="#636E80"/>
<path d="M452 375.447L443.224 370.852L408.118 370.851L399.342 375.447L399.342 393.711L408.118 398.306L443.224 398.306L452 393.711L452 375.447Z" fill="#636E80"/>
<path d="M452 341.372L443.224 337.166L408.118 337.166L399.342 341.372L399.342 358.273L408.118 362.479L443.224 362.479L452 358.273L452 341.372Z" fill="#636E80"/>
<path d="M452 307.297L443.224 303.442L408.118 303.442L399.342 307.297L399.342 322.796L408.118 326.69L443.224 326.69L452 322.796L452 307.297Z" fill="#636E80"/>
<path d="M452 273.261L443.224 269.717L408.118 269.717L399.342 273.261L399.342 287.358L408.118 290.863L443.224 290.863L452 287.358L452 273.261Z" fill="#636E80"/>
<path d="M452 239.186L443.224 235.993L408.118 235.993L399.342 239.186L399.342 251.881L408.118 255.036L443.224 255.036L452 251.881L452 239.186Z" fill="#636E80"/>
<path d="M452 205.111L443.224 202.307L408.118 202.307L399.342 205.111L399.342 216.405L408.118 219.247L443.224 219.247L452 216.405L452 205.111Z" fill="#636E80"/>
<path d="M452 171.036L443.224 168.583L408.118 168.583L399.342 171.036L399.342 180.967L408.118 183.42L443.224 183.42L452 180.967L452 171.036Z" fill="#636E80"/>
<path d="M452 137L443.224 134.859L408.118 134.859L399.342 137L399.342 145.49L408.118 147.632L443.224 147.632L452 145.49L452 137Z" fill="#636E80"/>
<path d="M452 102.926L443.224 101.134L408.118 101.134L399.342 102.926L399.342 110.052L408.118 111.805L443.224 111.805L452 110.052L452 102.926Z" fill="#636E80"/>
<path d="M452 68.8507L443.224 67.4488L408.118 67.4488L399.342 68.8507L399.342 74.5753L408.118 76.0162L443.224 76.0162L452 74.5753L452 68.8507Z" fill="#636E80"/>
<path d="M452 34.7758L443.224 33.7244L408.118 33.7244L399.342 34.7758L399.342 39.0985L408.118 40.1889L443.224 40.1889L452 39.0985L452 34.7758Z" fill="#636E80"/>
<path d="M452 0.739912L443.224 -3.83627e-07L408.118 -1.91813e-06L399.342 0.739909L399.342 3.66061L408.118 4.36158L443.224 4.36158L452 3.66062L452 0.739912Z" fill="#636E80"/>
</g>
</svg>
