<svg width="1208" height="393" viewBox="0 0 1208 393" fill="none" xmlns="http://www.w3.org/2000/svg">
<path d="M407.829 103.056C407.829 99.8729 409.093 96.8206 411.344 94.5702L502.399 3.51563C504.65 1.26523 507.702 0.000950994 510.885 0.000951272L788.17 0.000975513C794.797 0.000976093 800.17 5.37357 800.17 12.001L800.17 93.1144C800.17 96.297 798.906 99.3492 796.655 101.6L509.429 388.827C507.178 391.077 504.126 392.342 500.943 392.342L419.829 392.342C413.202 392.342 407.829 386.969 407.829 380.342L407.829 103.056Z" fill="#F6F6F4"/>
<path d="M289.286 392.342C292.469 392.342 295.521 391.078 297.772 388.827L388.827 297.773C391.077 295.522 392.342 292.47 392.342 289.287L392.342 12C392.342 5.37257 386.969 -4.61456e-06 380.342 -4.53553e-06L299.227 -3.56825e-06C296.045 -3.5303e-06 292.993 1.26428 290.742 3.51472L3.51471 290.742C1.26427 292.993 3.5303e-06 296.045 3.56825e-06 299.227L4.53553e-06 380.342C4.61456e-06 386.969 5.37259 392.342 12 392.342L289.286 392.342Z" fill="#F6F6F4"/>
<path d="M1104.94 3.4497e-06C1108.13 3.48766e-06 1111.18 1.26426 1113.43 3.51468L1204.48 94.5692C1206.73 96.8197 1208 99.872 1208 103.055L1208 380.342C1208 386.969 1202.63 392.342 1196 392.342L1114.88 392.342C1111.7 392.342 1108.65 391.078 1106.4 388.827L819.172 101.6C816.922 99.3492 815.657 96.297 815.657 93.1144L815.657 12C815.657 5.37259 821.03 6.40674e-08 827.657 1.43099e-07L1104.94 3.4497e-06Z" fill="#F6F6F4"/>
</svg>
