<svg width="1207" height="392" viewBox="0 0 1207 392" fill="none" xmlns="http://www.w3.org/2000/svg">
<path d="M203.6 255.603C203.6 252.421 204.864 249.369 207.114 247.118L247.117 207.115C249.368 204.865 252.42 203.601 255.602 203.601L379.734 203.601C386.362 203.601 391.734 208.973 391.734 215.601L391.734 245.663C391.734 248.846 390.47 251.898 388.22 254.149L254.148 388.221C251.897 390.471 248.845 391.735 245.662 391.735L215.6 391.735C208.972 391.735 203.6 386.363 203.6 379.735L203.6 255.603Z" fill="#FF990A"/>
<path d="M543.33 391.735C546.513 391.735 549.565 390.471 551.815 388.221L591.819 348.217C594.07 345.966 595.334 342.914 595.334 339.732L595.334 215.6C595.334 208.972 589.961 203.6 583.334 203.6L553.271 203.6C550.089 203.6 547.036 204.864 544.786 207.114L410.714 341.186C408.463 343.437 407.199 346.489 407.199 349.672L407.199 379.735C407.199 386.363 412.572 391.735 419.199 391.735L543.33 391.735Z" fill="#FF990A"/>
<path d="M407.201 52.0038C407.201 48.8212 408.465 45.7689 410.716 43.5185L450.719 3.51567C452.969 1.26525 456.021 0.000964383 459.204 0.000964661L583.336 0.000975513C589.963 0.000976093 595.336 5.37357 595.336 12.001L595.336 42.0636C595.336 45.2462 594.072 48.2985 591.821 50.5489L457.749 184.621C455.499 186.871 452.446 188.136 449.264 188.136L419.201 188.136C412.574 188.136 407.201 182.763 407.201 176.136L407.201 52.0038Z" fill="#FF990A"/>
<path d="M610.799 339.731C610.799 342.913 612.063 345.965 614.314 348.216L654.317 388.22C656.568 390.47 659.62 391.734 662.803 391.734L786.934 391.734C793.561 391.734 798.934 386.362 798.934 379.734L798.934 349.671C798.934 346.488 797.669 343.436 795.419 341.185L661.347 207.113C659.096 204.863 656.044 203.599 652.861 203.599L622.799 203.599C616.171 203.599 610.799 208.971 610.799 215.599L610.799 339.731Z" fill="#FF990A"/>
<path d="M798.932 52.0038C798.932 48.8212 797.667 45.7689 795.417 43.5185L755.414 3.51569C753.164 1.26526 750.111 0.000976562 746.929 0.000976562L622.797 0.000976562C616.169 0.000976562 610.797 5.37357 610.797 12.001V42.0636C610.797 45.2462 612.061 48.2985 614.312 50.5489L748.384 184.621C750.634 186.871 753.686 188.136 756.869 188.136H786.932C793.559 188.136 798.932 182.763 798.932 176.136V52.0038Z" fill="#FF990A"/>
<path d="M950.527 391.735C953.71 391.735 956.762 390.471 959.013 388.221L999.017 348.216C1001.27 345.965 1002.53 342.913 1002.53 339.731L1002.53 215.6C1002.53 208.972 997.16 203.6 990.532 203.6L960.469 203.6C957.286 203.6 954.234 204.864 951.983 207.114L817.911 341.186C815.661 343.437 814.396 346.489 814.396 349.672L814.396 379.735C814.396 386.363 819.769 391.735 826.396 391.735L950.527 391.735Z" fill="#FF990A"/>
<path d="M814.398 52.0038C814.398 48.8212 815.663 45.7689 817.913 43.5185L857.916 3.51567C860.166 1.26525 863.219 0.000964383 866.401 0.000964661L990.533 0.000975513C997.161 0.000976093 1002.53 5.37357 1002.53 12.001L1002.53 42.0636C1002.53 45.2462 1001.27 48.2985 999.018 50.5489L864.946 184.621C862.696 186.871 859.644 188.136 856.461 188.136L826.398 188.136C819.771 188.136 814.398 182.763 814.398 176.136L814.398 52.0038Z" fill="#FF990A"/>
<path d="M1154.13 188.135C1157.31 188.135 1160.36 186.87 1162.61 184.62L1202.62 144.617C1204.87 142.367 1206.13 139.315 1206.13 136.132L1206.13 12C1206.13 5.37259 1200.76 7.98879e-06 1194.13 7.6991e-06L1164.07 6.38502e-06C1160.89 6.2459e-06 1157.83 1.26429 1155.58 3.51472L1021.51 137.587C1019.26 139.837 1018 142.89 1018 146.072L1018 176.135C1018 182.762 1023.37 188.135 1030 188.135L1154.13 188.135Z" fill="#FF990A"/>
<path d="M339.731 0.000970612C342.913 0.000970473 345.965 1.26525 348.216 3.51569L388.221 43.5204C390.471 45.7709 391.735 48.8231 391.735 52.0057L391.735 176.137C391.735 182.764 386.363 188.137 379.735 188.137L255.603 188.137C252.421 188.137 249.369 186.872 247.118 184.622L207.114 144.618C204.864 142.368 203.6 139.316 203.6 136.133L203.6 12.001C203.6 5.37357 208.972 0.000976328 215.6 0.000976038L339.731 0.000970612Z" fill="#FF990A"/>
<path d="M136.132 203.6C139.315 203.6 142.367 204.864 144.617 207.114L184.621 247.118C186.871 249.369 188.136 252.421 188.136 255.603L188.136 379.735C188.136 386.363 182.763 391.735 176.136 391.735L52.0038 391.735C48.8212 391.735 45.7689 390.471 43.5185 388.221L3.51472 348.217C1.26428 345.966 -2.13404e-06 342.914 -2.27316e-06 339.732L-7.69914e-06 215.6C-7.98883e-06 208.972 5.37257 203.6 12 203.6L136.132 203.6Z" fill="#FF990A"/>
<path d="M1070 391.735C1066.82 391.735 1063.77 390.471 1061.51 388.221L1021.51 348.216C1019.26 345.965 1018 342.913 1018 339.731L1018 215.6C1018 208.972 1023.37 203.6 1030 203.6L1154.13 203.6C1157.31 203.6 1160.36 204.864 1162.61 207.114L1202.62 247.118C1204.87 249.369 1206.13 252.421 1206.13 255.603L1206.13 379.735C1206.13 386.363 1200.76 391.735 1194.13 391.735L1070 391.735Z" fill="#FF990A"/>
<path d="M188.136 136.131C188.136 139.314 186.871 142.366 184.621 144.616L144.616 184.621C142.366 186.871 139.314 188.136 136.131 188.136L12 188.136C5.37258 188.136 0 182.763 0 176.136L0 52.0038C0 48.8212 1.26428 45.7689 3.51472 43.5185L43.5185 3.51472C45.7689 1.26429 48.8212 0 52.0038 0L176.136 0C182.763 0 188.136 5.37258 188.136 12L188.136 136.131Z" fill="#FF990A"/>
</svg>
