<svg width="24" height="24" viewBox="0 0 24 24" fill="none" xmlns="http://www.w3.org/2000/svg">
<mask id="mask0_1_394" style="mask-type:alpha" maskUnits="userSpaceOnUse" x="0" y="0" width="24" height="24">
<rect width="24" height="24" fill="#D9D9D9"/>
</mask>
<g mask="url(#mask0_1_394)">
<path d="M12 21.3652C11.7757 21.3652 11.5538 21.3201 11.3345 21.2297C11.1153 21.1394 10.9154 21.0038 10.7348 20.823L3.17702 13.2653C2.99618 13.0846 2.8606 12.8847 2.77027 12.6655C2.67993 12.4462 2.63477 12.2243 2.63477 12C2.63477 11.7757 2.67993 11.5538 2.77027 11.3345C2.8606 11.1153 2.99618 10.9154 3.17702 10.7348L10.7348 3.177C10.9154 2.99617 11.1153 2.86058 11.3345 2.77025C11.5538 2.67992 11.7757 2.63475 12 2.63475C12.2243 2.63475 12.4462 2.67992 12.6655 2.77025C12.8847 2.86058 13.0846 2.99617 13.2653 3.177L20.823 10.7348C21.0038 10.9154 21.1394 11.1153 21.2298 11.3345C21.3201 11.5538 21.3653 11.7757 21.3653 12C21.3653 12.2243 21.3201 12.4462 21.2298 12.6655C21.1394 12.8847 21.0038 13.0846 20.823 13.2653L13.2653 20.823C13.0846 21.0038 12.8847 21.1394 12.6655 21.2297C12.4462 21.3201 12.2243 21.3652 12 21.3652ZM11.7885 19.7885C11.8462 19.8462 11.9167 19.875 12 19.875C12.0833 19.875 12.1538 19.8462 12.2115 19.7885L19.7885 12.2115C19.8462 12.1538 19.875 12.0833 19.875 12C19.875 11.9167 19.8462 11.8462 19.7885 11.7885L12.2115 4.2115C12.1538 4.15383 12.0833 4.125 12 4.125C11.9167 4.125 11.8462 4.15383 11.7885 4.2115L4.21152 11.7885C4.15385 11.8462 4.12502 11.9167 4.12502 12C4.12502 12.0833 4.15385 12.1538 4.21152 12.2115L11.7885 19.7885ZM12 16.6538L16.6538 12L12 7.34625L10.9463 8.4L13.7655 11.25H7.34627V12.75H13.7655L10.9463 15.6L12 16.6538Z" fill="#F6F6F4"/>
</g>
</svg>
