<svg width="1106" height="1282" viewBox="0 0 1106 1282" fill="none" xmlns="http://www.w3.org/2000/svg">
<path d="M933.607 951.518L947.962 928.119L921.823 882.824L894.399 883.468L907.361 857.708L875.759 802.86L860.868 802.001L866.867 787.404L829.694 722.896L799.485 718.817L716.033 767.118L704.463 795.347L741.529 859.854L757.17 861.894L750.528 875.311L782.13 930.158L810.947 931.768L796.592 955.275L822.624 1000.57L850.048 999.818L933.607 951.518Z" fill="#FF4C16"/>
<path d="M972.708 1019.46L988.456 998.423L967.887 962.681L941.856 965.901L858.404 1014.2L842.657 1035.13L863.225 1070.87L889.257 1067.76L972.708 1019.46Z" fill="#FF4C16"/>
<path d="M1029.06 1068.83L1013.95 1042.64L989.313 1048.23L905.861 1096.53L888.721 1115.1L903.826 1141.28L928.465 1135.7L1011.92 1087.4L1029.06 1068.83Z" fill="#FF4C16"/>
<path d="M1069.55 1139.25L1060.02 1122.61L1036.77 1130.55L953.318 1178.85L934.785 1195.06L944.32 1211.7L967.566 1203.75L1051.12 1155.45L1069.55 1139.25Z" fill="#FF4C16"/>
<path d="M1084.23 1212.88L1000.78 1261.18L980.85 1275.02L984.92 1282L1006.77 1271.7L1090.23 1223.4L1110.15 1209.55L1106.08 1202.57L1084.23 1212.88Z" fill="#FF4C16"/>
<path d="M464.393 330.482L450.038 353.881L476.177 399.283L503.601 398.532L490.639 424.292L522.241 479.247L537.132 479.999L531.133 494.703L568.306 559.104L598.515 563.183L681.967 514.882L693.536 486.653L656.471 422.253L640.83 420.106L647.472 406.797L615.87 351.842L587.053 350.232L601.408 326.833L575.376 281.43L547.952 282.182L464.393 330.482Z" fill="#FF4C16"/>
<path d="M425.292 262.539L409.544 283.577L430.113 319.319L456.144 316.099L539.596 267.799L555.343 246.869L534.775 211.126L508.743 214.239L425.292 262.539Z" fill="#FF4C16"/>
<path d="M368.943 213.166L384.048 239.355L408.687 233.774L492.139 185.474L509.279 166.905L494.174 140.715L469.535 146.297L386.084 194.597L368.943 213.166Z" fill="#FF4C16"/>
<path d="M328.45 142.862L337.984 159.391L361.23 151.449L444.682 103.148L463.215 86.9407L453.68 70.4112L430.434 78.354L346.875 126.654L328.45 142.862Z" fill="#FF4C16"/>
<path d="M313.773 69.1232L397.225 20.8228L417.15 6.97672L413.08 0L391.226 10.3041L307.774 58.6045L287.849 72.4506L291.92 79.4273L313.773 69.1232Z" fill="#FF4C16"/>
<path d="M598.515 718.817L568.306 722.896L531.133 787.404L537.132 802.001L522.241 802.86L490.639 857.708L503.601 883.468L476.177 882.824L450.038 928.119L464.393 951.518L547.952 999.818L575.376 1000.57L601.408 955.275L587.053 931.768L615.87 930.158L647.472 875.311L640.83 861.894L656.471 859.854L693.536 795.347L681.967 767.118L598.515 718.817Z" fill="#FF4C16"/>
<path d="M456.144 965.901L430.113 962.681L409.544 998.423L425.292 1019.46L508.743 1067.76L534.775 1070.87L555.343 1035.13L539.596 1014.2L456.144 965.901Z" fill="#FF4C16"/>
<path d="M408.687 1048.23L384.048 1042.64L368.943 1068.83L386.084 1087.4L469.535 1135.7L494.174 1141.28L509.279 1115.1L492.139 1096.53L408.687 1048.23Z" fill="#FF4C16"/>
<path d="M361.23 1130.55L337.984 1122.61L328.45 1139.25L346.875 1155.45L430.434 1203.75L453.68 1211.7L463.215 1195.06L444.682 1178.85L361.23 1130.55Z" fill="#FF4C16"/>
<path d="M313.773 1212.88L291.92 1202.57L287.849 1209.55L307.774 1223.4L391.226 1271.7L413.08 1282L417.15 1275.02L397.225 1261.18L313.773 1212.88Z" fill="#FF4C16"/>
<path d="M799.485 563.183L829.694 559.104L866.867 494.703L860.868 479.999L875.759 479.247L907.361 424.292L894.399 398.532L921.823 399.283L947.962 353.881L933.607 330.482L850.048 282.182L822.624 281.43L796.592 326.833L810.947 350.232L782.13 351.842L750.528 406.797L757.17 420.106L741.529 422.253L704.463 486.653L716.033 514.882L799.485 563.183Z" fill="#FF4C16"/>
<path d="M941.856 316.099L967.887 319.319L988.456 283.577L972.708 262.539L889.257 214.239L863.225 211.126L842.657 246.869L858.404 267.799L941.856 316.099Z" fill="#FF4C16"/>
<path d="M989.313 233.774L1013.95 239.355L1029.06 213.166L1011.92 194.597L928.465 146.297L903.826 140.715L888.721 166.905L905.861 185.474L989.313 233.774Z" fill="#FF4C16"/>
<path d="M1036.77 151.449L1060.02 159.391L1069.55 142.862L1051.12 126.654L967.566 78.354L944.32 70.4112L934.785 86.9407L953.318 103.148L1036.77 151.449Z" fill="#FF4C16"/>
<path d="M1084.23 69.1232L1106.08 79.4273L1110.15 72.4506L1090.23 58.6045L1006.77 10.3041L984.92 0L980.85 6.97672L1000.78 20.8228L1084.23 69.1232Z" fill="#FF4C16"/>
<path d="M626.69 592.7V689.3L650.793 713.451H747.207L771.31 689.3V592.7L747.207 568.549H650.793L626.69 592.7Z" fill="#FF4C16"/>
<path d="M488.604 568.549L478.962 581.107L470.821 568.549H407.509L391.654 592.7L378.585 568.549H326.414L313.345 592.7V689.3L326.414 713.451H378.585L391.654 689.3L407.509 713.451H470.821L478.962 700.893L488.604 713.451H562.949L581.482 689.3V592.7L562.949 568.549H488.604Z" fill="#FF4C16"/>
<path d="M296.74 592.7L286.456 568.549H245.32L235.035 592.7V689.3L245.32 713.451H286.456L296.74 689.3V592.7Z" fill="#FF4C16"/>
<path d="M164.225 568.549L156.619 592.7V689.3L164.225 713.451H194.327L201.826 689.3V592.7L194.327 568.549H164.225Z" fill="#FF4C16"/>
<path d="M83.1301 568.549L78.3094 592.7V689.3L83.1301 713.451H102.199L106.912 689.3V592.7L102.199 568.549H83.1301Z" fill="#FF4C16"/>
<path d="M2.0354 568.549L0 592.7V689.3L2.0354 713.451H10.0699L11.9982 689.3V592.7L10.0699 568.549H2.0354Z" fill="#FF4C16"/>
<path d="M1019.42 568.549L1006.35 592.7L990.491 568.549H927.179L919.038 581.107L909.396 568.549H835.051L816.518 592.7V689.3L835.051 713.451H909.396L919.038 700.893L927.179 713.451H990.491L1006.35 689.3L1019.42 713.451H1071.59L1084.66 689.3V592.7L1071.59 568.549H1019.42Z" fill="#FF4C16"/>
<path d="M1111.54 568.549L1101.26 592.7V689.3L1111.54 713.451H1152.68L1162.96 689.3V592.7L1152.68 568.549H1111.54Z" fill="#FF4C16"/>
<path d="M1203.67 568.549L1196.17 592.7V689.3L1203.67 713.451H1233.78L1241.38 689.3V592.7L1233.78 568.549H1203.67Z" fill="#FF4C16"/>
<path d="M1295.8 568.549L1291.09 592.7V689.3L1295.8 713.451H1314.87L1319.69 689.3V592.7L1314.87 568.549H1295.8Z" fill="#FF4C16"/>
<path d="M1395.96 568.549H1387.93L1386 592.7V689.3L1387.93 713.451H1395.96L1398 689.3V592.7L1395.96 568.549Z" fill="#FF4C16"/>
</svg>
