<svg width="924" height="914" viewBox="0 0 924 914" fill="none" xmlns="http://www.w3.org/2000/svg">
<path d="M278.872 401.113L285.784 382.136L284.639 376.371L273.239 372.222L268.661 375.923L261.75 394.877L262.872 400.664L274.294 404.814L278.872 401.113Z" fill="#E4E6E9"/>
<path d="M259.483 394.07L266.395 375.093L265.452 369.373L254.793 365.492L250.394 369.283L243.483 388.237L244.425 393.957L255.085 397.838L259.483 394.07Z" fill="#E4E6E9"/>
<path d="M240.094 387.004L246.983 368.027L246.243 362.397L236.347 358.785L232.15 362.621L225.238 381.598L225.979 387.25L235.875 390.839L240.094 387.004Z" fill="#E4E6E9"/>
<path d="M217.9 352.079L213.883 355.982L206.972 374.958L207.533 380.544L216.688 383.863L220.683 379.96L227.595 360.984L227.034 355.398L217.9 352.079Z" fill="#E4E6E9"/>
<path d="M195.616 349.342L188.727 368.319L189.086 373.814L197.479 376.865L201.294 372.895L208.206 353.918L207.847 348.422L199.454 345.372L195.616 349.342Z" fill="#E4E6E9"/>
<path d="M181.008 338.665L177.372 342.702L170.46 361.679L170.64 367.107L178.27 369.889L181.905 365.851L188.817 346.875L188.637 341.424L181.008 338.665Z" fill="#E4E6E9"/>
<path d="M162.561 331.935L159.105 336.063L152.216 355.039L152.194 360.4L159.083 362.913L162.516 358.785L169.428 339.809V334.448L162.561 331.935Z" fill="#E4E6E9"/>
<path d="M144.115 325.229L140.861 329.423L133.949 348.4L133.747 353.694L139.874 355.914L143.127 351.742L150.039 332.765L150.241 327.472L144.115 325.229Z" fill="#E4E6E9"/>
<path d="M125.668 318.522L122.594 322.784L115.682 341.76L115.301 346.987L120.664 348.938L123.739 344.676L130.65 325.7L131.032 320.473L125.668 318.522Z" fill="#E4E6E9"/>
<path d="M104.35 337.633L111.261 318.656L111.823 313.497L107.222 311.815L104.35 316.144L97.438 335.098L96.8545 340.28L101.477 341.94L104.35 337.633Z" fill="#E4E6E9"/>
<path d="M86.0829 309.504L79.1711 328.459L78.4082 333.55L82.268 334.964L84.9609 330.567L91.8726 311.59L92.6356 306.499L88.7758 305.108L86.0829 309.504Z" fill="#E4E6E9"/>
<path d="M67.8385 302.842L60.9268 321.819L59.9618 326.844L63.0587 327.965L65.572 323.501L72.4613 304.547L73.4263 299.522L70.3295 298.401L67.8385 302.842Z" fill="#E4E6E9"/>
<path d="M49.5717 296.203L42.66 315.179L41.5155 320.137L43.8493 320.989L46.1607 316.458L53.0725 297.481L54.217 292.524L51.8831 291.672L49.5717 296.203Z" fill="#E4E6E9"/>
<path d="M31.3049 289.563L24.4156 308.54L23.0691 313.43L24.6624 313.991L26.7719 309.392L33.6836 290.438L35.0301 285.548L33.4368 284.965L31.3049 289.563Z" fill="#E4E6E9"/>
<path d="M645.128 512.887L638.216 531.864L639.361 537.629L650.761 541.778L655.339 538.077L662.25 519.123L661.128 513.336L649.706 509.186L645.128 512.887Z" fill="#E4E6E9"/>
<path d="M664.517 519.93L657.605 538.907L658.548 544.627L669.207 548.508L673.606 544.717L680.517 525.763L679.575 520.043L668.915 516.162L664.517 519.93Z" fill="#E4E6E9"/>
<path d="M687.653 555.215L691.85 551.356L698.762 532.402L698.021 526.75L688.125 523.161L683.906 526.996L677.017 545.973L677.757 551.603L687.653 555.215Z" fill="#E4E6E9"/>
<path d="M706.1 561.921L710.117 558.018L717.028 539.042L716.467 533.456L707.312 530.137L703.317 534.04L696.405 553.016L696.966 558.602L706.1 561.921Z" fill="#E4E6E9"/>
<path d="M728.383 564.658L735.273 545.681L734.914 540.186L726.521 537.113L722.706 541.105L715.794 560.082L716.153 565.578L724.546 568.628L728.383 564.658Z" fill="#E4E6E9"/>
<path d="M742.992 575.335L746.628 571.298L753.54 552.321L753.36 546.893L745.73 544.111L742.095 548.149L735.183 567.125L735.363 572.576L742.992 575.335Z" fill="#E4E6E9"/>
<path d="M754.572 579.552L761.439 582.042L764.895 577.937L771.784 558.961L771.806 553.6L764.917 551.087L761.484 555.215L754.572 574.191V579.552Z" fill="#E4E6E9"/>
<path d="M773.759 586.528L779.885 588.772L783.139 584.577L790.051 565.6L790.253 560.306L784.126 558.086L780.873 562.258L773.961 581.235L773.759 586.528Z" fill="#E4E6E9"/>
<path d="M792.968 593.527L798.331 595.478L801.406 591.216L808.318 572.24L808.699 567.013L803.336 565.062L800.261 569.324L793.35 588.3L792.968 593.527Z" fill="#E4E6E9"/>
<path d="M819.65 576.367L812.739 595.344L812.177 600.503L816.778 602.185L819.65 597.856L826.562 578.902L827.145 573.72L822.523 572.06L819.65 576.367Z" fill="#E4E6E9"/>
<path d="M839.039 583.433L832.127 602.41L831.364 607.501L835.224 608.892L837.917 604.496L844.829 585.541L845.592 580.45L841.732 579.036L839.039 583.433Z" fill="#E4E6E9"/>
<path d="M858.428 590.476L851.539 609.453L850.574 614.478L853.671 615.599L856.161 611.135L863.073 592.181L864.038 587.156L860.941 586.035L858.428 590.476Z" fill="#E4E6E9"/>
<path d="M877.839 597.542L870.927 616.519L869.783 621.476L872.117 622.328L874.428 617.797L881.34 598.821L882.484 593.863L880.151 593.011L877.839 597.542Z" fill="#E4E6E9"/>
<path d="M897.228 604.585L890.316 623.562L888.97 628.452L890.563 629.035L892.695 624.437L899.584 605.46L900.931 600.57L899.338 599.987L897.228 604.585Z" fill="#E4E6E9"/>
<path d="M309.032 341.872L322.025 326.417L322.946 320.585L313.633 312.779L308.067 314.708L295.074 330.163L294.154 335.995L303.467 343.801L309.032 341.872Z" fill="#E4E6E9"/>
<path d="M293.234 328.616L306.205 313.161L307.282 307.463L298.597 300.173L293.167 302.214L280.196 317.692L279.119 323.367L287.803 330.657L293.234 328.616Z" fill="#E4E6E9"/>
<path d="M277.413 315.359L290.406 299.904L291.618 294.341L283.562 287.567L278.288 289.742L265.318 305.198L264.083 310.76L272.162 317.535L277.413 315.359Z" fill="#E4E6E9"/>
<path d="M263.41 277.248L250.417 292.726L249.048 298.154L256.498 304.412L261.615 302.102L274.586 286.647L275.977 281.196L268.527 274.96L263.41 277.248Z" fill="#E4E6E9"/>
<path d="M248.532 264.777L235.539 280.232L234.013 285.548L240.857 291.268L245.794 288.845L258.787 273.368L260.313 268.074L253.491 262.332L248.532 264.777Z" fill="#E4E6E9"/>
<path d="M233.654 252.283L220.66 267.76L218.977 272.919L225.193 278.146L229.996 275.589L242.967 260.111L244.672 254.952L238.434 249.725L233.654 252.283Z" fill="#E4E6E9"/>
<path d="M218.753 239.811L205.782 255.266L203.942 260.313L209.53 265.023L214.175 262.332L227.168 246.854L229.008 241.83L223.398 237.119L218.753 239.811Z" fill="#E4E6E9"/>
<path d="M188.907 247.707L193.889 251.879L198.377 249.075L211.37 233.597L213.367 228.685L208.363 224.513L203.875 227.317L190.904 242.794L188.907 247.707Z" fill="#E4E6E9"/>
<path d="M173.849 235.1L178.225 238.757L182.578 235.818L195.549 220.341L197.703 215.563L193.327 211.884L188.996 214.845L176.003 230.3L173.849 235.1Z" fill="#E4E6E9"/>
<path d="M158.814 222.472L162.584 225.634L166.758 222.539L179.751 207.084L182.04 202.441L178.292 199.278L174.118 202.351L161.125 217.828L158.814 222.472Z" fill="#E4E6E9"/>
<path d="M143.778 209.865L146.92 212.49L150.959 209.282L163.93 193.827L166.399 189.296L163.257 186.672L159.217 189.879L146.247 205.334L143.778 209.865Z" fill="#E4E6E9"/>
<path d="M128.743 197.259L131.279 199.368L135.139 196.025L148.132 180.57L150.735 176.174L148.221 174.065L144.339 177.385L131.368 192.863L128.743 197.259Z" fill="#E4E6E9"/>
<path d="M113.708 184.63L115.615 186.245L119.34 182.769L132.311 167.314L135.094 163.052L133.186 161.437L129.461 164.913L116.49 180.368L113.708 184.63Z" fill="#E4E6E9"/>
<path d="M103.519 169.512L116.513 154.057L119.43 149.907L118.151 148.83L114.583 152.419L101.59 167.897L98.6722 172.024L99.9513 173.101L103.519 169.512Z" fill="#E4E6E9"/>
<path d="M629.846 578.005L620.533 570.199L614.968 572.128L601.974 587.583L601.054 593.415L610.367 601.198L615.933 599.292L628.926 583.837L629.846 578.005Z" fill="#E4E6E9"/>
<path d="M630.833 611.786L643.804 596.308L644.881 590.633L636.197 583.343L630.766 585.384L617.795 600.839L616.718 606.537L625.403 613.827L630.833 611.786Z" fill="#E4E6E9"/>
<path d="M645.712 624.257L658.682 608.802L659.917 603.24L651.838 596.465L646.587 598.641L633.594 614.096L632.382 619.659L640.438 626.433L645.712 624.257Z" fill="#E4E6E9"/>
<path d="M660.59 636.752L673.583 621.274L674.952 615.846L667.502 609.588L662.385 611.898L649.414 627.353L648.023 632.781L655.473 639.04L660.59 636.752Z" fill="#E4E6E9"/>
<path d="M675.468 649.223L688.461 633.768L689.987 628.452L683.143 622.732L678.206 625.155L665.213 640.632L663.687 645.926L670.509 651.668L675.468 649.223Z" fill="#E4E6E9"/>
<path d="M690.346 661.717L703.34 646.24L705.023 641.081L698.807 635.854L694.004 638.411L681.033 653.889L679.328 659.048L685.566 664.275L690.346 661.717Z" fill="#E4E6E9"/>
<path d="M705.247 674.189L718.218 658.734L720.058 653.687L714.47 648.977L709.825 651.668L696.832 667.146L694.992 672.17L700.602 676.881L705.247 674.189Z" fill="#E4E6E9"/>
<path d="M735.093 666.293L730.111 662.121L725.623 664.925L712.63 680.403L710.633 685.315L715.637 689.487L720.125 686.683L733.096 671.206L735.093 666.293Z" fill="#E4E6E9"/>
<path d="M750.151 678.9L745.775 675.243L741.422 678.182L728.451 693.659L726.297 698.437L730.672 702.116L735.004 699.155L747.997 683.7L750.151 678.9Z" fill="#E4E6E9"/>
<path d="M765.186 691.528L761.416 688.366L757.242 691.439L744.249 706.916L741.96 711.559L745.708 714.722L749.882 711.649L762.875 696.172L765.186 691.528Z" fill="#E4E6E9"/>
<path d="M780.222 704.135L777.08 701.51L773.041 704.718L760.07 720.173L757.601 724.704L760.743 727.328L764.782 724.121L777.753 708.666L780.222 704.135Z" fill="#E4E6E9"/>
<path d="M795.257 716.741L792.721 714.632L788.861 717.975L775.868 733.43L773.265 737.826L775.779 739.935L779.661 736.615L792.632 721.137L795.257 716.741Z" fill="#E4E6E9"/>
<path d="M810.292 729.347L808.385 727.755L804.66 731.231L791.689 746.686L788.906 750.948L790.814 752.563L794.539 749.087L807.51 733.632L810.292 729.347Z" fill="#E4E6E9"/>
<path d="M820.481 744.488L807.487 759.943L804.57 764.093L805.849 765.17L809.417 761.581L822.41 746.103L825.328 741.976L824.049 740.899L820.481 744.488Z" fill="#E4E6E9"/>
<path d="M366.032 270.654L348.528 280.748L345.678 285.907L351.76 296.427L357.639 296.517L375.143 286.423L377.993 281.286L371.911 270.766L366.032 270.654Z" fill="#E4E6E9"/>
<path d="M338.834 263.924L335.871 268.904L341.549 278.729L347.339 278.662L364.82 268.568L367.782 263.588L362.105 253.763L356.315 253.83L338.834 263.924Z" fill="#E4E6E9"/>
<path d="M329.117 247.123L326.065 251.924L331.316 261.031L337.016 260.806L354.497 250.712L357.549 245.89L352.298 236.783L346.598 237.029L329.117 247.123Z" fill="#E4E6E9"/>
<path d="M319.4 230.3L316.236 234.921L321.105 243.355L326.693 242.929L344.197 232.835L347.339 228.214L342.469 219.78L336.881 220.206L319.4 230.3Z" fill="#E4E6E9"/>
<path d="M306.429 217.941L310.895 225.657L316.37 225.074L333.874 214.98L337.128 210.516L332.662 202.8L327.164 203.383L309.683 213.477L306.429 217.941Z" fill="#E4E6E9"/>
<path d="M296.6 200.938L300.662 207.981L306.07 207.218L323.551 197.124L326.918 192.84L322.856 185.797L317.47 186.559L299.966 196.653L296.6 200.938Z" fill="#E4E6E9"/>
<path d="M286.793 183.957L290.451 190.283L295.747 189.341L313.229 179.247L316.685 175.142L313.027 168.816L307.753 169.759L290.249 179.853L286.793 183.957Z" fill="#E4E6E9"/>
<path d="M276.987 166.955L280.241 172.585L285.425 171.486L302.906 161.392L306.474 157.444L303.22 151.814L298.036 152.935L280.532 163.029L276.987 166.955Z" fill="#E4E6E9"/>
<path d="M267.158 149.974L270.03 154.909L275.102 153.608L292.606 143.514L296.263 139.768L293.413 134.833L288.319 136.112L270.816 146.206L267.158 149.974Z" fill="#E4E6E9"/>
<path d="M257.351 132.972L259.797 137.211L264.779 135.753L282.283 125.659L286.03 122.07L283.584 117.831L278.603 119.289L261.121 129.383L257.351 132.972Z" fill="#E4E6E9"/>
<path d="M247.544 115.991L249.587 119.535L254.479 117.898L271.96 107.804L275.82 104.394L273.778 100.85L268.886 102.465L251.404 112.559L247.544 115.991Z" fill="#E4E6E9"/>
<path d="M237.715 98.9884L239.376 101.837L244.156 100.02L261.637 89.9263L265.609 86.6962L263.949 83.8475L259.169 85.6644L241.687 95.7584L237.715 98.9884Z" fill="#E4E6E9"/>
<path d="M227.909 81.9857L229.143 84.1391L233.833 82.1651L251.315 72.0711L255.376 68.9981L254.142 66.8447L249.452 68.841L231.971 78.935L227.909 81.9857Z" fill="#E4E6E9"/>
<path d="M223.51 64.31L241.014 54.216L245.166 51.3224L244.335 49.8643L239.735 52.0177L222.254 62.1117L218.102 65.0053L218.932 66.4633L223.51 64.31Z" fill="#E4E6E9"/>
<path d="M548.857 627.577L546.007 632.714L552.089 643.234L557.968 643.346L575.472 633.252L578.322 628.093L572.24 617.573L566.361 617.483L548.857 627.577Z" fill="#E4E6E9"/>
<path d="M585.166 650.076L588.128 645.096L582.451 635.271L576.661 635.338L559.18 645.432L556.218 650.412L561.895 660.237L567.685 660.17L585.166 650.076Z" fill="#E4E6E9"/>
<path d="M594.883 666.877L597.935 662.076L592.684 652.947L586.984 653.194L569.503 663.288L566.451 668.088L571.702 677.217L577.402 676.971L594.883 666.877Z" fill="#E4E6E9"/>
<path d="M604.6 683.7L607.764 679.079L602.895 670.645L597.307 671.071L579.803 681.165L576.661 685.786L581.531 694.22L587.119 693.794L604.6 683.7Z" fill="#E4E6E9"/>
<path d="M617.571 696.059L613.105 688.343L607.63 688.926L590.126 699.02L586.872 703.484L591.338 711.2L596.836 710.617L614.317 700.523L617.571 696.059Z" fill="#E4E6E9"/>
<path d="M627.4 713.062L623.338 706.019L617.93 706.781L600.449 716.875L597.082 721.16L601.144 728.203L606.53 727.441L624.034 717.347L627.4 713.062Z" fill="#E4E6E9"/>
<path d="M637.207 730.043L633.549 723.717L628.253 724.659L610.771 734.753L607.315 738.858L610.973 745.184L616.247 744.241L633.751 734.147L637.207 730.043Z" fill="#E4E6E9"/>
<path d="M647.013 747.045L643.759 741.393L638.575 742.514L621.094 752.608L617.526 756.534L620.78 762.186L625.964 761.065L643.467 750.971L647.013 747.045Z" fill="#E4E6E9"/>
<path d="M656.842 764.026L653.97 759.091L648.898 760.392L631.394 770.486L627.737 774.232L630.586 779.167L635.681 777.888L653.184 767.794L656.842 764.026Z" fill="#E4E6E9"/>
<path d="M666.649 781.028L664.203 776.789L659.221 778.247L641.717 788.341L637.97 791.93L640.416 796.169L645.397 794.711L662.879 784.617L666.649 781.028Z" fill="#E4E6E9"/>
<path d="M676.456 798.009L674.413 794.465L669.521 796.102L652.04 806.196L648.18 809.606L650.222 813.15L655.114 811.512L672.596 801.418L676.456 798.009Z" fill="#E4E6E9"/>
<path d="M686.285 815.012L684.624 812.163L679.844 813.98L662.363 824.074L658.391 827.304L660.051 830.153L664.831 828.336L682.312 818.242L686.285 815.012Z" fill="#E4E6E9"/>
<path d="M696.091 831.992L694.857 829.839L690.167 831.835L672.685 841.929L668.624 844.98L669.858 847.133L674.548 845.159L692.029 835.065L696.091 831.992Z" fill="#E4E6E9"/>
<path d="M700.49 849.69L682.986 859.784L678.834 862.678L679.664 864.136L684.265 861.982L701.746 851.888L705.898 848.995L705.068 847.537L700.49 849.69Z" fill="#E4E6E9"/>
<path d="M415.693 252.597L411.25 256.455L413.36 268.411L418.858 270.519L438.74 267.02L443.183 263.162L441.074 251.206L435.576 249.097L415.693 252.597Z" fill="#E4E6E9"/>
<path d="M412.305 233.463L407.839 237.142L409.814 248.29L415.267 250.219L435.15 246.72L439.638 243.041L437.663 231.87L432.21 229.964L412.305 233.463Z" fill="#E4E6E9"/>
<path d="M408.939 214.352L404.428 217.806L406.246 228.192L411.676 229.896L431.581 226.397L436.092 222.92L434.252 212.557L428.821 210.83L408.939 214.352Z" fill="#E4E6E9"/>
<path d="M405.573 195.218L401.017 198.493L402.7 208.071L408.108 209.596L427.991 206.075L432.546 202.8L430.841 193.221L425.455 191.719L405.573 195.218Z" fill="#E4E6E9"/>
<path d="M402.184 176.084L397.606 179.157L399.155 187.95L404.518 189.274L424.4 185.774L429.001 182.701L427.452 173.908L422.089 172.585L402.184 176.084Z" fill="#E4E6E9"/>
<path d="M398.818 156.973L394.195 159.844L395.609 167.829L400.927 168.951L420.832 165.452L425.455 162.581L424.041 154.595L418.7 153.451L398.818 156.973Z" fill="#E4E6E9"/>
<path d="M395.452 137.839L390.784 140.508L392.063 147.731L397.359 148.651L417.242 145.152L421.887 142.46L420.63 135.26L415.334 134.34L395.452 137.839Z" fill="#E4E6E9"/>
<path d="M392.063 118.728L387.373 121.195L388.518 127.611L393.769 128.328L413.651 124.829L418.341 122.339L417.219 115.946L411.968 115.206L392.063 118.728Z" fill="#E4E6E9"/>
<path d="M388.697 99.5941L383.985 101.882L384.972 107.49L390.178 108.028L410.083 104.506L414.796 102.241L413.808 96.6107L408.58 96.0948L388.697 99.5941Z" fill="#E4E6E9"/>
<path d="M385.331 80.4604L380.574 82.5464L381.426 87.3691L386.61 87.7056L406.493 84.2064L411.25 82.1203L410.397 77.2976L405.214 76.9611L385.331 80.4604Z" fill="#E4E6E9"/>
<path d="M381.942 61.3491L377.163 63.2333L377.858 67.2709L383.02 67.383L402.902 63.8838L407.704 61.9996L406.986 57.962L401.847 57.8274L381.942 61.3491Z" fill="#E4E6E9"/>
<path d="M378.576 42.2153L373.752 43.8977L374.313 47.1502L379.429 47.0829L399.334 43.5836L404.159 41.8789L403.575 38.6488L398.459 38.7161L378.576 42.2153Z" fill="#E4E6E9"/>
<path d="M375.21 23.0816L370.341 24.5845L370.767 27.0295L375.861 26.7603L395.744 23.261L400.613 21.7806L400.164 19.3132L395.093 19.5823L375.21 23.0816Z" fill="#E4E6E9"/>
<path d="M372.27 6.46016L392.153 2.93847L397.068 1.6599L396.776 0L391.727 0.471053L371.822 3.9703L366.93 5.24888L367.221 6.90878L372.27 6.46016Z" fill="#E4E6E9"/>
<path d="M504.94 642.292L509.339 638.21L507.095 625.469L501.574 623.158L505.95 618.896L503.549 605.348L498.926 603.262L502.539 599.561L500.003 585.227L496.211 583.41L499.128 580.248L496.458 565.129L493.406 563.559L495.717 560.935L492.912 545.008L490.533 543.707L492.306 541.599L491.835 538.93L493.181 541.285L495.897 541.756L494.909 544.268L503.011 558.265L506.466 558.804L505.142 561.966L512.817 575.268L517.081 575.806L515.353 579.642L522.624 592.248L527.763 592.787L525.564 597.34L532.453 609.251L538.534 609.7L535.797 615.038L542.26 626.254L548.251 626.523L565.755 616.429L568.493 611.113L562.03 599.897L556.038 599.606L558.686 594.11L551.797 582.199L546.748 581.818L548.88 577.107L541.586 564.501L537.39 564.097L539.05 560.127L531.376 546.825L527.965 546.399L529.244 543.124L521.165 529.127L518.495 528.723L519.437 526.144L518.068 523.789L520.155 525.538L522.848 525.067L522.803 527.759L535.191 538.145L538.624 537.472L538.445 540.881L550.226 550.751L554.422 549.809L554.108 554.026L565.261 563.38L570.266 562.101L569.749 567.148L580.297 575.986L586.176 574.326L585.413 580.27L595.332 588.592L601.054 586.82L614.048 571.343L614.811 565.398L604.892 557.076L599.169 558.871L599.775 552.792L589.228 543.954L584.358 545.322L584.74 540.186L573.587 530.81L569.48 531.841L569.705 527.557L557.923 517.687L554.58 518.45L554.669 514.951L542.26 504.565L539.634 505.081L539.612 502.344L537.547 500.595L540.083 501.515L542.484 500.146L543.337 502.703L558.529 508.244L561.536 506.427L562.546 509.702L576.975 514.951L580.588 512.618L581.755 516.678L595.422 521.658L599.708 518.764L600.942 523.654L613.868 528.365L618.828 524.798L620.152 530.653L632.314 535.071L637.094 531.438L644.006 512.461L642.682 506.629L630.519 502.187L625.739 505.821L624.236 499.899L611.31 495.211L607.203 498.172L605.789 493.193L592.101 488.213L588.622 490.591L587.343 486.486L572.914 481.237L570.019 483.099L568.897 479.779L553.704 474.238L551.393 475.651L550.45 473.072L547.915 472.13H550.607L552.38 470.044L554.063 472.13H570.243L572.442 469.416L574.507 472.13H589.879L592.482 468.72L594.951 472.13H609.515L612.522 467.958L615.372 472.13H629.128L632.584 467.083L635.815 472.13H648.764L651.995 467.083V446.895L648.764 441.848H635.815L632.584 446.895L629.128 441.848H615.372L612.522 446.042L609.515 441.848H594.951L592.482 445.28L589.879 441.848H574.507L572.442 444.584L570.243 441.848H554.063L552.38 443.956L550.607 441.848H547.915L550.45 440.928L551.393 438.349L553.704 439.739L568.897 434.221L570.019 430.901L572.914 432.763L587.343 427.514L588.622 423.409L592.101 425.787L605.789 420.807L607.203 415.828L611.31 418.789L624.236 414.078L625.739 408.179L630.519 411.813L642.682 407.371L644.006 401.539L637.094 382.562L632.314 378.929L620.152 383.347L618.828 389.202L613.868 385.635L600.942 390.346L599.708 395.236L595.422 392.342L581.755 397.322L580.588 401.382L576.975 399.049L562.546 404.298L561.536 407.573L558.529 405.756L543.337 411.297L542.484 413.854L540.083 412.485L537.547 413.405L539.612 411.656L539.634 408.919L542.26 409.435L554.669 399.049L554.58 395.55L557.923 396.313L569.705 386.443L569.48 382.136L573.587 383.19L584.74 373.814L584.358 368.678L589.228 370.046L599.775 361.208L599.169 355.129L604.892 356.924L614.811 348.602L614.048 342.657L601.054 327.18L595.332 325.408L585.413 333.73L586.176 339.674L580.297 338.014L569.749 346.852L570.266 351.899L565.261 350.621L554.108 359.974L554.422 364.191L550.226 363.249L538.445 373.119L538.624 376.528L535.191 375.855L522.803 386.241L522.848 388.933L520.155 388.462L518.068 390.211L519.437 387.856L518.495 385.277L521.165 384.873L529.244 370.876L527.965 367.601L531.376 367.175L539.05 353.873L537.39 349.903L541.586 349.477L548.88 336.893L546.748 332.182L551.797 331.801L558.686 319.89L556.038 314.394L562.03 314.103L568.493 302.887L565.755 297.571L548.251 287.477L542.26 287.746L535.797 298.962L538.534 304.3L532.453 304.749L525.564 316.66L527.763 321.213L522.624 321.752L515.353 334.336L517.081 338.194L512.817 338.732L505.142 352.034L506.466 355.196L503.011 355.735L494.909 369.732L495.897 372.244L493.181 372.715L491.835 375.07L492.306 372.401L490.533 370.293L492.912 368.992L495.717 353.065L493.406 350.441L496.458 348.871L499.128 333.752L496.211 330.59L500.003 328.773L502.539 314.417L498.926 310.738L503.549 308.652L505.95 295.104L501.574 290.842L507.095 288.531L509.339 275.79L504.94 271.708L485.058 268.209L479.515 270.519L477.271 283.282L481.669 287.342L476.104 289.855L473.725 303.381L477.338 306.925L472.693 309.168L470.157 323.501L473.097 326.53L469.282 328.481L466.612 343.622L468.945 346.134L465.871 347.817L463.066 363.743L464.861 365.762L462.46 367.13L462.011 369.799L461.54 367.13L459.139 365.762L460.934 363.743L458.129 347.817L455.055 346.134L457.388 343.622L454.718 328.481L450.903 326.53L453.843 323.501L451.307 309.168L446.662 306.925L450.275 303.381L447.896 289.855L442.331 287.342L446.729 283.282L444.485 270.519L438.942 268.209L419.06 271.708L414.661 275.79L416.905 288.531L422.426 290.842L418.05 295.104L420.451 308.652L425.074 310.738L421.461 314.417L423.996 328.773L427.789 330.59L424.872 333.752L427.542 348.871L430.594 350.441L428.283 353.065L431.088 368.992L433.467 370.293L431.694 372.401L432.165 375.07L430.818 372.715L428.103 372.244L429.091 369.732L420.989 355.735L417.534 355.196L418.858 352.034L411.183 338.732L406.919 338.194L408.647 334.336L401.376 321.752L396.237 321.213L398.436 316.66L391.547 304.749L385.466 304.3L388.203 298.962L381.74 287.746L375.749 287.477L358.245 297.571L355.507 302.887L361.97 314.103L367.962 314.394L365.314 319.89L372.203 331.801L377.252 332.182L375.12 336.893L382.414 349.477L386.61 349.903L384.949 353.873L392.624 367.175L396.035 367.601L394.756 370.876L402.835 384.873L405.505 385.277L404.563 387.856L405.932 390.211L403.845 388.462L401.152 388.933L401.197 386.241L388.809 375.855L385.376 376.528L385.555 373.119L373.774 363.249L369.578 364.191L369.892 359.974L358.739 350.621L353.734 351.899L354.25 346.852L343.703 338.014L337.824 339.674L338.587 333.73L328.668 325.408L322.946 327.18L309.952 342.657L309.189 348.602L319.108 356.924L324.831 355.129L324.225 361.208L334.772 370.046L339.642 368.678L339.26 373.814L350.413 383.19L354.52 382.136L354.295 386.443L366.077 396.313L369.42 395.55L369.331 399.049L381.74 409.435L384.366 408.919L384.388 411.656L386.453 413.405L383.917 412.485L381.516 413.854L380.663 411.297L365.471 405.756L362.486 407.573L361.454 404.298L347.025 399.049L343.412 401.382L342.245 397.322L328.578 392.342L324.292 395.236L323.058 390.346L310.132 385.635L305.172 389.202L303.848 383.347L291.686 378.929L286.906 382.562L279.994 401.539L281.318 407.371L293.481 411.813L298.261 408.179L299.764 414.078L312.69 418.789L316.797 415.828L318.211 420.807L331.899 425.787L335.378 423.409L336.657 427.514L351.086 432.763L353.981 430.901L355.103 434.221L370.296 439.739L372.607 438.349L373.55 440.928L376.085 441.848H373.392L371.62 443.956L369.937 441.848H353.757L351.558 444.584L349.493 441.848H334.121L331.518 445.28L329.049 441.848H314.485L311.478 446.042L308.628 441.848H294.872L291.416 446.895L288.185 441.848H275.236L272.005 446.895V467.083L275.236 472.13H288.185L291.416 467.083L294.872 472.13H308.628L311.478 467.958L314.485 472.13H329.049L331.518 468.72L334.121 472.13H349.493L351.558 469.416L353.757 472.13H369.937L371.62 470.044L373.392 472.13H376.085L373.55 473.072L372.607 475.651L370.296 474.238L355.103 479.779L353.981 483.099L351.086 481.237L336.657 486.486L335.378 490.591L331.899 488.213L318.211 493.193L316.797 498.172L312.69 495.211L299.764 499.899L298.261 505.821L293.481 502.187L281.318 506.629L279.994 512.461L286.906 531.438L291.686 535.071L303.848 530.653L305.172 524.798L310.132 528.365L323.058 523.654L324.292 518.764L328.578 521.658L342.245 516.678L343.412 512.618L347.025 514.951L361.454 509.702L362.486 506.427L365.471 508.244L380.663 502.703L381.516 500.146L383.917 501.515L386.453 500.595L384.388 502.344L384.366 505.081L381.74 504.565L369.331 514.951L369.42 518.45L366.077 517.687L354.295 527.557L354.52 531.841L350.413 530.81L339.26 540.186L339.642 545.322L334.772 543.954L324.225 552.792L324.831 558.871L319.108 557.076L309.189 565.398L309.952 571.343L322.946 586.82L328.668 588.592L338.587 580.27L337.824 574.326L343.703 575.986L354.25 567.148L353.734 562.101L358.739 563.38L369.892 554.026L369.578 549.809L373.774 550.751L385.555 540.881L385.376 537.472L388.809 538.145L401.197 527.759L401.152 525.067L403.845 525.538L405.932 523.789L404.563 526.144L405.505 528.723L402.835 529.127L394.756 543.124L396.035 546.399L392.624 546.825L384.949 560.127L386.61 564.097L382.414 564.501L375.12 577.107L377.252 581.818L372.203 582.199L365.314 594.11L367.962 599.606L361.97 599.897L355.507 611.113L358.245 616.429L375.749 626.523L381.74 626.254L388.203 615.038L385.466 609.7L391.547 609.251L398.436 597.34L396.237 592.787L401.376 592.248L408.647 579.642L406.919 575.806L411.183 575.268L418.858 561.966L417.534 558.804L420.989 558.265L429.091 544.268L428.103 541.756L430.818 541.285L432.165 538.93L431.694 541.599L433.467 543.707L431.088 545.008L428.283 560.935L430.594 563.559L427.542 565.129L424.872 580.248L427.789 583.41L423.996 585.227L421.461 599.561L425.074 603.262L420.451 605.348L418.05 618.896L422.426 623.158L416.905 625.469L414.661 638.21L419.06 642.292L438.942 645.791L444.485 643.481L446.729 630.718L442.331 626.658L447.896 624.145L450.275 610.619L446.662 607.075L451.307 604.832L453.843 590.499L450.903 587.47L454.718 585.497L457.388 570.378L455.055 567.866L458.129 566.183L460.934 550.257L459.139 548.239L461.54 546.87L462.011 544.201L462.46 546.87L464.861 548.239L463.066 550.257L465.871 566.183L468.945 567.866L466.612 570.378L469.282 585.497L473.097 587.47L470.157 590.499L472.693 604.832L477.338 607.075L473.725 610.619L476.104 624.145L481.669 626.658L477.271 630.718L479.515 643.481L485.058 645.791L504.94 642.292Z" fill="#E4E6E9"/>
<path d="M508.307 661.403L512.75 657.545L510.64 645.589L505.142 643.481L485.26 646.98L480.817 650.838L482.926 662.794L488.424 664.903L508.307 661.403Z" fill="#E4E6E9"/>
<path d="M511.695 680.537L516.161 676.858L514.186 665.688L508.733 663.781L488.85 667.28L484.362 670.959L486.337 682.13L491.79 684.036L511.695 680.537Z" fill="#E4E6E9"/>
<path d="M515.061 699.648L519.572 696.194L517.754 685.808L512.323 684.104L492.418 687.603L487.908 691.08L489.748 701.443L495.179 703.17L515.061 699.648Z" fill="#E4E6E9"/>
<path d="M518.427 718.782L522.983 715.507L521.3 705.929L515.892 704.404L496.009 707.926L491.454 711.178L493.159 720.779L498.545 722.281L518.427 718.782Z" fill="#E4E6E9"/>
<path d="M521.816 737.916L526.394 734.843L524.845 726.05L519.482 724.726L499.6 728.226L494.999 731.299L496.548 740.092L501.911 741.415L521.816 737.916Z" fill="#E4E6E9"/>
<path d="M525.182 757.027L529.805 754.156L528.391 746.171L523.073 745.049L503.168 748.548L498.545 751.419L499.959 759.405L505.299 760.526L525.182 757.027Z" fill="#E4E6E9"/>
<path d="M528.548 776.161L533.216 773.469L531.937 766.269L526.641 765.349L506.758 768.848L502.113 771.54L503.37 778.74L508.666 779.66L528.548 776.161Z" fill="#E4E6E9"/>
<path d="M531.937 795.272L536.627 792.805L535.482 786.389L530.231 785.672L510.349 789.171L505.659 791.661L506.781 798.054L512.032 798.794L531.937 795.272Z" fill="#E4E6E9"/>
<path d="M535.303 814.406L540.015 812.118L539.028 806.51L533.822 805.972L513.917 809.494L509.204 811.759L510.192 817.389L515.42 817.905L535.303 814.406Z" fill="#E4E6E9"/>
<path d="M538.669 833.54L543.426 831.454L542.574 826.631L537.39 826.294L517.507 829.794L512.75 831.88L513.603 836.702L518.786 837.039L538.669 833.54Z" fill="#E4E6E9"/>
<path d="M542.058 852.651L546.837 850.767L546.142 846.729L540.98 846.595L521.098 850.116L516.296 852L517.014 856.038L522.153 856.173L542.058 852.651Z" fill="#E4E6E9"/>
<path d="M545.424 871.785L550.248 870.102L549.687 866.85L544.571 866.917L524.666 870.416L519.841 872.121L520.425 875.351L525.541 875.284L545.424 871.785Z" fill="#E4E6E9"/>
<path d="M548.79 890.896L553.659 889.416L553.233 886.971L548.139 887.24L528.256 890.739L523.387 892.219L523.836 894.687L528.907 894.418L548.79 890.896Z" fill="#E4E6E9"/>
<path d="M551.73 907.54L531.847 911.062L526.932 912.34L527.224 914L532.273 913.529L552.178 910.03L557.07 908.751L556.779 907.091L551.73 907.54Z" fill="#E4E6E9"/>
<path d="M505.142 270.519L510.64 268.411L512.75 256.455L508.307 252.597L488.424 249.097L482.926 251.206L480.817 263.162L485.26 267.02L505.142 270.519Z" fill="#E4E6E9"/>
<path d="M508.733 250.219L514.186 248.29L516.161 237.142L511.695 233.463L491.79 229.964L486.337 231.87L484.362 243.041L488.85 246.72L508.733 250.219Z" fill="#E4E6E9"/>
<path d="M512.323 229.896L517.754 228.192L519.572 217.806L515.061 214.352L495.179 210.83L489.748 212.557L487.908 222.92L492.418 226.397L512.323 229.896Z" fill="#E4E6E9"/>
<path d="M515.892 209.596L521.3 208.071L522.983 198.493L518.427 195.218L498.545 191.719L493.159 193.221L491.454 202.8L496.009 206.075L515.892 209.596Z" fill="#E4E6E9"/>
<path d="M519.482 189.274L524.845 187.95L526.394 179.157L521.816 176.084L501.911 172.585L496.548 173.908L494.999 182.701L499.6 185.774L519.482 189.274Z" fill="#E4E6E9"/>
<path d="M523.073 168.951L528.391 167.829L529.805 159.844L525.182 156.973L505.299 153.451L499.959 154.595L498.545 162.581L503.168 165.452L523.073 168.951Z" fill="#E4E6E9"/>
<path d="M526.641 148.651L531.937 147.731L533.216 140.508L528.548 137.839L508.666 134.34L503.37 135.26L502.113 142.46L506.758 145.152L526.641 148.651Z" fill="#E4E6E9"/>
<path d="M530.231 128.328L535.482 127.611L536.627 121.195L531.937 118.728L512.032 115.206L506.781 115.946L505.659 122.339L510.349 124.829L530.231 128.328Z" fill="#E4E6E9"/>
<path d="M533.822 108.028L539.028 107.49L540.015 101.882L535.303 99.5941L515.42 96.0948L510.192 96.6107L509.204 102.241L513.917 104.506L533.822 108.028Z" fill="#E4E6E9"/>
<path d="M537.39 87.7056L542.574 87.3691L543.426 82.5464L538.669 80.4604L518.786 76.9611L513.603 77.2976L512.75 82.1203L517.507 84.2064L537.39 87.7056Z" fill="#E4E6E9"/>
<path d="M540.98 67.383L546.142 67.2709L546.837 63.2333L542.058 61.3491L522.153 57.8274L517.014 57.962L516.296 61.9996L521.098 63.8838L540.98 67.383Z" fill="#E4E6E9"/>
<path d="M544.571 47.0829L549.687 47.1502L550.248 43.8977L545.424 42.2153L525.541 38.7161L520.425 38.6488L519.841 41.8789L524.666 43.5836L544.571 47.0829Z" fill="#E4E6E9"/>
<path d="M548.139 26.7603L553.233 27.0295L553.659 24.5845L548.79 23.0816L528.907 19.5823L523.836 19.3132L523.387 21.7806L528.256 23.261L548.139 26.7603Z" fill="#E4E6E9"/>
<path d="M551.73 6.46016L556.779 6.90878L557.07 5.24888L552.178 3.9703L532.273 0.471053L527.224 0L526.932 1.6599L531.847 2.93847L551.73 6.46016Z" fill="#E4E6E9"/>
<path d="M418.858 643.481L413.36 645.589L411.25 657.545L415.693 661.403L435.576 664.903L441.074 662.794L443.183 650.838L438.74 646.98L418.858 643.481Z" fill="#E4E6E9"/>
<path d="M415.267 663.781L409.814 665.688L407.839 676.858L412.305 680.537L432.21 684.036L437.663 682.13L439.638 670.959L435.15 667.28L415.267 663.781Z" fill="#E4E6E9"/>
<path d="M411.676 684.104L406.246 685.808L404.428 696.194L408.939 699.648L428.821 703.17L434.252 701.443L436.092 691.08L431.581 687.603L411.676 684.104Z" fill="#E4E6E9"/>
<path d="M408.108 704.404L402.7 705.929L401.017 715.507L405.573 718.782L425.455 722.281L430.841 720.779L432.546 711.178L427.991 707.926L408.108 704.404Z" fill="#E4E6E9"/>
<path d="M404.518 724.726L399.155 726.05L397.606 734.843L402.184 737.916L422.089 741.415L427.452 740.092L429.001 731.299L424.4 728.226L404.518 724.726Z" fill="#E4E6E9"/>
<path d="M400.927 745.049L395.609 746.171L394.195 754.156L398.818 757.027L418.7 760.526L424.041 759.405L425.455 751.419L420.832 748.548L400.927 745.049Z" fill="#E4E6E9"/>
<path d="M397.359 765.349L392.063 766.269L390.784 773.469L395.452 776.161L415.334 779.66L420.63 778.74L421.887 771.54L417.242 768.848L397.359 765.349Z" fill="#E4E6E9"/>
<path d="M393.769 785.672L388.518 786.389L387.373 792.805L392.063 795.272L411.968 798.794L417.219 798.054L418.341 791.661L413.651 789.171L393.769 785.672Z" fill="#E4E6E9"/>
<path d="M390.178 805.972L384.972 806.51L383.985 812.118L388.697 814.406L408.58 817.905L413.808 817.389L414.796 811.759L410.083 809.494L390.178 805.972Z" fill="#E4E6E9"/>
<path d="M386.61 826.294L381.426 826.631L380.574 831.454L385.331 833.54L405.214 837.039L410.397 836.702L411.25 831.88L406.493 829.794L386.61 826.294Z" fill="#E4E6E9"/>
<path d="M383.02 846.595L377.858 846.729L377.163 850.767L381.942 852.651L401.847 856.173L406.986 856.038L407.704 852L402.902 850.116L383.02 846.595Z" fill="#E4E6E9"/>
<path d="M379.429 866.917L374.313 866.85L373.752 870.102L378.576 871.785L398.459 875.284L403.575 875.351L404.159 872.121L399.334 870.416L379.429 866.917Z" fill="#E4E6E9"/>
<path d="M375.861 887.24L370.767 886.971L370.341 889.416L375.21 890.896L395.093 894.418L400.164 894.687L400.613 892.219L395.744 890.739L375.861 887.24Z" fill="#E4E6E9"/>
<path d="M372.27 907.54L367.221 907.091L366.93 908.751L371.822 910.03L391.727 913.529L396.776 914L397.068 912.34L392.153 911.062L372.27 907.54Z" fill="#E4E6E9"/>
<path d="M557.968 270.654L552.089 270.766L546.007 281.286L548.857 286.423L566.361 296.517L572.24 296.427L578.322 285.907L575.472 280.748L557.968 270.654Z" fill="#E4E6E9"/>
<path d="M559.18 268.568L576.661 278.662L582.451 278.729L588.128 268.904L585.166 263.924L567.685 253.83L561.895 253.763L556.218 263.588L559.18 268.568Z" fill="#E4E6E9"/>
<path d="M586.984 260.806L592.684 261.031L597.935 251.924L594.883 247.123L577.402 237.029L571.702 236.783L566.451 245.89L569.503 250.712L586.984 260.806Z" fill="#E4E6E9"/>
<path d="M597.307 242.929L602.895 243.355L607.764 234.921L604.6 230.3L587.119 220.206L581.531 219.78L576.661 228.214L579.803 232.835L597.307 242.929Z" fill="#E4E6E9"/>
<path d="M607.63 225.074L613.105 225.657L617.571 217.941L614.317 213.477L596.836 203.383L591.338 202.8L586.872 210.516L590.126 214.98L607.63 225.074Z" fill="#E4E6E9"/>
<path d="M617.93 207.218L623.338 207.981L627.4 200.938L624.034 196.653L606.53 186.559L601.144 185.797L597.082 192.84L600.449 197.124L617.93 207.218Z" fill="#E4E6E9"/>
<path d="M628.253 189.341L633.549 190.283L637.207 183.957L633.751 179.853L616.247 169.759L610.973 168.816L607.315 175.142L610.771 179.247L628.253 189.341Z" fill="#E4E6E9"/>
<path d="M638.575 171.486L643.759 172.585L647.013 166.955L643.467 163.029L625.964 152.935L620.78 151.814L617.526 157.444L621.094 161.392L638.575 171.486Z" fill="#E4E6E9"/>
<path d="M648.898 153.608L653.97 154.909L656.842 149.974L653.184 146.206L635.681 136.112L630.586 134.833L627.737 139.768L631.394 143.514L648.898 153.608Z" fill="#E4E6E9"/>
<path d="M659.221 135.753L664.203 137.211L666.649 132.972L662.879 129.383L645.397 119.289L640.416 117.831L637.97 122.07L641.717 125.659L659.221 135.753Z" fill="#E4E6E9"/>
<path d="M669.521 117.898L674.413 119.535L676.456 115.991L672.596 112.559L655.114 102.465L650.222 100.85L648.18 104.394L652.04 107.804L669.521 117.898Z" fill="#E4E6E9"/>
<path d="M679.844 100.02L684.624 101.837L686.285 98.9884L682.312 95.7584L664.831 85.6644L660.051 83.8475L658.391 86.6962L662.363 89.9263L679.844 100.02Z" fill="#E4E6E9"/>
<path d="M690.167 82.1651L694.857 84.1391L696.091 81.9857L692.029 78.935L674.548 68.841L669.858 66.8447L668.624 68.9981L672.685 72.0711L690.167 82.1651Z" fill="#E4E6E9"/>
<path d="M700.49 64.31L705.068 66.4633L705.898 65.0053L701.746 62.1117L684.265 52.0177L679.664 49.8643L678.834 51.3224L682.986 54.216L700.49 64.31Z" fill="#E4E6E9"/>
<path d="M366.032 643.346L371.911 643.234L377.993 632.714L375.143 627.577L357.639 617.483L351.76 617.573L345.678 628.093L348.528 633.252L366.032 643.346Z" fill="#E4E6E9"/>
<path d="M364.82 645.432L347.339 635.338L341.549 635.271L335.871 645.096L338.834 650.076L356.315 660.17L362.105 660.237L367.782 650.412L364.82 645.432Z" fill="#E4E6E9"/>
<path d="M337.016 653.194L331.316 652.947L326.065 662.076L329.117 666.877L346.598 676.971L352.298 677.217L357.549 668.088L354.497 663.288L337.016 653.194Z" fill="#E4E6E9"/>
<path d="M326.693 671.071L321.105 670.645L316.236 679.079L319.4 683.7L336.881 693.794L342.469 694.22L347.339 685.786L344.197 681.165L326.693 671.071Z" fill="#E4E6E9"/>
<path d="M316.37 688.926L310.895 688.343L306.429 696.059L309.683 700.523L327.164 710.617L332.662 711.2L337.128 703.484L333.874 699.02L316.37 688.926Z" fill="#E4E6E9"/>
<path d="M306.07 706.781L300.662 706.019L296.6 713.062L299.966 717.347L317.47 727.441L322.856 728.203L326.918 721.16L323.551 716.875L306.07 706.781Z" fill="#E4E6E9"/>
<path d="M295.747 724.659L290.451 723.717L286.793 730.043L290.249 734.147L307.753 744.241L313.027 745.184L316.685 738.858L313.229 734.753L295.747 724.659Z" fill="#E4E6E9"/>
<path d="M285.425 742.514L280.241 741.393L276.987 747.045L280.532 750.971L298.036 761.065L303.22 762.186L306.474 756.534L302.906 752.608L285.425 742.514Z" fill="#E4E6E9"/>
<path d="M275.102 760.392L270.03 759.091L267.158 764.026L270.816 767.794L288.319 777.888L293.413 779.167L296.263 774.232L292.606 770.486L275.102 760.392Z" fill="#E4E6E9"/>
<path d="M264.779 778.247L259.797 776.789L257.351 781.028L261.121 784.617L278.603 794.711L283.584 796.169L286.03 791.93L282.283 788.341L264.779 778.247Z" fill="#E4E6E9"/>
<path d="M254.479 796.102L249.587 794.465L247.544 798.009L251.404 801.418L268.886 811.512L273.778 813.15L275.82 809.606L271.96 806.196L254.479 796.102Z" fill="#E4E6E9"/>
<path d="M244.156 813.98L239.376 812.163L237.715 815.012L241.687 818.242L259.169 828.336L263.949 830.153L265.609 827.304L261.637 824.074L244.156 813.98Z" fill="#E4E6E9"/>
<path d="M233.833 831.835L229.143 829.839L227.909 831.992L231.971 835.065L249.452 845.159L254.142 847.133L255.376 844.98L251.315 841.929L233.833 831.835Z" fill="#E4E6E9"/>
<path d="M223.51 849.69L218.932 847.537L218.102 848.995L222.254 851.888L239.735 861.982L244.335 864.136L245.166 862.678L241.014 859.784L223.51 849.69Z" fill="#E4E6E9"/>
<path d="M610.367 312.779L601.054 320.585L601.974 326.417L614.968 341.872L620.533 343.801L629.846 335.995L628.926 330.163L615.933 314.708L610.367 312.779Z" fill="#E4E6E9"/>
<path d="M636.197 330.657L644.881 323.367L643.804 317.692L630.833 302.214L625.403 300.173L616.718 307.463L617.795 313.161L630.766 328.616L636.197 330.657Z" fill="#E4E6E9"/>
<path d="M640.438 287.567L632.382 294.341L633.594 299.904L646.587 315.359L651.838 317.535L659.917 310.76L658.682 305.198L645.712 289.742L640.438 287.567Z" fill="#E4E6E9"/>
<path d="M655.473 274.96L648.023 281.196L649.414 286.647L662.385 302.102L667.502 304.412L674.952 298.154L673.583 292.726L660.59 277.248L655.473 274.96Z" fill="#E4E6E9"/>
<path d="M670.509 262.332L663.687 268.074L665.213 273.368L678.206 288.845L683.143 291.268L689.987 285.548L688.461 280.232L675.468 264.777L670.509 262.332Z" fill="#E4E6E9"/>
<path d="M685.566 249.725L679.328 254.952L681.033 260.111L694.004 275.589L698.807 278.146L705.023 272.919L703.34 267.76L690.346 252.283L685.566 249.725Z" fill="#E4E6E9"/>
<path d="M705.247 239.811L700.602 237.119L694.992 241.83L696.832 246.854L709.825 262.332L714.47 265.023L720.058 260.313L718.218 255.266L705.247 239.811Z" fill="#E4E6E9"/>
<path d="M725.623 249.075L730.111 251.879L735.093 247.707L733.096 242.794L720.125 227.317L715.637 224.513L710.633 228.685L712.63 233.597L725.623 249.075Z" fill="#E4E6E9"/>
<path d="M741.422 235.818L745.775 238.757L750.151 235.1L747.997 230.3L735.004 214.845L730.672 211.884L726.297 215.563L728.451 220.341L741.422 235.818Z" fill="#E4E6E9"/>
<path d="M757.242 222.539L761.416 225.634L765.186 222.472L762.875 217.828L749.882 202.351L745.708 199.278L741.96 202.441L744.249 207.084L757.242 222.539Z" fill="#E4E6E9"/>
<path d="M773.041 209.282L777.08 212.49L780.222 209.865L777.753 205.334L764.782 189.879L760.743 186.672L757.601 189.296L760.07 193.827L773.041 209.282Z" fill="#E4E6E9"/>
<path d="M788.861 196.025L792.721 199.368L795.257 197.259L792.632 192.863L779.661 177.385L775.779 174.065L773.265 176.174L775.868 180.57L788.861 196.025Z" fill="#E4E6E9"/>
<path d="M804.66 182.769L808.385 186.245L810.292 184.63L807.51 180.368L794.539 164.913L790.814 161.437L788.906 163.052L791.689 167.314L804.66 182.769Z" fill="#E4E6E9"/>
<path d="M820.481 169.512L824.049 173.101L825.328 172.024L822.41 167.897L809.417 152.419L805.849 148.83L804.57 149.907L807.487 154.057L820.481 169.512Z" fill="#E4E6E9"/>
<path d="M313.633 601.198L322.946 593.415L322.025 587.583L309.032 572.128L303.467 570.199L294.154 578.005L295.074 583.837L308.067 599.292L313.633 601.198Z" fill="#E4E6E9"/>
<path d="M287.803 583.343L279.119 590.633L280.196 596.308L293.167 611.786L298.597 613.827L307.282 606.537L306.205 600.839L293.234 585.384L287.803 583.343Z" fill="#E4E6E9"/>
<path d="M283.562 626.433L291.618 619.659L290.406 614.096L277.413 598.641L272.162 596.465L264.083 603.24L265.318 608.802L278.288 624.257L283.562 626.433Z" fill="#E4E6E9"/>
<path d="M268.527 639.04L275.977 632.781L274.586 627.353L261.615 611.898L256.498 609.588L249.048 615.846L250.417 621.274L263.41 636.752L268.527 639.04Z" fill="#E4E6E9"/>
<path d="M253.491 651.668L260.313 645.926L258.787 640.632L245.794 625.155L240.857 622.732L234.013 628.452L235.539 633.768L248.532 649.223L253.491 651.668Z" fill="#E4E6E9"/>
<path d="M238.434 664.275L244.672 659.048L242.967 653.889L229.996 638.411L225.193 635.854L218.977 641.081L220.66 646.24L233.654 661.717L238.434 664.275Z" fill="#E4E6E9"/>
<path d="M218.753 674.189L223.398 676.881L229.008 672.17L227.168 667.146L214.175 651.668L209.53 648.977L203.942 653.687L205.782 658.734L218.753 674.189Z" fill="#E4E6E9"/>
<path d="M198.377 664.925L193.889 662.121L188.907 666.293L190.904 671.206L203.875 686.683L208.363 689.487L213.367 685.315L211.37 680.403L198.377 664.925Z" fill="#E4E6E9"/>
<path d="M182.578 678.182L178.225 675.243L173.849 678.9L176.003 683.7L188.996 699.155L193.327 702.116L197.703 698.437L195.549 693.659L182.578 678.182Z" fill="#E4E6E9"/>
<path d="M166.758 691.439L162.584 688.366L158.814 691.528L161.125 696.172L174.118 711.649L178.292 714.722L182.04 711.559L179.751 706.916L166.758 691.439Z" fill="#E4E6E9"/>
<path d="M150.959 704.718L146.92 701.51L143.778 704.135L146.247 708.666L159.217 724.121L163.257 727.328L166.399 724.704L163.93 720.173L150.959 704.718Z" fill="#E4E6E9"/>
<path d="M135.139 717.975L131.279 714.632L128.743 716.741L131.368 721.137L144.339 736.615L148.221 739.935L150.735 737.826L148.132 733.43L135.139 717.975Z" fill="#E4E6E9"/>
<path d="M119.34 731.231L115.615 727.755L113.708 729.347L116.49 733.632L129.461 749.087L133.186 752.563L135.094 750.948L132.311 746.686L119.34 731.231Z" fill="#E4E6E9"/>
<path d="M103.519 744.488L99.9513 740.899L98.6722 741.976L101.59 746.103L114.583 761.581L118.151 765.17L119.43 764.093L116.513 759.943L103.519 744.488Z" fill="#E4E6E9"/>
<path d="M649.706 404.814L661.128 400.664L662.25 394.877L655.339 375.923L650.761 372.222L639.361 376.371L638.216 382.136L645.128 401.113L649.706 404.814Z" fill="#E4E6E9"/>
<path d="M669.207 365.492L658.548 369.373L657.605 375.093L664.517 394.07L668.915 397.838L679.575 393.957L680.517 388.237L673.606 369.283L669.207 365.492Z" fill="#E4E6E9"/>
<path d="M687.653 358.785L677.757 362.397L677.017 368.027L683.906 387.004L688.125 390.839L698.021 387.25L698.762 381.598L691.85 362.621L687.653 358.785Z" fill="#E4E6E9"/>
<path d="M717.028 374.958L710.117 355.982L706.1 352.079L696.966 355.398L696.405 360.984L703.317 379.96L707.312 383.863L716.467 380.544L717.028 374.958Z" fill="#E4E6E9"/>
<path d="M735.273 368.319L728.383 349.342L724.546 345.372L716.153 348.422L715.794 353.918L722.706 372.895L726.521 376.865L734.914 373.814L735.273 368.319Z" fill="#E4E6E9"/>
<path d="M746.628 342.702L742.992 338.665L735.363 341.424L735.183 346.875L742.095 365.851L745.73 369.889L753.36 367.107L753.54 361.679L746.628 342.702Z" fill="#E4E6E9"/>
<path d="M771.784 355.039L764.895 336.063L761.439 331.935L754.572 334.448V339.809L761.484 358.785L764.917 362.913L771.806 360.4L771.784 355.039Z" fill="#E4E6E9"/>
<path d="M790.051 348.4L783.139 329.423L779.885 325.229L773.759 327.472L773.961 332.765L780.873 351.742L784.126 355.914L790.253 353.694L790.051 348.4Z" fill="#E4E6E9"/>
<path d="M808.318 341.76L801.406 322.784L798.331 318.522L792.968 320.473L793.35 325.7L800.261 344.676L803.336 348.938L808.699 346.987L808.318 341.76Z" fill="#E4E6E9"/>
<path d="M819.65 316.144L816.778 311.815L812.177 313.497L812.739 318.656L819.65 337.633L822.523 341.94L827.145 340.28L826.562 335.098L819.65 316.144Z" fill="#E4E6E9"/>
<path d="M839.039 330.567L841.732 334.964L845.592 333.55L844.829 328.459L837.917 309.504L835.224 305.108L831.364 306.499L832.127 311.59L839.039 330.567Z" fill="#E4E6E9"/>
<path d="M858.428 323.501L860.941 327.965L864.038 326.844L863.073 321.819L856.161 302.842L853.671 298.401L850.574 299.522L851.539 304.547L858.428 323.501Z" fill="#E4E6E9"/>
<path d="M877.839 316.458L880.151 320.989L882.484 320.137L881.34 315.179L874.428 296.203L872.117 291.672L869.783 292.524L870.927 297.481L877.839 316.458Z" fill="#E4E6E9"/>
<path d="M897.228 309.392L899.338 313.991L900.931 313.43L899.584 308.54L892.695 289.563L890.563 284.965L888.97 285.548L890.316 290.438L897.228 309.392Z" fill="#E4E6E9"/>
<path d="M274.294 509.186L262.872 513.336L261.75 519.123L268.661 538.077L273.239 541.778L284.639 537.629L285.784 531.864L278.872 512.887L274.294 509.186Z" fill="#E4E6E9"/>
<path d="M254.793 548.508L265.452 544.627L266.395 538.907L259.483 519.93L255.085 516.162L244.425 520.043L243.483 525.763L250.394 544.717L254.793 548.508Z" fill="#E4E6E9"/>
<path d="M236.347 555.215L246.243 551.603L246.983 545.973L240.094 526.996L235.875 523.161L225.979 526.75L225.238 532.402L232.15 551.356L236.347 555.215Z" fill="#E4E6E9"/>
<path d="M217.9 561.921L227.034 558.602L227.595 553.016L220.683 534.04L216.688 530.137L207.533 533.456L206.972 539.042L213.883 558.018L217.9 561.921Z" fill="#E4E6E9"/>
<path d="M199.454 568.628L207.847 565.578L208.206 560.082L201.294 541.105L197.479 537.113L189.086 540.186L188.727 545.681L195.616 564.658L199.454 568.628Z" fill="#E4E6E9"/>
<path d="M177.372 571.298L181.008 575.335L188.637 572.576L188.817 567.125L181.905 548.149L178.27 544.111L170.64 546.893L170.46 552.321L177.372 571.298Z" fill="#E4E6E9"/>
<path d="M152.216 558.961L159.105 577.937L162.561 582.042L169.428 579.552V574.191L162.516 555.215L159.083 551.087L152.194 553.6L152.216 558.961Z" fill="#E4E6E9"/>
<path d="M133.949 565.6L140.861 584.577L144.115 588.772L150.241 586.528L150.039 581.235L143.127 562.258L139.874 558.086L133.747 560.306L133.949 565.6Z" fill="#E4E6E9"/>
<path d="M115.682 572.24L122.594 591.216L125.668 595.478L131.032 593.527L130.65 588.3L123.739 569.324L120.664 565.062L115.301 567.013L115.682 572.24Z" fill="#E4E6E9"/>
<path d="M107.222 602.185L111.823 600.503L111.261 595.344L104.35 576.367L101.477 572.06L96.8545 573.72L97.438 578.902L104.35 597.856L107.222 602.185Z" fill="#E4E6E9"/>
<path d="M84.9609 583.433L82.268 579.036L78.4082 580.45L79.1711 585.541L86.0829 604.496L88.7758 608.892L92.6356 607.501L91.8726 602.41L84.9609 583.433Z" fill="#E4E6E9"/>
<path d="M65.572 590.476L63.0587 586.035L59.9618 587.156L60.9268 592.181L67.8385 611.135L70.3295 615.599L73.4263 614.478L72.4613 609.453L65.572 590.476Z" fill="#E4E6E9"/>
<path d="M46.1607 597.542L43.8493 593.011L41.5155 593.863L42.66 598.821L49.5717 617.797L51.8831 622.328L54.217 621.476L53.0725 616.519L46.1607 597.542Z" fill="#E4E6E9"/>
<path d="M26.7719 604.585L24.6624 599.987L23.0691 600.57L24.4156 605.46L31.3049 624.437L33.4368 629.035L35.0301 628.452L33.6836 623.562L26.7719 604.585Z" fill="#E4E6E9"/>
<path d="M668.399 472.13L671.429 467.083V446.895L668.399 441.848H656.236L653.207 446.895V467.083L656.236 472.13H668.399Z" fill="#E4E6E9"/>
<path d="M688.035 472.13L690.862 467.083V446.895L688.035 441.848H676.68L673.852 446.895V467.083L676.68 472.13H688.035Z" fill="#E4E6E9"/>
<path d="M694.475 446.895V467.083L697.123 472.13H707.648L710.296 467.083V446.895L707.648 441.848H697.123L694.475 446.895Z" fill="#E4E6E9"/>
<path d="M727.284 472.13L729.708 467.083V446.895L727.284 441.848H717.545L715.121 446.895V467.083L717.545 472.13H727.284Z" fill="#E4E6E9"/>
<path d="M749.141 467.083V446.895L746.92 441.848H737.988L735.744 446.895V467.083L737.988 472.13H746.92L749.141 467.083Z" fill="#E4E6E9"/>
<path d="M768.575 467.083V446.895L766.533 441.848H758.409L756.39 446.895V467.083L758.409 472.13H766.533L768.575 467.083Z" fill="#E4E6E9"/>
<path d="M788.009 467.083V446.895L786.169 441.848H778.853L777.035 446.895V467.083L778.853 472.13H786.169L788.009 467.083Z" fill="#E4E6E9"/>
<path d="M807.42 467.083V446.895L805.804 441.848H799.296L797.658 446.895V467.083L799.296 472.13H805.804L807.42 467.083Z" fill="#E4E6E9"/>
<path d="M825.44 472.13L826.854 467.083V446.895L825.44 441.848H819.718L818.304 446.895V467.083L819.718 472.13H825.44Z" fill="#E4E6E9"/>
<path d="M840.161 441.848L838.927 446.895V467.083L840.161 472.13H845.053L846.287 467.083V446.895L845.053 441.848H840.161Z" fill="#E4E6E9"/>
<path d="M860.582 441.848L859.572 446.895V467.083L860.582 472.13H864.689L865.721 467.083V446.895L864.689 441.848H860.582Z" fill="#E4E6E9"/>
<path d="M881.026 441.848L880.196 446.895V467.083L881.026 472.13H884.325L885.133 467.083V446.895L884.325 441.848H881.026Z" fill="#E4E6E9"/>
<path d="M901.469 441.848L900.841 446.895V467.083L901.469 472.13H903.96L904.566 467.083V446.895L903.96 441.848H901.469Z" fill="#E4E6E9"/>
<path d="M923.574 441.848H921.891L921.464 446.895V467.083L921.891 472.13H923.574L924 467.083V446.895L923.574 441.848Z" fill="#E4E6E9"/>
<path d="M255.601 441.848L252.571 446.895V467.083L255.601 472.13H267.764L270.793 467.083V446.895L267.764 441.848H255.601Z" fill="#E4E6E9"/>
<path d="M235.965 441.848L233.137 446.895V467.083L235.965 472.13H247.32L250.148 467.083V446.895L247.32 441.848H235.965Z" fill="#E4E6E9"/>
<path d="M213.704 446.895V467.083L216.352 472.13H226.876L229.525 467.083V446.895L226.876 441.848H216.352L213.704 446.895Z" fill="#E4E6E9"/>
<path d="M196.716 441.848L194.292 446.895V467.083L196.716 472.13H206.455L208.879 467.083V446.895L206.455 441.848H196.716Z" fill="#E4E6E9"/>
<path d="M174.859 446.895V467.083L177.08 472.13H186.012L188.256 467.083V446.895L186.012 441.848H177.08L174.859 446.895Z" fill="#E4E6E9"/>
<path d="M167.61 467.083V446.895L165.591 441.848H157.467L155.425 446.895V467.083L157.467 472.13H165.591L167.61 467.083Z" fill="#E4E6E9"/>
<path d="M146.965 467.083V446.895L145.147 441.848H137.831L135.991 446.895V467.083L137.831 472.13H145.147L146.965 467.083Z" fill="#E4E6E9"/>
<path d="M126.342 467.083V446.895L124.704 441.848H118.196L116.58 446.895V467.083L118.196 472.13H124.704L126.342 467.083Z" fill="#E4E6E9"/>
<path d="M98.56 441.848L97.1462 446.895V467.083L98.56 472.13H104.282L105.696 467.083V446.895L104.282 441.848H98.56Z" fill="#E4E6E9"/>
<path d="M83.8388 472.13L85.0731 467.083V446.895L83.8388 441.848H78.9467L77.7125 446.895V467.083L78.9467 472.13H83.8388Z" fill="#E4E6E9"/>
<path d="M64.4275 467.083V446.895L63.4177 441.848H59.311L58.2788 446.895V467.083L59.311 472.13H63.4177L64.4275 467.083Z" fill="#E4E6E9"/>
<path d="M43.8044 467.083V446.895L42.9741 441.848H39.6753L38.8675 446.895V467.083L39.6753 472.13H42.9741L43.8044 467.083Z" fill="#E4E6E9"/>
<path d="M23.1589 446.895L22.5306 441.848H20.0396L19.4337 446.895V467.083L20.0396 472.13H22.5306L23.1589 467.083V446.895Z" fill="#E4E6E9"/>
<path d="M0.426375 441.848L0 446.895V467.083L0.426375 472.13H2.10944L2.51337 467.083V446.895L2.10944 441.848H0.426375Z" fill="#E4E6E9"/>
</svg>
