<svg width="120" height="120" viewBox="0 0 120 120" fill="none" xmlns="http://www.w3.org/2000/svg">
<path d="M120 22.4182C120 20.2958 119.157 18.2604 117.656 16.76L103.231 2.34185C101.731 0.842351 99.6964 0 97.5753 0L22.4248 0C20.3037 0 18.2694 0.842351 16.7692 2.34185L2.34444 16.76C0.843358 18.2604 0 20.2958 0 22.4182L0 97.5818C0 99.7042 0.843359 101.74 2.34444 103.24L16.7692 117.658C18.2694 119.158 20.3037 120 22.4248 120L97.5753 120C99.6964 120 101.731 119.158 103.231 117.658L117.656 103.24C119.157 101.74 120 99.7042 120 97.5818L120 22.4182Z" fill="#0D1318"/>
<path d="M52 41H50V43H52V41Z" fill="#F6F6F4"/>
<path d="M54 43H52V45H54V43Z" fill="#F6F6F4"/>
<path d="M52 45H50V47H52V45Z" fill="#F6F6F4"/>
<path d="M50 43H48V45H50V43Z" fill="#F6F6F4"/>
<path d="M45 31H43V33H45V31Z" fill="#F6F6F4"/>
<path d="M47 33H45V35H47V33Z" fill="#F6F6F4"/>
<path d="M45 35H43V37H45V35Z" fill="#F6F6F4"/>
<path d="M43 33H41V35H43V33Z" fill="#F6F6F4"/>
<path d="M77 52H75V54H77V52Z" fill="#F6F6F4"/>
<path d="M79 54H77V56H79V54Z" fill="#F6F6F4"/>
<path d="M77 56H75V58H77V56Z" fill="#F6F6F4"/>
<path d="M75 54H73V56H75V54Z" fill="#F6F6F4"/>
<path d="M39 46H37V48H39V46Z" fill="#F6F6F4"/>
<path d="M41 48H39V50H41V48Z" fill="#F6F6F4"/>
<path d="M39 50H37V52H39V50Z" fill="#F6F6F4"/>
<path d="M37 48H35V50H37V48Z" fill="#F6F6F4"/>
<path d="M70 39C70.5523 39 71 38.5523 71 38C71 37.4477 70.5523 37 70 37C69.4477 37 69 37.4477 69 38C69 38.5523 69.4477 39 70 39Z" fill="#F6F6F4"/>
<path d="M65 47H83V37H81V45H65V47Z" fill="#F6F6F4"/>
<path d="M79.9008 63.4004L75.3008 67.9004L88.0008 80.6004V72.4004L79.9008 63.4004Z" fill="#F6F6F4"/>
<path d="M40 63.5L32 72.4V80.6L44.6 68L40 63.5Z" fill="#F6F6F4"/>
<path d="M61 43H79V33H59V56.4L32 83.4V89H39.1C36.3 86.3 36.3 81.9 39 79.1C40.3 77.7 42.1 77 44 77H67C67.6 77 68 76.6 68 76C68 75.4 67.6 75 67 75H60C56.1 75 53 71.9 53 68C53 64.1 56.1 61 60 61H63V63H60C57.2 63 55 65.2 55 68C55 70.8 57.2 73 60 73H67C68.7 73 70 74.3 70 76C70 77.7 68.7 79 67 79H44C41.2 79 39 81.2 39 84C39 86.8 41.2 89 44 89H88V83.4L61 56.4V43ZM75 37H77V39H75V37ZM70 35C71.7 35 73 36.3 73 38C73 39.7 71.7 41 70 41C68.3 41 67 39.7 67 38C67 36.3 68.3 35 70 35ZM63 37H65V39H63V37ZM60 69H67C70.9 69 74 72.1 74 76C74 79.9 70.9 83 67 83H44C43.4 83 43 83.4 43 84C43 84.6 43.4 85 44 85H86V87H44C42.3 87 41 85.7 41 84C41 82.3 42.3 81 44 81H67C69.8 81 72 78.8 72 76C72 73.2 69.8 71 67 71H60C58.3 71 57 69.7 57 68C57 66.3 58.3 65 60 65H66V67H60C59.4 67 59 67.4 59 68C59 68.6 59.4 69 60 69Z" fill="#F6F6F4"/>
</svg>
