<svg width="120" height="120" viewBox="0 0 120 120" fill="none" xmlns="http://www.w3.org/2000/svg">
<path d="M120 22.4182C120 20.2958 119.157 18.2604 117.656 16.76L103.231 2.34185C101.731 0.842351 99.6964 0 97.5753 0L22.4248 0C20.3037 0 18.2694 0.842351 16.7692 2.34185L2.34444 16.76C0.843358 18.2604 0 20.2958 0 22.4182L0 97.5818C0 99.7042 0.843359 101.74 2.34444 103.24L16.7692 117.658C18.2694 119.158 20.3037 120 22.4248 120L97.5753 120C99.6964 120 101.731 119.158 103.231 117.658L117.656 103.24C119.157 101.74 120 99.7042 120 97.5818L120 22.4182Z" fill="#0D1318"/>
<path d="M81.9391 61.697V58.2973L74.9588 56.4975L72.9644 51.798L76.654 45.5986L74.2608 43.1989L68.0782 46.8985L63.3914 44.8987L61.5964 37.8994H58.206L56.411 44.8987L51.7242 46.8985L45.5417 43.1989L43.1484 45.5986L46.838 51.798L44.8436 56.4975L37.8633 58.2973V61.697L44.8436 63.4968L46.838 68.1963L43.1484 74.3957L45.5417 76.7954L51.7242 73.0958L55.9124 74.7956V68.9962H55.4138C54.1175 68.9962 52.9209 68.0963 52.522 66.7965L51.2256 61.9969H47.4363L52.522 50.7981C53.0206 49.6982 54.1175 48.9983 55.2144 48.9983H64.9869C66.6821 48.9983 67.9785 50.2981 67.9785 51.998V73.1958L68.1779 73.0958L74.3605 76.7954L76.7537 74.3957L73.0641 68.1963L75.0585 63.4968L81.9391 61.697Z" fill="#F6F6F4"/>
<path d="M58.3034 81.9949H61.6938L63.4888 74.9956L65.9817 73.9957V51.9979C65.9817 51.398 65.5829 50.998 64.9846 50.998H55.3118C54.9129 50.998 54.6138 51.198 54.4143 51.598L50.625 59.9971H52.8188L54.6138 66.2965C54.7135 66.6964 55.1124 66.9964 55.611 66.9964H58.0042V80.795L58.3034 81.9949ZM58.0042 54.9976H59.9986V52.9978H61.993V54.9976H63.9874V56.9974H61.993V58.9972H59.9986V56.9974H58.0042V54.9976Z" fill="#F6F6F4"/>
<path d="M32.0784 33.4L37.4632 38.8C38.0615 39.4 38.7595 39.7 39.5573 39.7C40.2553 39.7 40.9534 39.4 41.5517 39C51.5236 30.2 66.3817 29.7 77.0517 37.8L78.2483 36.2C66.8803 27.5 50.9253 28 40.2553 37.5C39.8565 37.8 39.2581 37.8 38.959 37.4L33.4744 32H37.0643V30H30.084V37H32.0784V33.4Z" fill="#F6F6F4"/>
<path d="M38.0622 42.5993L36.4667 41.3994C27.4919 52.7982 27.8908 68.9966 37.4639 79.7955C37.763 80.1954 37.763 80.7954 37.4639 81.1953L32.079 86.5948V82.9952H30.0846V89.9944H37.065V87.9946H33.4751L38.8599 82.5952C39.9568 81.4953 40.0566 79.6955 38.9596 78.4956C30.0846 68.2967 29.6858 53.1982 38.0622 42.5993Z" fill="#F6F6F4"/>
<path d="M87.9218 86.5951L82.537 81.1951C81.44 80.0951 79.6451 79.9951 78.4485 81.0951C68.4766 89.8951 53.6184 90.3951 43.0482 82.2951L41.8516 83.8951C53.1198 92.4951 68.9752 91.9951 79.7448 82.4951C80.1437 82.1951 80.742 82.1951 81.1409 82.4951L86.5257 87.8951H82.9358V89.8951H89.9162V82.8951H87.9218V86.5951Z" fill="#F6F6F4"/>
<path d="M81.9387 77.3951L83.5342 78.595C92.5089 67.1962 92.11 50.9979 82.537 40.199C82.2378 39.799 82.2378 39.1991 82.537 38.7991L87.9218 33.3997V36.9993H89.9162V30H82.9358V31.9998H86.5257L81.1409 37.3992C79.9443 38.4991 79.9443 40.2989 80.9415 41.4988C89.9162 51.6978 90.3151 66.7962 81.9387 77.3951Z" fill="#F6F6F4"/>
</svg>
