<svg width="60" height="60" viewBox="0 0 60 60" fill="none" xmlns="http://www.w3.org/2000/svg">
<g clip-path="url(#clip0_1_557)">
<path d="M0.00760078 39.0037C0.00760078 41.8748 1.5779 44.5154 4.1092 45.8748L23.6682 56.4058C27.5198 58.4761 32.4885 58.4761 36.3402 56.4058L55.8992 45.8748C58.4304 44.5154 60.0008 41.8748 60.0008 39.0037C60.0008 36.1326 58.4891 33.6248 56.0594 32.242L53.0203 30.5037L56.0594 28.7654C58.4891 27.3748 60.0008 24.7849 60.0008 22.0037C60.0008 19.2225 58.4305 16.492 55.8992 15.1326L36.3402 4.6016C34.3988 3.5508 32.2113 3 30.0004 3C27.7895 3 25.602 3.55078 23.6606 4.6016L4.1016 15.1326C1.5704 16.492 0 19.1326 0 22.0037C0 24.8748 1.5117 27.3826 3.9414 28.7654L6.9805 30.5037L3.9414 32.242C1.5117 33.6326 0 36.2225 0 39.0037H0.00760078ZM6.0076 25.3557C4.7771 24.6955 4.0076 23.4065 4.0076 22.0041C4.0076 20.6057 4.77713 19.3244 6.0076 18.6525L25.5666 8.1215C28.3049 6.6527 31.7072 6.6527 34.4455 8.1215L54.0045 18.6525C55.235 19.3127 56.0045 20.6017 56.0045 22.0041C56.0045 23.4025 55.235 24.6838 54.0045 25.3557L48.6529 28.2346L36.3439 21.6057C32.4923 19.5354 27.5236 19.5354 23.6719 21.6057L11.3629 28.2346L6.0113 25.3557H6.0076ZM44.4376 30.5041L34.4493 35.883C33.0899 36.6135 31.5509 37.0041 30.0079 37.0041C28.4688 37.0041 26.9298 36.6135 25.5665 35.883L15.5782 30.5041L25.5665 25.1252C28.3048 23.6564 31.7071 23.6564 34.4454 25.1252L44.4337 30.5041H44.4376ZM6.0076 35.6525L11.3592 32.7736L23.6682 39.4025C27.5198 41.4728 32.4885 41.4728 36.3402 39.4025L48.6492 32.7736L54.0008 35.6525C55.2313 36.3127 56.0008 37.6017 56.0008 39.0041C56.0008 40.4025 55.2313 41.6838 54.0008 42.3557L34.4418 52.8867C33.0824 53.6172 31.5434 54.0078 30.0004 54.0078C28.4613 54.0078 26.9223 53.6172 25.559 52.8867L6 42.3557C4.7695 41.6955 4 40.4065 4 39.0041C4 37.6057 4.76953 36.3244 6 35.6525H6.0076Z" fill="#FF4C16"/>
</g>
<defs>
<clipPath id="clip0_1_557">
<rect width="60" height="60" fill="white"/>
</clipPath>
</defs>
</svg>
