<svg width="120" height="120" viewBox="0 0 120 120" fill="none" xmlns="http://www.w3.org/2000/svg">
<path d="M120 22.4182C120 20.2958 119.157 18.2604 117.656 16.76L103.231 2.34185C101.731 0.842351 99.6964 0 97.5753 0L22.4248 0C20.3037 0 18.2694 0.842351 16.7692 2.34185L2.34444 16.76C0.843358 18.2604 0 20.2958 0 22.4182L0 97.5818C0 99.7042 0.843359 101.74 2.34444 103.24L16.7692 117.658C18.2694 119.158 20.3037 120 22.4248 120L97.5753 120C99.6964 120 101.731 119.158 103.231 117.658L117.656 103.24C119.157 101.74 120 99.7042 120 97.5818L120 22.4182Z" fill="#F6F6F4"/>
<path d="M81.4098 34.1665H41.4848C39.5515 34.1665 37.9932 35.7332 37.9932 37.6582V52.4498H46.1848V56.3748L48.2015 54.4998C48.6765 54.0582 49.2932 53.8165 49.9432 53.8165C50.5932 53.8165 51.2098 54.0582 51.6848 54.4998L52.4265 55.1915L59.9682 48.2582C60.2598 47.9915 60.6932 47.9665 61.0098 48.1832L69.3515 53.9665L75.0598 48.1498H73.6098C73.1515 48.1498 72.7765 47.7748 72.7765 47.3165C72.7765 46.8582 73.1515 46.4832 73.6098 46.4832H77.0432C77.0682 46.4832 77.0932 46.4915 77.1182 46.4998C77.2015 46.5082 77.2848 46.5165 77.3598 46.5415C77.4265 46.5748 77.4848 46.6248 77.5432 46.6665C77.5682 46.6915 77.6015 46.6998 77.6265 46.7165C77.6265 46.7248 77.6265 46.7248 77.6265 46.7248C77.7015 46.7998 77.7682 46.8915 77.8098 46.9915C77.8515 47.0915 77.8765 47.1998 77.8765 47.3165V50.7332C77.8765 51.1915 77.5015 51.5665 77.0432 51.5665C76.5848 51.5665 76.2098 51.1915 76.2098 50.7332V49.3582L70.0515 55.6332C69.7682 55.9248 69.3182 55.9665 68.9848 55.7332L60.6098 49.9332L53.6515 56.3248L65.7348 67.5498C66.7598 68.5082 66.8265 70.1248 65.8682 71.1582L64.3932 72.7415C63.9098 73.2582 63.2348 73.5582 62.5265 73.5582C62.5015 73.5582 62.4848 73.5498 62.4598 73.5498V75.4332H82.7598C83.9432 75.4332 84.9015 74.4832 84.9015 73.2998V37.6582C84.9015 35.7332 83.3348 34.1665 81.4098 34.1665ZM48.7598 43.6248C50.5598 43.6248 52.0265 45.0915 52.0265 46.8915C52.0265 48.4082 50.9848 49.6665 49.5932 50.0415V50.7665C49.5932 51.2332 49.2182 51.5998 48.7598 51.5998C48.2932 51.5998 47.9265 51.2332 47.9265 50.7665V50.0332C46.5265 49.6665 45.4932 48.3998 45.4932 46.8915C45.4932 46.4332 45.8598 46.0582 46.3265 46.0582C46.7848 46.0582 47.1598 46.4332 47.1598 46.8915C47.1598 47.7582 47.8432 48.4498 48.7015 48.4832C48.7182 48.4832 48.7348 48.4748 48.7598 48.4748C48.7765 48.4748 48.7932 48.4832 48.8182 48.4832C49.6682 48.4582 50.3598 47.7582 50.3598 46.8915C50.3598 46.0082 49.6432 45.2915 48.7598 45.2915C46.9598 45.2915 45.4932 43.8248 45.4932 42.0248C45.4932 40.5165 46.5265 39.2498 47.9265 38.8832V38.1415C47.9265 37.6832 48.2932 37.3082 48.7598 37.3082C49.2182 37.3082 49.5932 37.6832 49.5932 38.1415V38.8748C50.9848 39.2498 52.0265 40.5165 52.0265 42.0248C52.0265 42.4915 51.6515 42.8582 51.1932 42.8582C50.7265 42.8582 50.3598 42.4915 50.3598 42.0248C50.3598 41.1582 49.6682 40.4582 48.8182 40.4332C48.7932 40.4332 48.7765 40.4415 48.7598 40.4415C48.7348 40.4415 48.7182 40.4332 48.7015 40.4332C47.8432 40.4582 47.1598 41.1665 47.1598 42.0248C47.1598 42.9082 47.8765 43.6248 48.7598 43.6248ZM72.3515 68.8582H68.2265V59.1415H72.3515V68.8582ZM79.1098 68.8582H74.9765V56.0415H79.1098V68.8582Z" fill="#FF4C16"/>
<path d="M62.1432 84.3418H37.7432C37.1182 84.3418 36.6182 84.8418 36.6182 85.4668V86.2335H63.2682V85.4668C63.2682 84.8418 62.7598 84.3418 62.1432 84.3418Z" fill="#FF4C16"/>
<path d="M37.9621 71.6587L49.9371 60.5337L61.9121 71.6587C62.2704 71.992 62.8371 71.9753 63.1704 71.6087L64.6371 70.0253C64.9704 69.667 64.9538 69.1003 64.5871 68.767L50.5454 55.717C50.2038 55.4003 49.6788 55.4003 49.3371 55.717L35.2871 68.7753C34.9288 69.1087 34.9038 69.6753 35.2371 70.0337L36.7038 71.617C37.0454 71.967 37.6038 71.992 37.9621 71.6587Z" fill="#FF4C16"/>
<path d="M46.0762 75.4672V82.6756H53.8012V75.4672C53.8012 73.3339 52.0762 71.6089 49.9428 71.6089C47.8095 71.6089 46.0762 73.3339 46.0762 75.4672Z" fill="#FF4C16"/>
<path d="M39.0931 62.9672L42.9348 59.3922V57.3339H44.5181V54.1172H37.5098V57.3339H39.0931V62.9672Z" fill="#FF4C16"/>
<path d="M60.7937 82.6753V72.8836L60.7854 72.8753L49.9437 62.8003L39.1021 72.8753L39.0938 72.8836V82.6753H44.4187V75.467C44.4187 72.417 46.9021 69.942 49.9437 69.942C52.9854 69.942 55.4688 72.4253 55.4688 75.467V82.6753H60.7937Z" fill="#FF4C16"/>
</svg>
