<svg width="120" height="120" viewBox="0 0 120 120" fill="none" xmlns="http://www.w3.org/2000/svg">
<path d="M120 22.4182C120 20.2958 119.157 18.2604 117.656 16.76L103.231 2.34185C101.731 0.842351 99.6964 0 97.5753 0L22.4248 0C20.3037 0 18.2694 0.842351 16.7692 2.34185L2.34444 16.76C0.843358 18.2604 0 20.2958 0 22.4182L0 97.5818C0 99.7042 0.843359 101.74 2.34444 103.24L16.7692 117.658C18.2694 119.158 20.3037 120 22.4248 120L97.5753 120C99.6964 120 101.731 119.158 103.231 117.658L117.656 103.24C119.157 101.74 120 99.7042 120 97.5818L120 22.4182Z" fill="#0D1318"/>
<path d="M41.8613 88.9729C41.8613 89.5893 42.2567 90.0003 42.8498 90.0003H76.4577C77.0508 90.0003 77.4462 89.5893 77.4462 88.9729V83.8359H41.8613V88.9729ZM57.6768 85.8907H61.6307V87.9455H57.6768V85.8907Z" fill="#F6F6F4"/>
<path d="M41.8613 71.5074H45.8152C58.4676 71.5074 70.2304 65.0348 77.4462 54.3499V40.6855H41.8613V71.5074ZM68.55 42.7403H74.4808V56.0965H72.5038V44.7951H70.5269V60.206H68.55V42.7403ZM60.6422 44.7951H66.573V63.2882H64.5961V46.8499H62.6192V65.343H60.6422V44.7951ZM52.7345 47.8773H58.6653V67.3978H56.6883V49.9321H54.7114V68.4252H52.7345V47.8773ZM44.8267 53.0143H50.7575V69.4526H48.7806V55.0691H46.8037V69.4526H44.8267V53.0143Z" fill="#F6F6F4"/>
<path d="M45.8152 73.5611H41.8613V81.7803H77.4462V57.7393C69.7361 67.705 58.171 73.5611 45.8152 73.5611ZM74.4808 79.7255H44.8267V75.6159H46.8037V77.6707H48.7806V75.6159H50.7575V77.6707H52.7345V74.5885H54.7114V77.6707H56.6883V73.5611H58.6653V77.6707H60.6422V72.5337H62.6192V77.6707H64.5961V70.4789H66.573V77.6707H68.55V68.4242H70.5269V77.6707H72.5038V65.342H74.4808V79.7255Z" fill="#F6F6F4"/>
<path d="M76.4577 32.4668H42.8498C42.2567 32.4668 41.8613 32.8778 41.8613 33.4942V38.6312H77.4462V33.4942C77.4462 32.8778 77.0508 32.4668 76.4577 32.4668ZM60.6422 36.5764H58.6653V34.5216H60.6422V36.5764Z" fill="#F6F6F4"/>
<path d="M39.8847 71.5068H30V73.5616H39.8847V71.5068Z" fill="#F6F6F4"/>
<path d="M85.3546 30L80.7088 34.8288L82.0927 36.2671L84.2673 34.0068C83.8719 39.9657 82.2904 45.8219 79.4238 51.0616V54.9657C83.4765 48.6986 85.8489 41.4041 86.2443 33.9041L88.6166 36.3698L90.0004 34.9315L85.3546 30Z" fill="#F6F6F4"/>
</svg>
