<svg width="120" height="120" viewBox="0 0 120 120" fill="none" xmlns="http://www.w3.org/2000/svg">
<path d="M120 22.4182C120 20.2958 119.157 18.2604 117.656 16.76L103.231 2.34185C101.731 0.842351 99.6964 0 97.5753 0L22.4248 0C20.3037 0 18.2694 0.842351 16.7692 2.34185L2.34444 16.76C0.843358 18.2604 0 20.2958 0 22.4182L0 97.5818C0 99.7042 0.843359 101.74 2.34444 103.24L16.7692 117.658C18.2694 119.158 20.3037 120 22.4248 120L97.5753 120C99.6964 120 101.731 119.158 103.231 117.658L117.656 103.24C119.157 101.74 120 99.7042 120 97.5818L120 22.4182Z" fill="#F6F6F4"/>
<path d="M44.1497 42.3173H59.6997C60.2331 42.3173 60.6664 41.884 60.6664 41.3507V37.8673C60.6664 37.409 60.2997 37.0423 59.8414 37.0423H56.2914V34.159C56.2914 33.7007 55.9247 33.334 55.4664 33.334H48.3914C47.9331 33.334 47.5664 33.7007 47.5664 34.159V37.0423H44.0164C43.5581 37.0423 43.1914 37.409 43.1914 37.8673V41.3507C43.1914 41.884 43.6164 42.3173 44.1497 42.3173ZM51.0997 35.5757H52.7497C53.2081 35.5757 53.5831 35.9507 53.5831 36.409C53.5831 36.8673 53.2081 37.2423 52.7497 37.2423H51.0997C50.6414 37.2423 50.2664 36.8673 50.2664 36.409C50.2664 35.9507 50.6414 35.5757 51.0997 35.5757Z" fill="#FF4C16"/>
<path d="M76.1432 78.0425H70.6098C70.1348 78.0425 69.7432 78.4258 69.7432 78.9091V87.3258H77.0015V78.9091C77.0098 78.4258 76.6265 78.0425 76.1432 78.0425Z" fill="#FF4C16"/>
<path d="M86.4257 70.8503L73.8258 58.5753C73.5758 58.3336 73.1758 58.3336 72.9258 58.5753L60.3341 70.8503C59.9174 71.2586 60.2091 71.9586 60.7841 71.9586H85.9757C86.5507 71.9586 86.8424 71.2586 86.4257 70.8503ZM73.3758 68.667C72.0508 68.667 70.9758 67.592 70.9758 66.267C70.9758 64.942 72.0424 63.867 73.3758 63.867C74.7008 63.867 75.7758 64.942 75.7758 66.267C75.7758 67.592 74.7008 68.667 73.3758 68.667Z" fill="#FF4C16"/>
<path d="M83.4736 60.2505C83.4736 59.9838 83.2569 59.7588 82.9819 59.7588H79.1069C78.8402 59.7588 78.6152 59.9755 78.6152 60.2505V60.9255L83.4652 65.6505V60.2505H83.4736Z" fill="#FF4C16"/>
<path d="M62.9512 86.2083C62.9512 86.8167 63.4428 87.3167 64.0595 87.3167H68.0845V78.9C68.0845 77.5083 69.2178 76.3667 70.6178 76.3667H76.1512C77.5428 76.3667 78.6845 77.5 78.6845 78.9V87.3167H82.7095C83.3178 87.3167 83.8178 86.825 83.8178 86.2083V73.625H62.9512V86.2083Z" fill="#FF4C16"/>
<path d="M46.0002 47.2759H39.7252C39.0919 47.2759 38.5752 47.7925 38.5752 48.4259V54.7009C38.5752 55.3342 39.0919 55.8509 39.7252 55.8509H46.0002C46.6335 55.8509 47.1502 55.3342 47.1502 54.7009V48.4259C47.1585 47.7925 46.6419 47.2759 46.0002 47.2759ZM45.2002 51.2175L42.4085 53.2675C42.2669 53.3759 42.0919 53.4259 41.9169 53.4259C41.8502 53.4259 41.7835 53.4175 41.7169 53.4009C41.4752 53.3425 41.2752 53.1842 41.1669 52.9592L40.5752 51.7592C40.3669 51.3509 40.5419 50.8509 40.9502 50.6425C41.3669 50.4342 41.8585 50.6092 42.0669 51.0175L42.2252 51.3259L44.2169 49.8675C44.5835 49.5925 45.1085 49.6759 45.3835 50.0425C45.6502 50.4259 45.5752 50.9425 45.2002 51.2175Z" fill="#FF4C16"/>
<path d="M46.0002 60.6509H39.7252C39.0919 60.6509 38.5752 61.1675 38.5752 61.8009V68.0759C38.5752 68.7092 39.0919 69.2259 39.7252 69.2259H46.0002C46.6335 69.2259 47.1502 68.7092 47.1502 68.0759V61.8009C47.1585 61.1675 46.6419 60.6509 46.0002 60.6509ZM45.2002 64.5925L42.4085 66.6425C42.2669 66.7509 42.0919 66.8009 41.9169 66.8009C41.8502 66.8009 41.7835 66.7925 41.7169 66.7759C41.4752 66.7175 41.2752 66.5592 41.1669 66.3342L40.5752 65.1342C40.3669 64.7259 40.5419 64.2259 40.9502 64.0175C41.3669 63.8092 41.8585 63.9842 42.0669 64.3925L42.2252 64.7009L44.2169 63.2425C44.5835 62.9675 45.1085 63.0509 45.3835 63.4175C45.6502 63.8009 45.5752 64.3175 45.2002 64.5925Z" fill="#FF4C16"/>
<path d="M46.0002 74.0254H39.7252C39.0919 74.0254 38.5752 74.5421 38.5752 75.1754V81.4504C38.5752 82.0837 39.0919 82.6004 39.7252 82.6004H46.0002C46.6335 82.6004 47.1502 82.0837 47.1502 81.4504V75.1754C47.1585 74.5421 46.6419 74.0254 46.0002 74.0254ZM45.2002 77.9671L42.4085 80.0171C42.2669 80.1254 42.0919 80.1754 41.9169 80.1754C41.8502 80.1754 41.7835 80.1671 41.7169 80.1504C41.4752 80.0921 41.2752 79.9337 41.1669 79.7087L40.5752 78.5087C40.3669 78.1004 40.5419 77.6004 40.9502 77.3921C41.3669 77.1837 41.8585 77.3587 42.0669 77.7671L42.2252 78.0754L44.2169 76.6171C44.5835 76.3421 45.1085 76.4254 45.3835 76.7921C45.6502 77.1754 45.5752 77.6921 45.2002 77.9671Z" fill="#FF4C16"/>
<path d="M61.282 73.6258H60.782C59.8404 73.6258 58.9987 73.0591 58.6404 72.1841C58.282 71.3091 58.4904 70.3174 59.1654 69.6591L70.507 58.6008V41.8758C70.507 40.6591 69.532 39.6758 68.3154 39.6758H62.3237V41.3508C62.3237 42.8008 61.1404 43.9841 59.6904 43.9841H44.1487C42.6987 43.9841 41.5154 42.8008 41.5154 41.3508V39.6758H35.532C34.3154 39.6758 33.332 40.6591 33.332 41.8758V85.1258C33.332 86.3341 34.3154 87.3174 35.532 87.3174H61.5154C61.3654 86.9758 61.282 86.6091 61.282 86.2091V73.6258ZM52.0737 48.8424H65.2737C65.732 48.8424 66.107 49.2174 66.107 49.6758C66.107 50.1341 65.732 50.5091 65.2737 50.5091H52.0737C51.6154 50.5091 51.2404 50.1341 51.2404 49.6758C51.2404 49.2174 51.6154 48.8424 52.0737 48.8424ZM52.0737 52.6341H59.2654C59.7237 52.6341 60.0987 53.0091 60.0987 53.4674C60.0987 53.9258 59.7237 54.3008 59.2654 54.3008H52.0737C51.6154 54.3008 51.2404 53.9258 51.2404 53.4674C51.2404 53.0091 51.6154 52.6341 52.0737 52.6341ZM52.0737 62.2174H62.6654C63.1237 62.2174 63.4987 62.5924 63.4987 63.0508C63.4987 63.5091 63.1237 63.8841 62.6654 63.8841H52.0737C51.6154 63.8841 51.2404 63.5091 51.2404 63.0508C51.2404 62.5924 51.6154 62.2174 52.0737 62.2174ZM52.0737 66.0091H57.8487C58.307 66.0091 58.682 66.3841 58.682 66.8424C58.682 67.3008 58.307 67.6758 57.8487 67.6758H52.0737C51.6154 67.6758 51.2404 67.3008 51.2404 66.8424C51.2404 66.3841 51.6154 66.0091 52.0737 66.0091ZM48.8237 81.4591C48.8237 83.0174 47.557 84.2758 46.007 84.2758H39.7237C38.1654 84.2758 36.907 83.0091 36.907 81.4591V75.1841C36.907 73.6258 38.1737 72.3675 39.7237 72.3675H45.9987C47.557 72.3675 48.8154 73.6341 48.8154 75.1841V81.4591H48.8237ZM48.8237 68.0841C48.8237 69.6425 47.557 70.9008 46.007 70.9008H39.7237C38.1654 70.9008 36.907 69.6341 36.907 68.0841V61.8091C36.907 60.2508 38.1737 58.9924 39.7237 58.9924H45.9987C47.557 58.9924 48.8154 60.2591 48.8154 61.8091V68.0841H48.8237ZM48.8237 54.7091C48.8237 56.2675 47.557 57.5258 46.007 57.5258H39.7237C38.1654 57.5258 36.907 56.2591 36.907 54.7091V48.4341C36.907 46.8758 38.1737 45.6174 39.7237 45.6174H45.9987C47.557 45.6174 48.8154 46.8841 48.8154 48.4341V54.7091H48.8237ZM59.132 81.0508H52.0737C51.6154 81.0508 51.2404 80.6758 51.2404 80.2174C51.2404 79.7591 51.6154 79.3841 52.0737 79.3841H59.132C59.5904 79.3841 59.9654 79.7591 59.9654 80.2174C59.9654 80.6758 59.5904 81.0508 59.132 81.0508ZM59.132 77.2591H52.0737C51.6154 77.2591 51.2404 76.8841 51.2404 76.4258C51.2404 75.9674 51.6154 75.5924 52.0737 75.5924H59.132C59.5904 75.5924 59.9654 75.9674 59.9654 76.4258C59.9654 76.8841 59.5904 77.2591 59.132 77.2591Z" fill="#FF4C16"/>
</svg>
