<svg width="60" height="60" viewBox="0 0 60 60" fill="none" xmlns="http://www.w3.org/2000/svg">
<g clip-path="url(#clip0_1_566)">
<path d="M2.1097 39.9975C4.21753 40.0288 6.17697 41.1776 7.22699 42.9985C8.2965 44.8389 8.2965 47.1404 7.22699 48.9887C6.97718 49.4302 6.85618 49.8171 6.90692 50.0788C7.09819 51.1183 7.71491 51.7982 8.60486 51.9583C9.45578 52.1068 10.2638 51.7278 10.6814 50.9971C11.8602 48.9378 12.2818 46.5074 11.8524 44.1746L11.5909 42.7836L19.7332 38.0712L20.8105 39.1613C22.3875 40.7399 24.3665 41.9005 26.5446 42.5022L28.0123 42.9125V52.1068L26.6852 52.5757C24.5656 53.3259 22.7389 54.7952 21.5406 56.7059C21.08 57.4366 20.9512 58.1947 21.1893 58.8082C21.3884 59.3279 21.8685 59.7186 22.5399 59.9101C23.4611 60.1798 24.3471 59.8007 24.8663 58.9294C25.9436 57.1202 27.9148 55.9987 30.0226 55.9987C32.1304 55.9987 34.0002 57.0499 35.0969 58.8199C35.5653 59.5702 36.2758 59.9805 37.0369 60C37.7161 59.9687 38.3445 59.578 38.6841 58.9606C39.0237 58.3393 39.0119 57.6203 38.6645 57.0107C37.4662 54.9515 35.577 53.3807 33.3404 52.5874L32.0133 52.1185V40.7749C32.0133 40.2865 31.822 39.8332 31.4746 39.4933C31.1468 39.1651 30.6667 38.9736 30.2373 38.9932C29.5073 39.0127 28.8281 38.9424 28.188 38.8134C24.6789 38.1022 21.8724 35.2732 21.1932 31.7721C20.6741 29.0915 21.365 26.3601 23.0707 24.2814C24.7882 22.2026 27.3175 20.9991 30.0069 20.9991C30.6081 20.9991 31.135 20.7999 31.5058 20.4286C31.8259 20.1082 32.0054 19.6784 32.0054 19.2174V7.88576L33.3326 7.41686C35.4521 6.66662 37.2788 5.19735 38.4771 3.28664C38.9377 2.55594 39.0665 1.79787 38.8284 1.18437C38.6294 0.664676 38.1492 0.273923 37.4778 0.082422C36.5566 -0.179381 35.6706 0.191836 35.1515 1.0632C34.0742 2.87238 32.0951 4.00554 29.9951 4.00554C27.8951 4.00554 26.0176 2.9544 24.9208 1.18434C24.4407 0.414566 23.7303 0.0120689 22.9925 0.00426642C22.2938 0.0355264 21.6732 0.426281 21.3219 1.0437C20.9823 1.66499 20.994 2.38392 21.3414 2.99352C22.5397 5.05277 24.4289 6.62357 26.6655 7.41683L27.9926 7.88573V17.0801L26.5328 17.4903C24.3625 18.0921 22.3757 19.2526 20.7988 20.8312L19.7215 21.9214L11.5792 17.209L11.8407 15.8179C12.2505 13.6063 11.8914 11.2853 10.8414 9.28463C10.4433 8.52267 9.84218 8.03423 9.20205 7.9248C8.50335 7.81538 7.9335 8.20614 7.57436 8.54609C6.88347 9.20646 6.76638 10.1677 7.25429 11.0586C8.28473 12.899 8.26524 15.1693 7.21526 16.9902C6.14576 18.8306 4.16673 19.9794 2.02772 19.9911C1.51639 19.9911 1.11824 20.0927 0.919151 20.2529C0.111163 20.9328 -0.169838 21.812 0.138483 22.6639C0.427328 23.4649 1.16891 23.9846 2.00819 23.9846C4.39701 23.9846 6.6961 23.125 8.50335 21.5855L9.57285 20.6633L17.7659 25.3953L17.4068 26.8567C17.1453 27.9273 17.0087 28.9784 17.0087 29.9866C17.0087 30.9986 17.1375 32.0458 17.4068 33.1164L17.7659 34.5778L9.57285 39.3098L8.50335 38.3876C6.79372 36.9263 4.60785 36.0783 2.35953 35.9963C1.46957 35.965 0.770912 36.2464 0.361017 36.7348C0.00971878 37.1646 -0.0878685 37.7742 0.0799764 38.4542C0.310275 39.3841 1.07923 39.9663 2.09797 39.9858L2.1097 39.9975Z" fill="#FF4C16"/>
<path d="M53.9929 10.9882H47.1191C46.1081 10.9882 45.2221 11.6682 45.0425 12.5786C44.9215 13.1881 45.0738 13.7898 45.4641 14.2588C45.8427 14.7199 46.4126 14.9895 47.002 14.9895H53.9968C55.0976 14.9895 55.9953 15.8882 55.9953 16.9901V28.994H47.1231C46.1121 28.994 45.2261 29.6739 45.0465 30.5843C44.9255 31.1938 45.0777 31.7955 45.4681 32.2645C45.8467 32.7256 46.4166 32.9952 47.006 32.9952H55.9993V44.999C55.9993 46.101 55.1015 46.9997 54.0008 46.9997H47.127C46.1161 46.9997 45.23 47.6796 45.0505 48.59C44.9295 49.1995 45.0817 49.8013 45.472 50.2702C45.8507 50.7313 46.4206 51.0009 47.01 51.0009H54.0048C57.3109 51.0009 60.0003 48.3086 60.0003 44.999V16.9901C60.0003 13.6804 57.3109 10.9882 54.0048 10.9882L53.9929 10.9882Z" fill="#FF4C16"/>
</g>
<defs>
<clipPath id="clip0_1_566">
<rect width="60" height="60" fill="white"/>
</clipPath>
</defs>
</svg>
