<svg width="60" height="60" viewBox="0 0 60 60" fill="none" xmlns="http://www.w3.org/2000/svg">
<g clip-path="url(#clip0_1_563)">
<path d="M51.0096 33.1732L51.2713 32.0836C51.7517 30.0957 51.9899 28.0453 51.9899 25.995C51.9899 11.6577 40.3322 0 25.995 0C11.6577 0 0 11.6577 0 25.995C0 40.3322 11.6577 51.9899 25.995 51.9899C28.0454 51.9899 30.0958 51.7517 32.0836 51.2713L33.1732 51.0096L39.4532 57.2896C41.2028 59.0393 43.5227 60 45.991 60C48.4593 60 50.7792 59.0392 52.5288 57.2896L57.2896 52.5288C59.0392 50.7792 60 48.4593 60 45.991C60 43.5227 59.0392 41.2028 57.2896 39.4532L51.0096 33.1732ZM32.0133 47.1625L31.4822 47.3031C29.6817 47.7639 27.8345 48.0021 26.0027 48.0021C13.8761 48.0021 4.007 38.1329 4.007 26.0064C4.007 13.8797 13.8762 4.01066 26.0027 4.01066C38.1293 4.01066 47.9985 13.8798 47.9985 26.0064C47.9985 27.8341 47.7681 29.6854 47.2994 31.4858L47.1588 32.017L40.9881 38.1877L31.1892 28.3888L31.5876 27.2093C31.8492 26.4477 31.9781 25.6705 31.9781 24.8895V18.0119C31.9781 16.9105 31.0798 16.0123 29.9785 16.0123C28.8771 16.0123 27.9789 16.9105 27.9789 18.0119V24.8895C27.9789 25.7096 27.6508 26.518 27.0689 27.0999C26.4909 27.6779 25.6786 28.0216 24.8584 28.0216H17.9809C16.8795 28.0216 15.9812 28.9199 15.9812 30.0212C15.9812 31.1226 16.8795 32.0209 17.9809 32.0209H24.8584C25.6395 32.0209 26.4167 31.892 27.1666 31.6303L28.346 31.232L38.1449 41.0309L31.9742 47.2016L32.0133 47.1625ZM54.458 49.7011L49.6972 54.4618C48.7482 55.4109 47.3968 55.9498 45.987 55.9498C44.5771 55.9498 43.2258 55.4109 42.2885 54.4618L36.3209 48.4942L48.4905 36.3246L54.4503 42.2843C55.4306 43.2646 55.9891 44.6119 55.9891 45.9945C55.9891 47.3731 55.4306 48.7245 54.4503 49.7047L54.458 49.7011Z" fill="#FF4C16"/>
</g>
<defs>
<clipPath id="clip0_1_563">
<rect width="60" height="60" fill="white"/>
</clipPath>
</defs>
</svg>
