<svg width="608" height="608" viewBox="0 0 608 608" fill="none" xmlns="http://www.w3.org/2000/svg">
<path d="M578.406 212.203L607.5 241.297L607.5 366.703L578.406 395.797L453.084 395.797L423.99 366.703L423.99 241.297L453.084 212.203L578.406 212.203Z" stroke="#FF4C16"/>
<path d="M366.71 0.5L395.804 29.5938L395.804 154.999L366.71 184.094L241.303 184.094L212.209 155L212.209 29.5938L241.303 0.5L366.71 0.5Z" stroke="#FF4C16"/>
<path d="M578.406 0.5L607.5 29.5938L607.5 155L578.406 184.094L453.084 184.094L423.99 155V143.592L567.083 0.5L578.406 0.5Z" stroke="#FF4C16"/>
<path d="M578.404 423.907L607.498 453.001L607.498 578.407L578.404 607.501H567.081L423.988 464.408V453.001L453.082 423.907L578.404 423.907Z" stroke="#FF4C16"/>
<path d="M155.001 0.5L184.095 29.5938L184.095 154.999L155.001 184.094H143.593L0.5 41.001L0.5 29.5938L29.5938 0.5L155.001 0.5Z" stroke="#FF4C16"/>
<path d="M366.71 423.907L395.804 453.001V464.407L252.711 607.501H241.303L212.209 578.407L212.209 453.001L241.303 423.907L366.71 423.907Z" stroke="#FF4C16"/>
<path d="M366.71 212.203L395.804 241.297L395.804 366.702L366.71 395.797L241.303 395.797L212.209 366.703L212.209 355.295L355.302 212.203H366.71Z" stroke="#FF4C16"/>
<path d="M155.001 423.907L184.095 453.001L184.095 578.406L155.001 607.501L29.5937 607.501L0.5 578.407L0.5 566.999L143.593 423.907H155.001Z" stroke="#FF4C16"/>
</svg>
