<svg width="211" height="48" viewBox="0 0 211 48" fill="none" xmlns="http://www.w3.org/2000/svg">
<path d="M47.9999 19.0334L45.6799 16.7134L35.7533 16.7134L33.4333 19.0334L33.4333 28.9666L35.7533 31.2866L45.6799 31.2866L47.9999 28.9666L47.9999 19.0334Z" fill="#0D1318"/>
<path d="M31.2866 2.31998L28.9666 0L19.0334 0L16.7134 2.31998L16.7134 12.2532L19.0334 14.5732L28.9666 14.5732L31.2866 12.2532L31.2866 2.31998Z" fill="#0D1318"/>
<path d="M47.9999 2.31998L45.6799 0L44.7532 0L33.4333 11.3199V12.2532L35.7533 14.5732L45.6799 14.5732L47.9999 12.2532L47.9999 2.31998Z" fill="#0D1318"/>
<path d="M47.9999 35.7468L45.6799 33.4268L35.7533 33.4268L33.4333 35.7468V36.6801L44.7532 48H45.6799L47.9999 45.68L47.9999 35.7468Z" fill="#0D1318"/>
<path d="M14.5732 2.31998L12.2532 0L2.31998 0L0 2.31998L0 3.2533L11.3199 14.5732L12.2532 14.5732L14.5732 12.2532L14.5732 2.31998Z" fill="#0D1318"/>
<path d="M31.2866 35.7468L28.9666 33.4268L19.0334 33.4268L16.7134 35.7468L16.7134 45.68L19.0334 48L19.9667 48L31.2866 36.6801L31.2866 35.7468Z" fill="#0D1318"/>
<path d="M31.2866 19.0334L28.9666 16.7134H28.0333L16.7134 28.0333L16.7134 28.9666L19.0334 31.2866L28.9666 31.2866L31.2866 28.9666L31.2866 19.0334Z" fill="#0D1318"/>
<path d="M14.5732 35.7468L12.2532 33.4268L11.3199 33.4268L0 44.7467L0 45.68L2.31998 48L12.2532 48L14.5732 45.68L14.5732 35.7468Z" fill="#0D1318"/>
<path d="M88.6226 36.6104L86.8455 32.7229H71.5917L69.7775 36.6104C69.5553 37.064 69.1759 37.3232 68.6483 37.3232H64.8348C64.1128 37.3232 63.8167 36.8696 64.1128 36.2309L76.1178 11.3507C76.34 10.8971 76.6824 10.675 77.21 10.675H81.2086C81.7362 10.675 82.0787 10.8971 82.3008 11.3507L94.2688 36.2309C94.5742 36.8696 94.2688 37.3232 93.5561 37.3232H89.7426C89.215 37.3232 88.8355 37.101 88.6134 36.6104H88.6226ZM84.8832 28.4096L79.2556 16.1361L73.5539 28.4096H84.8832Z" fill="#0D1318"/>
<path d="M95.4168 29.3166C95.3798 28.6779 95.7222 28.3354 96.3239 28.3354H99.6838C100.285 28.3354 100.591 28.6779 100.628 29.2795C100.85 31.4732 101.877 32.3063 104.33 32.3063H111.735C114.604 32.3063 115.623 31.5843 115.623 29.3999C115.623 27.2155 114.641 26.7156 112.115 26.5305L103.692 25.8918C97.8789 25.4383 95.5741 23.5501 95.5741 18.561C95.5741 13.572 98.027 10.6749 104.599 10.6749H111.513C117.483 10.6749 120.158 13.3592 120.426 18.6814C120.463 19.32 120.121 19.6625 119.519 19.6625H116.122C115.521 19.6625 115.215 19.32 115.178 18.7184C114.947 16.5247 113.929 15.6917 111.513 15.6917H104.682C101.776 15.6917 100.757 16.3674 100.757 18.5981C100.757 20.6714 101.739 21.199 104.266 21.3934L112.688 22.0321C118.427 22.4856 120.843 24.4849 120.843 29.4369C120.843 34.3889 118.39 37.3323 111.781 37.3323H104.34C98.3324 37.3323 95.6945 34.6481 95.4261 29.3258L95.4168 29.3166Z" fill="#0D1318"/>
<path d="M124.49 28.1514V19.8765C124.49 14.2118 127.174 10.6667 133.44 10.6667H141.863C148.129 10.6667 150.814 14.2118 150.814 19.8765V19.9875C150.814 20.5892 150.471 20.9317 149.87 20.9317H146.51C145.908 20.9317 145.566 20.6632 145.566 20.293V19.6913C145.566 16.4054 144.473 15.6927 141.863 15.6927H133.44C130.839 15.6927 129.738 16.4054 129.738 19.6913V28.3365C129.738 31.5854 130.913 32.3073 133.44 32.3073H141.863C144.39 32.3073 145.566 31.5854 145.566 28.3365V27.6238C145.566 27.0221 145.908 26.6797 146.51 26.6797H149.87C150.471 26.6797 150.814 26.9481 150.814 27.3924V28.1514C150.814 33.779 148.129 37.3241 141.863 37.3241H133.44C127.174 37.3241 124.49 33.779 124.49 28.1514Z" fill="#0D1318"/>
<path d="M154.655 36.3798V11.6106C154.655 11.009 154.997 10.6665 155.599 10.6665H158.996C159.486 10.6665 159.866 10.8516 160.171 11.2311L174.824 29.4285V11.6106C174.824 11.009 175.166 10.6665 175.768 10.6665L179.128 10.6665C179.729 10.6665 180.072 11.009 180.072 11.6106V36.3798C180.072 36.9814 179.729 37.3239 179.128 37.3239H175.731C175.24 37.3239 174.861 37.1388 174.564 36.7593L159.912 18.673V36.3798C159.912 36.9814 159.57 37.3239 158.968 37.3239H155.608C155.007 37.3239 154.664 36.9814 154.664 36.3798H154.655Z" fill="#0D1318"/>
<path d="M184.348 36.3798V11.6106C184.348 11.009 184.69 10.6665 185.292 10.6665H201.49C207.719 10.6665 210.403 13.9894 210.403 20.6723V27.4662C210.403 34.112 207.719 37.3239 201.49 37.3239H185.292C184.69 37.3239 184.348 36.9814 184.348 36.3798ZM200.888 32.3441C203.758 32.3441 205.229 31.5481 205.229 27.4014V20.7185C205.229 16.5718 203.832 15.7018 200.888 15.7018H189.596V32.3534H200.888V32.3441Z" fill="#0D1318"/>
</svg>
