<svg width="141" height="32" viewBox="0 0 141 32" fill="none" xmlns="http://www.w3.org/2000/svg">
<path d="M32.0001 12.6892L30.4534 11.1426L23.8357 11.1426L22.2891 12.6892L22.2891 19.3115L23.8357 20.8581L30.4534 20.8581L32.0001 19.3115L32.0001 12.6892Z" fill="#FF4C16"/>
<path d="M20.858 1.54666L19.3114 0L12.6892 0L11.1426 1.54666L11.1426 8.16888L12.6892 9.71554L19.3114 9.71554L20.858 8.16888L20.858 1.54666Z" fill="#FF4C16"/>
<path d="M32.0001 1.54666L30.4534 0L29.8357 0L22.2891 7.54666L22.2891 8.16888L23.8357 9.71554L30.4534 9.71554L32.0001 8.16888L32.0001 1.54666Z" fill="#FF4C16"/>
<path d="M32.0001 23.8308L30.4534 22.2842L23.8357 22.2842L22.2891 23.8308V24.4531L29.8357 31.9997L30.4534 31.9997L32.0001 30.4531L32.0001 23.8308Z" fill="#FF4C16"/>
<path d="M9.71546 1.54666L8.16881 0L1.54665 0L0 1.54666L0 2.16889L7.54659 9.71554H8.16881L9.71546 8.16888L9.71546 1.54666Z" fill="#FF4C16"/>
<path d="M20.858 23.8308L19.3114 22.2842L12.6892 22.2842L11.1426 23.8308L11.1426 30.4531L12.6892 31.9997L13.3114 31.9997L20.858 24.4531L20.858 23.8308Z" fill="#FF4C16"/>
<path d="M20.858 12.6892L19.3114 11.1426L18.6892 11.1426L11.1426 18.6892V19.3115L12.6892 20.8581L19.3114 20.8581L20.858 19.3115L20.858 12.6892Z" fill="#FF4C16"/>
<path d="M9.71546 23.8308L8.16881 22.2842H7.54659L0 29.8308L0 30.4531L1.54665 31.9997L8.16881 31.9997L9.71546 30.4531L9.71546 23.8308Z" fill="#FF4C16"/>
<path d="M59.0818 24.4076L57.897 21.8159H47.7278L46.5183 24.4076C46.3702 24.71 46.1172 24.8828 45.7655 24.8828H43.2232C42.7419 24.8828 42.5444 24.5804 42.7419 24.1546L50.7452 7.56765C50.8933 7.26528 51.1216 7.11719 51.4734 7.11719H54.1391C54.4908 7.11719 54.7191 7.26528 54.8672 7.56765L62.8458 24.1546C63.0495 24.5804 62.8458 24.8828 62.3707 24.8828H59.8284C59.4767 24.8828 59.2237 24.7347 59.0756 24.4076H59.0818ZM56.5888 18.9403L52.8371 10.7579L49.036 18.9403H56.5888Z" fill="#FF4C16"/>
<path d="M63.6092 19.5441C63.5846 19.1183 63.8129 18.89 64.214 18.89H66.4539C66.855 18.89 67.0586 19.1183 67.0833 19.5194C67.2314 20.9819 67.9163 21.5372 69.5516 21.5372H74.4881C76.401 21.5372 77.0798 21.0559 77.0798 19.5996C77.0798 18.1433 76.4257 17.8101 74.7411 17.6867L69.1258 17.2609C65.2506 16.9585 63.7141 15.6997 63.7141 12.3737C63.7141 9.04765 65.3494 7.11621 69.7305 7.11621H74.34C78.3201 7.11621 80.1034 8.90572 80.2823 12.4539C80.307 12.8797 80.0787 13.108 79.6776 13.108H77.413C77.0119 13.108 76.8082 12.8797 76.7836 12.4786C76.6293 11.0161 75.9505 10.4608 74.34 10.4608H69.7861C67.8485 10.4608 67.1697 10.9112 67.1697 12.3984C67.1697 13.7806 67.8238 14.1323 69.5084 14.2619L75.1237 14.6877C78.9495 14.9901 80.56 16.323 80.56 19.6243C80.56 22.9256 78.9248 24.8879 74.5189 24.8879H69.5577C65.553 24.8879 63.7944 23.0984 63.6154 19.5503L63.6092 19.5441Z" fill="#FF4C16"/>
<path d="M82.9922 18.7679V13.2512C82.9922 9.47472 84.7817 7.11133 88.9592 7.11133L94.5745 7.11133C98.752 7.11133 100.541 9.47472 100.541 13.2512V13.3253C100.541 13.7264 100.313 13.9547 99.9121 13.9547H97.6722C97.2711 13.9547 97.0427 13.7757 97.0427 13.5289V13.1278C97.0427 10.9372 96.3146 10.462 94.5745 10.462H88.9592C87.2253 10.462 86.491 10.9372 86.491 13.1278V18.8913C86.491 21.0572 87.2746 21.5385 88.9592 21.5385H94.5745C96.2591 21.5385 97.0427 21.0572 97.0427 18.8913V18.4161C97.0427 18.015 97.2711 17.7867 97.6722 17.7867H99.9121C100.313 17.7867 100.541 17.9657 100.541 18.2619V18.7679C100.541 22.5197 98.752 24.8831 94.5745 24.8831H88.9592C84.7817 24.8831 82.9922 22.5197 82.9922 18.7679Z" fill="#FF4C16"/>
<path d="M103.102 24.2537V7.74075C103.102 7.33965 103.33 7.11133 103.731 7.11133H105.996C106.323 7.11133 106.576 7.23474 106.779 7.48774L116.547 19.6194V7.74075C116.547 7.33965 116.776 7.11133 117.177 7.11133H119.417C119.818 7.11133 120.046 7.33965 120.046 7.74075V24.2537C120.046 24.6547 119.818 24.8831 119.417 24.8831H117.152C116.825 24.8831 116.572 24.7597 116.375 24.5067L106.606 12.449V24.2537C106.606 24.6547 106.378 24.8831 105.977 24.8831H103.737C103.336 24.8831 103.108 24.6547 103.108 24.2537H103.102Z" fill="#FF4C16"/>
<path d="M122.898 24.2537V7.74075C122.898 7.33965 123.127 7.11133 123.528 7.11133H134.326C138.479 7.11133 140.269 9.32662 140.269 13.7819V18.3112C140.269 22.7418 138.479 24.8831 134.326 24.8831H123.528C123.127 24.8831 122.898 24.6547 122.898 24.2537ZM133.925 21.5632C135.838 21.5632 136.819 21.0325 136.819 18.268V13.8128C136.819 11.0483 135.888 10.4682 133.925 10.4682H126.397V21.5694H133.925V21.5632Z" fill="#FF4C16"/>
</svg>
