<svg width="211" height="48" viewBox="0 0 211 48" fill="none" xmlns="http://www.w3.org/2000/svg">
<path d="M48.0001 19.0336L45.6801 16.7136L35.7536 16.7136L33.4336 19.0336L33.4336 28.9669L35.7536 31.2869L45.6801 31.2869L48.0001 28.9669L48.0001 19.0336Z" fill="#F6F6F4"/>
<path d="M31.2871 2.32L28.9671 0L19.0338 0L16.7139 2.32L16.7139 12.2533L19.0338 14.5733L28.9671 14.5733L31.2871 12.2533L31.2871 2.32Z" fill="#F6F6F4"/>
<path d="M48.0001 2.32L45.6801 0L44.7535 0L33.4336 11.32V12.2533L35.7536 14.5733L45.6801 14.5733L48.0001 12.2533L48.0001 2.32Z" fill="#F6F6F4"/>
<path d="M48.0001 35.7468L45.6801 33.4268L35.7536 33.4268L33.4336 35.7468V36.6801L44.7535 48.0001H45.6801L48.0001 45.6801L48.0001 35.7468Z" fill="#F6F6F4"/>
<path d="M14.5732 2.32L12.2532 0L2.31998 0L0 2.32L0 3.25333L11.3199 14.5733L12.2532 14.5733L14.5732 12.2533L14.5732 2.32Z" fill="#F6F6F4"/>
<path d="M31.2871 35.7468L28.9671 33.4268L19.0338 33.4268L16.7139 35.7468L16.7139 45.6801L19.0338 48.0001L19.9672 48.0001L31.2871 36.6801L31.2871 35.7468Z" fill="#F6F6F4"/>
<path d="M31.2871 19.0336L28.9671 16.7136H28.0338L16.7139 28.0336L16.7139 28.9669L19.0338 31.2869L28.9671 31.2869L31.2871 28.9669L31.2871 19.0336Z" fill="#F6F6F4"/>
<path d="M14.5732 35.7467L12.2532 33.4267L11.3199 33.4267L0 44.7467L0 45.68L2.31998 48L12.2532 48L14.5732 45.68L14.5732 35.7467Z" fill="#F6F6F4"/>
<path d="M88.6226 36.6115L86.8454 32.7239H71.5916L69.7774 36.6115C69.5553 37.0651 69.1758 37.3242 68.6482 37.3242H64.8347C64.1128 37.3242 63.8166 36.8707 64.1128 36.232L76.1178 11.3516C76.3399 10.898 76.6824 10.6759 77.21 10.6759H81.2085C81.7361 10.6759 82.0786 10.898 82.3007 11.3516L94.2687 36.232C94.5742 36.8707 94.2687 37.3242 93.556 37.3242H89.7425C89.215 37.3242 88.8355 37.1021 88.6133 36.6115H88.6226ZM84.8832 28.4106L79.2555 16.137L73.5539 28.4106H84.8832Z" fill="#F6F6F4"/>
<path d="M95.4166 29.3161C95.3796 28.6775 95.7221 28.335 96.3237 28.335H99.6836C100.285 28.335 100.591 28.6775 100.628 29.2791C100.85 31.4728 101.877 32.3059 104.33 32.3059H111.735C114.604 32.3059 115.622 31.5839 115.622 29.3994C115.622 27.215 114.641 26.7152 112.114 26.53L103.691 25.8914C97.8787 25.4378 95.574 23.5496 95.574 18.5605C95.574 13.5715 98.0268 10.6743 104.599 10.6743H111.513C117.483 10.6743 120.158 13.3586 120.426 18.6809C120.463 19.3195 120.121 19.662 119.519 19.662H116.122C115.521 19.662 115.215 19.3195 115.178 18.7179C114.947 16.5242 113.929 15.6911 111.513 15.6911H104.682C101.776 15.6911 100.757 16.3668 100.757 18.5975C100.757 20.6709 101.738 21.1985 104.265 21.3929L112.688 22.0316C118.427 22.4851 120.843 24.4844 120.843 29.4365C120.843 34.3885 118.39 37.3319 111.781 37.3319H104.339C98.3323 37.3319 95.6943 34.6476 95.4259 29.3254L95.4166 29.3161Z" fill="#F6F6F4"/>
<path d="M124.489 28.1515V19.8766C124.489 14.2118 127.173 10.6667 133.44 10.6667H141.863C148.129 10.6667 150.813 14.2118 150.813 19.8766V19.9877C150.813 20.5893 150.471 20.9318 149.869 20.9318H146.509C145.908 20.9318 145.565 20.6634 145.565 20.2931V19.6915C145.565 16.4055 144.473 15.6928 141.863 15.6928H133.44C130.839 15.6928 129.737 16.4055 129.737 19.6915V28.3367C129.737 31.5856 130.913 32.3075 133.44 32.3075H141.863C144.39 32.3075 145.565 31.5856 145.565 28.3367V27.624C145.565 27.0223 145.908 26.6798 146.509 26.6798H149.869C150.471 26.6798 150.813 26.9483 150.813 27.3926V28.1515C150.813 33.7793 148.129 37.3244 141.863 37.3244H133.44C127.173 37.3244 124.489 33.7793 124.489 28.1515Z" fill="#F6F6F4"/>
<path d="M154.654 36.3802V11.6109C154.654 11.0092 154.997 10.6667 155.598 10.6667H158.995C159.486 10.6667 159.865 10.8519 160.171 11.2314L174.823 29.4289V11.6109C174.823 11.0092 175.165 10.6667 175.767 10.6667L179.127 10.6667C179.729 10.6667 180.071 11.0092 180.071 11.6109V36.3802C180.071 36.9819 179.729 37.3244 179.127 37.3244H175.73C175.24 37.3244 174.86 37.1392 174.564 36.7597L159.912 18.6733V36.3802C159.912 36.9819 159.569 37.3244 158.968 37.3244H155.608C155.006 37.3244 154.664 36.9819 154.664 36.3802H154.654Z" fill="#F6F6F4"/>
<path d="M184.348 36.3802V11.6109C184.348 11.0092 184.69 10.6667 185.292 10.6667H201.49C207.719 10.6667 210.403 13.9897 210.403 20.6726V27.4666C210.403 34.1125 207.719 37.3244 201.49 37.3244H185.292C184.69 37.3244 184.348 36.9819 184.348 36.3802ZM200.888 32.3446C203.758 32.3446 205.229 31.5485 205.229 27.4018V20.7189C205.229 16.5721 203.832 15.7021 200.888 15.7021H189.596V32.3538H200.888V32.3446Z" fill="#F6F6F4"/>
</svg>
