<svg width="211" height="48" viewBox="0 0 211 48" fill="none" xmlns="http://www.w3.org/2000/svg">
<path d="M48.0001 19.0334L45.6801 16.7134L35.7536 16.7134L33.4336 19.0334L33.4336 28.9666L35.7536 31.2866L45.6801 31.2866L48.0001 28.9666L48.0001 19.0334Z" fill="#FF990A"/>
<path d="M31.2861 2.31998L28.9661 0L19.0329 0L16.7129 2.31998L16.7129 12.2532L19.0329 14.5732L28.9661 14.5732L31.2861 12.2532L31.2861 2.31998Z" fill="#FF990A"/>
<path d="M48.0001 2.31998L45.6801 0L44.7535 0L33.4336 11.3199V12.2532L35.7536 14.5732L45.6801 14.5732L48.0001 12.2532L48.0001 2.31998Z" fill="#FF990A"/>
<path d="M48.0001 35.7467L45.6801 33.4268L35.7536 33.4268L33.4336 35.7467V36.6801L44.7535 48H45.6801L48.0001 45.68L48.0001 35.7467Z" fill="#FF990A"/>
<path d="M14.5732 2.31998L12.2532 0L2.31998 0L0 2.31998L0 3.2533L11.3199 14.5732L12.2532 14.5732L14.5732 12.2532L14.5732 2.31998Z" fill="#FF990A"/>
<path d="M31.2861 35.7467L28.9661 33.4268L19.0329 33.4268L16.7129 35.7467L16.7129 45.68L19.0329 48L19.9662 48L31.2861 36.6801L31.2861 35.7467Z" fill="#FF990A"/>
<path d="M31.2861 19.0334L28.9661 16.7134H28.0328L16.7129 28.0333L16.7129 28.9666L19.0329 31.2866L28.9661 31.2866L31.2861 28.9666L31.2861 19.0334Z" fill="#FF990A"/>
<path d="M14.5732 35.7467L12.2532 33.4268L11.3199 33.4268L0 44.7467L0 45.68L2.31998 48L12.2532 48L14.5732 45.68L14.5732 35.7467Z" fill="#FF990A"/>
<path d="M88.6217 36.6102L86.8445 32.7227H71.5907L69.7765 36.6102C69.5544 37.0638 69.1749 37.323 68.6473 37.323H64.8338C64.1119 37.323 63.8157 36.8694 64.1119 36.2307L76.1169 11.3505C76.339 10.8969 76.6815 10.6748 77.2091 10.6748H81.2076C81.7352 10.6748 82.0777 10.8969 82.2998 11.3505L94.2678 36.2307C94.5733 36.8694 94.2678 37.323 93.5551 37.323H89.7416C89.2141 37.323 88.8346 37.1008 88.6124 36.6102H88.6217ZM84.8823 28.4094L79.2546 16.1359L73.553 28.4094H84.8823Z" fill="#FF990A"/>
<path d="M95.4148 29.3165C95.3778 28.6778 95.7203 28.3353 96.3219 28.3353H99.6818C100.283 28.3353 100.589 28.6778 100.626 29.2794C100.848 31.4731 101.876 32.3062 104.328 32.3062H111.733C114.602 32.3062 115.621 31.5842 115.621 29.3998C115.621 27.2154 114.639 26.7155 112.113 26.5304L103.69 25.8917C97.8769 25.4382 95.5722 23.55 95.5722 18.5609C95.5722 13.5719 98.025 10.6748 104.597 10.6748H111.511C117.481 10.6748 120.156 13.3591 120.424 18.6813C120.462 19.3199 120.119 19.6624 119.517 19.6624H116.12C115.519 19.6624 115.213 19.3199 115.176 18.7183C114.945 16.5246 113.927 15.6916 111.511 15.6916H104.68C101.774 15.6916 100.756 16.3673 100.756 18.598C100.756 20.6713 101.737 21.1989 104.264 21.3933L112.686 22.032C118.425 22.4855 120.841 24.4848 120.841 29.4368C120.841 34.3888 118.388 37.3322 111.779 37.3322H104.338C98.3305 37.3322 95.6925 34.648 95.4241 29.3257L95.4148 29.3165Z" fill="#FF990A"/>
<path d="M124.488 28.1507V19.8758C124.488 14.2111 127.173 10.666 133.439 10.666H141.862C148.128 10.666 150.812 14.2111 150.812 19.8758V19.9869C150.812 20.5885 150.47 20.931 149.868 20.931H146.508C145.907 20.931 145.564 20.6626 145.564 20.2923V19.6907C145.564 16.4048 144.472 15.6921 141.862 15.6921H133.439C130.838 15.6921 129.736 16.4048 129.736 19.6907V28.3358C129.736 31.5847 130.912 32.3067 133.439 32.3067H141.862C144.389 32.3067 145.564 31.5847 145.564 28.3358V27.6231C145.564 27.0215 145.907 26.679 146.508 26.679H149.868C150.47 26.679 150.812 26.9474 150.812 27.3917V28.1507C150.812 33.7784 148.128 37.3234 141.862 37.3234H133.439C127.173 37.3234 124.488 33.7784 124.488 28.1507Z" fill="#FF990A"/>
<path d="M154.654 36.3793V11.6101C154.654 11.0085 154.997 10.666 155.598 10.666H158.995C159.486 10.666 159.865 10.8511 160.171 11.2306L174.823 29.428V11.6101C174.823 11.0085 175.166 10.666 175.767 10.666L179.127 10.666C179.729 10.666 180.071 11.0085 180.071 11.6101V36.3793C180.071 36.9809 179.729 37.3234 179.127 37.3234H175.73C175.24 37.3234 174.86 37.1383 174.564 36.7588L159.912 18.6725V36.3793C159.912 36.9809 159.569 37.3234 158.968 37.3234H155.608C155.006 37.3234 154.664 36.9809 154.664 36.3793H154.654Z" fill="#FF990A"/>
<path d="M184.348 36.3793V11.6101C184.348 11.0085 184.69 10.666 185.292 10.666H201.49C207.719 10.666 210.403 13.9889 210.403 20.6718V27.4657C210.403 34.1116 207.719 37.3234 201.49 37.3234H185.292C184.69 37.3234 184.348 36.9809 184.348 36.3793ZM200.888 32.3437C203.757 32.3437 205.229 31.5477 205.229 27.4009V20.7181C205.229 16.5714 203.831 15.7013 200.888 15.7013H189.596V32.3529H200.888V32.3437Z" fill="#FF990A"/>
</svg>
