<svg width="48" height="48" viewBox="0 0 48 48" fill="none" xmlns="http://www.w3.org/2000/svg">
<path d="M48.0001 19.0334L45.6801 16.7134L35.7536 16.7134L33.4336 19.0334L33.4336 28.9666L35.7536 31.2866L45.6801 31.2866L48.0001 28.9666L48.0001 19.0334Z" fill="#FF4C16"/>
<path d="M31.288 2.31998L28.9681 0L19.0348 0L16.7148 2.31998L16.7148 12.2532L19.0348 14.5732L28.9681 14.5732L31.288 12.2532L31.288 2.31998Z" fill="#FF4C16"/>
<path d="M48.0001 2.31998L45.6801 0L44.7535 0L33.4336 11.3199V12.2532L35.7536 14.5732L45.6801 14.5732L48.0001 12.2532L48.0001 2.31998Z" fill="#FF4C16"/>
<path d="M48.0001 35.7467L45.6801 33.4268L35.7536 33.4268L33.4336 35.7467V36.6801L44.7535 48H45.6801L48.0001 45.68L48.0001 35.7467Z" fill="#FF4C16"/>
<path d="M14.5732 2.31998L12.2532 0L2.31998 0L0 2.31998L0 3.2533L11.3199 14.5732L12.2532 14.5732L14.5732 12.2532L14.5732 2.31998Z" fill="#FF4C16"/>
<path d="M31.288 35.7467L28.9681 33.4268L19.0348 33.4268L16.7148 35.7467L16.7148 45.68L19.0348 48L19.9681 48L31.288 36.6801L31.288 35.7467Z" fill="#FF4C16"/>
<path d="M31.288 19.0334L28.9681 16.7134H28.0347L16.7148 28.0333L16.7148 28.9666L19.0348 31.2866L28.9681 31.2866L31.288 28.9666L31.288 19.0334Z" fill="#FF4C16"/>
<path d="M14.5732 35.7467L12.2532 33.4268L11.3199 33.4268L0 44.7467L0 45.68L2.31998 48L12.2532 48L14.5732 45.68L14.5732 35.7467Z" fill="#FF4C16"/>
</svg>
