<svg width="608" height="608" viewBox="0 0 608 608" fill="none" xmlns="http://www.w3.org/2000/svg">
<path d="M114.26 95.3155L101.67 82.7255L95.3749 82.7255L82.7849 95.3155L82.7849 101.61L95.3749 114.26L101.67 114.26L114.26 101.61L114.26 95.3155Z" fill="#FF4C16"/>
<path d="M137.896 118.951L125.306 106.361L119.011 106.361L106.361 118.951L106.361 125.246L119.011 137.836L125.306 137.836L137.896 125.246L137.896 118.951Z" fill="#FF4C16"/>
<path d="M161.532 142.587L148.882 129.997L142.587 129.997L129.997 142.587L129.997 148.882L142.587 161.472L148.882 161.472L161.532 148.882L161.532 142.587Z" fill="#FF4C16"/>
<path d="M185.108 166.223L172.518 153.574L166.223 153.574L153.633 166.223L153.633 172.518L166.223 185.108L172.518 185.108L185.108 172.518L185.108 166.223Z" fill="#FF4C16"/>
<path d="M208.744 189.8L196.154 177.21L189.859 177.21L177.269 189.8L177.269 196.095L189.859 208.744L196.154 208.744L208.744 196.095L208.744 189.8Z" fill="#FF4C16"/>
<path d="M232.38 213.435L219.79 200.845L213.495 200.845L200.845 213.435L200.845 219.73L213.495 232.32L219.79 232.32L232.38 219.73L232.38 213.435Z" fill="#FF4C16"/>
<path d="M255.956 241.407L257.857 241.882L273.297 232.974L273.832 231.073L275.554 232.083L292.717 227.451L293.726 225.788L295.092 227.154L312.908 227.154L314.333 225.788L315.283 227.451L332.506 232.083L334.228 231.073L334.703 232.974L350.143 241.882L352.044 241.407L352.044 243.366L364.634 255.956L366.593 255.956L366.118 257.857L375.026 273.297L376.927 273.772L375.917 275.494L380.549 292.717L382.212 293.667L380.846 295.092L380.846 312.908L385.3 317.362L403.116 317.362L407.57 312.908L407.57 295.092L403.413 290.876L406.323 285.768L401.75 268.606L396.643 265.636L398.128 259.935L389.22 244.495L383.519 242.951L383.519 237.071L370.929 224.481L365.049 224.481L363.505 218.78L348.065 209.872L342.364 211.357L339.394 206.25L322.232 201.677L317.124 204.587L312.908 200.43L295.092 200.43L290.935 204.587L285.828 201.677L268.606 206.25L265.636 211.357L259.935 209.872L244.495 218.78L243.01 224.481L237.071 224.481L224.481 237.071L224.481 243.366L237.071 255.956L243.366 255.956L255.956 243.366L255.956 241.407Z" fill="#FF4C16"/>
<path d="M352.044 366.593L350.143 366.059L334.703 374.967L334.228 376.867L332.506 375.917L315.283 380.49L314.333 382.212L312.908 380.787L295.092 380.787L293.726 382.212L292.717 380.49L275.554 375.917L273.832 376.867L273.297 374.967L257.857 366.059L255.956 366.593L255.956 364.634L243.366 352.044L241.407 352.044L241.941 350.143L233.033 334.703L231.133 334.168L232.083 332.446L227.51 315.283L225.788 314.274L227.213 312.908L227.213 295.092L222.7 290.638L204.884 290.638L200.489 295.092L200.489 312.908L204.646 317.065L201.677 322.172L206.309 339.394L211.416 342.364L209.872 348.065L218.78 363.505L224.481 364.99L224.481 370.929L237.071 383.519L243.01 383.519L244.495 389.22L259.935 398.128L265.636 396.584L268.606 401.691L285.828 406.323L290.935 403.354L295.092 407.511L312.908 407.511L317.124 403.354L322.232 406.323L339.394 401.691L342.364 396.584L348.065 398.128L363.505 389.22L365.049 383.519L370.929 383.519L383.519 370.929L383.519 364.634L370.929 352.044L364.634 352.044L352.044 364.634L352.044 366.593Z" fill="#FF4C16"/>
<path d="M375.68 394.505L388.27 407.155L394.565 407.155L407.154 394.505L407.154 388.21L394.565 375.62L388.27 375.62L375.68 388.21L375.68 394.505Z" fill="#FF4C16"/>
<path d="M399.256 418.141L411.905 430.731L418.2 430.731L430.79 418.141L430.79 411.846L418.2 399.256L411.905 399.256L399.256 411.846L399.256 418.141Z" fill="#FF4C16"/>
<path d="M422.892 441.777L435.482 454.367L441.777 454.367L454.426 441.777L454.426 435.482L441.777 422.892L435.482 422.892L422.892 435.482L422.892 441.777Z" fill="#FF4C16"/>
<path d="M446.528 465.413L459.118 478.003L465.413 478.003L478.003 465.413L478.003 459.118L465.413 446.468L459.118 446.468L446.528 459.118L446.528 465.413Z" fill="#FF4C16"/>
<path d="M470.164 488.989L482.754 501.639L489.049 501.639L501.639 488.989L501.639 482.694L489.049 470.104L482.754 470.104L470.164 482.694L470.164 488.989Z" fill="#FF4C16"/>
<path d="M493.74 512.625L506.389 525.215L512.684 525.215L525.274 512.625L525.274 506.33L512.684 493.74L506.389 493.74L493.74 506.33L493.74 512.625Z" fill="#FF4C16"/>
<path d="M174.715 53.3291L165.807 37.8886L159.75 36.2852L144.309 45.1932L142.706 51.2506L151.614 66.6911L157.671 68.2946L173.112 59.3866L174.715 53.3291Z" fill="#FF4C16"/>
<path d="M174.359 97.2752L189.8 88.3672L191.403 82.2504L182.495 66.8099L176.438 65.2065L160.997 74.1145L159.394 80.1719L168.302 95.6124L174.359 97.2752Z" fill="#FF4C16"/>
<path d="M176.081 109.153L184.989 124.534L191.047 126.197L206.487 117.289L208.15 111.172L199.242 95.7906L193.125 94.1277L177.685 103.036L176.081 109.153Z" fill="#FF4C16"/>
<path d="M192.769 138.074L201.677 153.455L207.794 155.118L223.234 146.21L224.838 140.093L215.93 124.712L209.872 123.049L194.432 131.957L192.769 138.074Z" fill="#FF4C16"/>
<path d="M209.516 166.995L218.424 182.436L224.481 184.039L239.922 175.131L241.525 169.074L232.617 153.633L226.56 151.97L211.119 160.878L209.516 166.995Z" fill="#FF4C16"/>
<path d="M226.204 195.916L235.112 211.357L241.169 212.96L256.609 204.052L258.213 197.995L249.305 182.554L243.247 180.892L227.807 189.8L226.204 195.916Z" fill="#FF4C16"/>
<path d="M287.253 263.498L298.299 260.588L309.76 260.588L320.806 263.498L330.665 269.259L338.741 277.335L344.502 287.194L347.412 298.24L347.412 312.908L351.925 317.362L369.741 317.362L374.136 312.908L374.136 295.092L373.898 294.795L374.076 294.439L369.444 277.217L369.088 277.039L369.206 276.623L360.298 261.182L359.942 261.063L359.942 260.707L347.293 248.058L346.936 248.058L346.818 247.701L331.377 238.794L330.961 238.912L330.783 238.556L313.561 233.924L313.205 234.102L312.908 233.864L295.092 233.864L294.795 234.102L294.439 233.924L277.276 238.556L277.038 238.912L276.682 238.794L261.242 247.701L261.123 248.058L260.707 248.058L248.117 260.707L248.117 267.002L260.707 279.592L267.002 279.592L277.335 269.259L287.253 263.498Z" fill="#FF4C16"/>
<path d="M320.806 344.442L309.76 347.412L298.299 347.412L287.253 344.442L277.335 338.741L269.259 330.665L263.558 320.747L260.588 309.701L260.588 295.092L256.134 290.638L238.318 290.638L233.864 295.092L233.864 312.908L234.161 313.205L233.924 313.561L238.556 330.724L238.912 330.962L238.794 331.318L247.701 346.758L248.117 346.877L248.117 347.293L260.707 359.883L261.123 359.883L261.242 360.298L276.682 369.206L277.038 369.088L277.276 369.444L294.439 374.076L294.795 373.839L295.092 374.136L312.908 374.136L313.205 373.839L313.561 374.076L330.783 369.444L330.961 369.088L331.377 369.206L346.818 360.298L346.936 359.883L347.293 359.883L359.942 347.293L359.942 340.998L347.293 328.408L340.998 328.408L330.665 338.741L320.806 344.442Z" fill="#FF4C16"/>
<path d="M381.856 412.084L372.948 396.643L366.831 394.98L351.39 403.888L349.787 410.005L358.695 425.446L364.752 427.049L380.193 418.141L381.856 412.084Z" fill="#FF4C16"/>
<path d="M398.543 441.005L389.635 425.564L383.578 423.902L368.138 432.81L366.475 438.926L375.383 454.367L381.499 455.97L396.94 447.062L398.543 441.005Z" fill="#FF4C16"/>
<path d="M415.231 469.926L406.323 454.486L400.266 452.882L384.825 461.79L383.222 467.848L392.13 483.288L398.187 484.892L413.628 475.984L415.231 469.926Z" fill="#FF4C16"/>
<path d="M431.919 498.847L423.011 483.407L416.953 481.803L401.513 490.711L399.909 496.769L408.817 512.209L414.875 513.813L430.315 504.905L431.919 498.847Z" fill="#FF4C16"/>
<path d="M433.641 510.725L418.2 519.633L416.597 525.69L425.505 541.131L431.562 542.794L447.003 533.886L448.666 527.769L439.758 512.328L433.641 510.725Z" fill="#FF4C16"/>
<path d="M433.285 554.611L442.193 570.052L448.309 571.715L463.75 562.807L465.353 556.69L456.445 541.25L450.388 539.646L434.947 548.554L433.285 554.611Z" fill="#FF4C16"/>
<path d="M240.872 33.8503L244.019 28.3868L239.387 11.2241L233.924 8.07656L216.761 12.6493L213.614 18.1129L218.186 35.335L223.65 38.4825L240.872 33.8503Z" fill="#FF4C16"/>
<path d="M222.225 50.3598L226.857 67.5819L232.32 70.7294L249.483 66.1567L252.631 60.6931L248.058 43.471L242.594 40.3235L225.372 44.9556L222.225 50.3598Z" fill="#FF4C16"/>
<path d="M230.895 82.6661L235.468 99.8882L240.931 103.036L258.154 98.4036L261.301 92.94L256.669 75.7179L251.205 72.5704L234.043 77.2026L230.895 82.6661Z" fill="#FF4C16"/>
<path d="M239.506 114.913L244.138 132.135L249.602 135.283L266.824 130.651L269.971 125.187L265.339 108.024L259.876 104.877L242.654 109.449L239.506 114.913Z" fill="#FF4C16"/>
<path d="M248.177 147.16L252.749 164.382L258.213 167.53L275.435 162.957L278.583 157.493L274.01 140.271L268.546 137.124L251.324 141.756L248.177 147.16Z" fill="#FF4C16"/>
<path d="M282.621 172.518L277.157 169.371L259.935 174.003L256.788 179.466L261.42 196.688L266.883 199.836L284.105 195.204L287.253 189.74L282.621 172.518Z" fill="#FF4C16"/>
<path d="M325.379 435.423L330.843 438.57L348.065 433.997L351.212 428.534L346.58 411.312L341.176 408.164L323.954 412.796L320.806 418.2L325.379 435.423Z" fill="#FF4C16"/>
<path d="M329.417 450.507L334.05 467.729L339.513 470.876L356.735 466.244L359.883 460.781L355.251 443.559L349.787 440.411L332.565 445.043L329.417 450.507Z" fill="#FF4C16"/>
<path d="M338.088 482.754L342.72 499.976L348.124 503.123L365.346 498.491L368.494 493.028L363.921 475.865L358.457 472.717L341.235 477.29L338.088 482.754Z" fill="#FF4C16"/>
<path d="M346.758 515.001L351.331 532.223L356.795 535.37L374.017 530.797L377.164 525.334L372.532 508.112L367.069 504.964L349.906 509.596L346.758 515.001Z" fill="#FF4C16"/>
<path d="M355.369 547.307L360.002 564.529L365.465 567.677L382.628 563.044L385.775 557.581L381.203 540.359L375.739 537.211L358.517 541.843L355.369 547.307Z" fill="#FF4C16"/>
<path d="M367.187 574.09L364.04 579.554L368.613 596.776L374.076 599.923L391.298 595.291L394.446 589.828L389.814 572.665L384.409 569.518L367.187 574.09Z" fill="#FF4C16"/>
<path d="M295.092 26.724L312.908 26.724L317.362 22.27L317.362 4.45398L312.908 -1.28989e-05L295.092 -1.36776e-05L290.638 4.45398L290.638 22.27L295.092 26.724Z" fill="#FF4C16"/>
<path d="M312.908 33.3753L295.092 33.3753L290.638 37.8886L290.638 55.7046L295.092 60.0992L312.908 60.0992L317.362 55.7046L317.362 37.8886L312.908 33.3753Z" fill="#FF4C16"/>
<path d="M290.638 89.0799L295.092 93.5339L312.908 93.5339L317.362 89.0799L317.362 71.2639L312.908 66.8099L295.092 66.8099L290.638 71.2639L290.638 89.0799Z" fill="#FF4C16"/>
<path d="M312.908 100.245L295.092 100.245L290.638 104.639L290.638 122.455L295.092 126.969L312.908 126.969L317.362 122.455L317.362 104.639L312.908 100.245Z" fill="#FF4C16"/>
<path d="M290.638 155.89L295.092 160.344L312.908 160.344L317.362 155.89L317.362 138.074L312.908 133.62L295.092 133.62L290.638 138.074L290.638 155.89Z" fill="#FF4C16"/>
<path d="M317.362 171.508L312.908 166.995L295.092 166.995L290.638 171.508L290.638 189.324L295.092 193.719L312.908 193.719L317.362 189.324L317.362 171.508Z" fill="#FF4C16"/>
<path d="M290.638 436.492L295.092 440.946L312.908 440.946L317.362 436.492L317.362 418.676L312.908 414.222L295.092 414.222L290.638 418.676L290.638 436.492Z" fill="#FF4C16"/>
<path d="M312.908 474.38L317.362 469.867L317.362 452.051L312.908 447.656L295.092 447.656L290.638 452.051L290.638 469.867L295.092 474.38L312.908 474.38Z" fill="#FF4C16"/>
<path d="M295.092 507.755L312.908 507.755L317.362 503.301L317.362 485.485L312.908 481.031L295.092 481.031L290.638 485.485L290.638 503.301L295.092 507.755Z" fill="#FF4C16"/>
<path d="M295.092 541.131L312.908 541.131L317.362 536.736L317.362 518.92L312.908 514.407L295.092 514.407L290.638 518.92L290.638 536.736L295.092 541.131Z" fill="#FF4C16"/>
<path d="M295.092 574.565L312.908 574.565L317.362 570.111L317.362 552.295L312.908 547.841L295.092 547.841L290.638 552.295L290.638 570.111L295.092 574.565Z" fill="#FF4C16"/>
<path d="M317.362 603.487L317.362 585.671L312.908 581.276L295.092 581.276L290.638 585.671L290.638 603.487L295.092 608L312.908 608L317.362 603.487Z" fill="#FF4C16"/>
<path d="M364.04 28.3868L367.187 33.8504L384.409 38.4825L389.814 35.335L394.446 18.1129L391.298 12.6493L374.076 8.07657L368.613 11.2241L364.04 28.3868Z" fill="#FF4C16"/>
<path d="M358.517 66.1567L375.739 70.7294L381.203 67.5819L385.775 50.3598L382.628 44.9556L365.465 40.3235L360.002 43.471L355.369 60.6931L358.517 66.1567Z" fill="#FF4C16"/>
<path d="M374.017 77.2026L356.795 72.5704L351.331 75.7179L346.758 92.94L349.906 98.4036L367.069 103.036L372.532 99.8882L377.164 82.6661L374.017 77.2026Z" fill="#FF4C16"/>
<path d="M341.235 130.651L358.457 135.283L363.921 132.135L368.494 114.913L365.346 109.449L348.124 104.877L342.72 108.024L338.088 125.187L341.235 130.651Z" fill="#FF4C16"/>
<path d="M329.417 157.493L332.565 162.957L349.787 167.53L355.251 164.382L359.883 147.16L356.735 141.756L339.513 137.124L334.05 140.271L329.417 157.493Z" fill="#FF4C16"/>
<path d="M351.212 179.466L348.065 174.003L330.843 169.371L325.379 172.518L320.806 189.74L323.954 195.204L341.176 199.836L346.58 196.688L351.212 179.466Z" fill="#FF4C16"/>
<path d="M256.788 428.534L259.935 433.997L277.157 438.57L282.621 435.423L287.253 418.2L284.105 412.796L266.883 408.164L261.42 411.312L256.788 428.534Z" fill="#FF4C16"/>
<path d="M251.324 466.244L268.546 470.876L274.01 467.729L278.582 450.507L275.435 445.043L258.213 440.411L252.749 443.559L248.177 460.781L251.324 466.244Z" fill="#FF4C16"/>
<path d="M239.506 493.028L242.654 498.491L259.876 503.123L265.339 499.976L269.971 482.754L266.824 477.29L249.602 472.717L244.138 475.865L239.506 493.028Z" fill="#FF4C16"/>
<path d="M234.043 530.797L251.205 535.37L256.669 532.223L261.301 515.001L258.154 509.596L240.931 504.964L235.468 508.112L230.895 525.334L234.043 530.797Z" fill="#FF4C16"/>
<path d="M222.225 557.581L225.372 563.044L242.594 567.676L248.058 564.529L252.631 547.307L249.483 541.843L232.32 537.211L226.857 540.359L222.225 557.581Z" fill="#FF4C16"/>
<path d="M244.019 579.554L240.872 574.09L223.65 569.518L218.186 572.665L213.614 589.828L216.761 595.291L233.924 599.923L239.387 596.776L244.019 579.554Z" fill="#FF4C16"/>
<path d="M433.285 53.3292L434.947 59.3866L450.388 68.2946L456.445 66.6911L465.353 51.2506L463.75 45.1932L448.309 36.2852L442.193 37.8886L433.285 53.3292Z" fill="#FF4C16"/>
<path d="M425.505 66.8099L416.597 82.2504L418.2 88.3673L433.641 97.2752L439.758 95.6124L448.666 80.1719L447.003 74.1145L431.562 65.2065L425.505 66.8099Z" fill="#FF4C16"/>
<path d="M431.919 109.153L430.315 103.036L414.875 94.1278L408.817 95.7906L399.909 111.172L401.513 117.289L416.953 126.197L423.011 124.534L431.919 109.153Z" fill="#FF4C16"/>
<path d="M415.231 138.074L413.628 131.957L398.187 123.049L392.13 124.712L383.222 140.093L384.825 146.21L400.266 155.118L406.323 153.455L415.231 138.074Z" fill="#FF4C16"/>
<path d="M383.578 184.039L389.635 182.436L398.543 166.995L396.94 160.878L381.5 151.97L375.383 153.633L366.475 169.074L368.138 175.131L383.578 184.039Z" fill="#FF4C16"/>
<path d="M366.831 212.96L372.948 211.357L381.856 195.916L380.193 189.8L364.752 180.892L358.695 182.554L349.787 197.995L351.39 204.052L366.831 212.96Z" fill="#FF4C16"/>
<path d="M241.169 394.98L235.111 396.643L226.204 412.084L227.807 418.141L243.247 427.049L249.305 425.446L258.213 410.005L256.609 403.888L241.169 394.98Z" fill="#FF4C16"/>
<path d="M239.922 432.81L224.481 423.902L218.424 425.564L209.516 441.005L211.119 447.062L226.56 455.97L232.617 454.367L241.525 438.926L239.922 432.81Z" fill="#FF4C16"/>
<path d="M192.769 469.926L194.432 475.984L209.872 484.892L215.93 483.288L224.838 467.848L223.234 461.79L207.794 452.882L201.677 454.486L192.769 469.926Z" fill="#FF4C16"/>
<path d="M176.081 498.847L177.685 504.905L193.125 513.813L199.242 512.209L208.15 496.769L206.487 490.711L191.047 481.803L184.989 483.407L176.081 498.847Z" fill="#FF4C16"/>
<path d="M182.495 541.131L191.403 525.69L189.8 519.633L174.359 510.725L168.302 512.328L159.394 527.769L160.997 533.886L176.438 542.793L182.495 541.131Z" fill="#FF4C16"/>
<path d="M174.715 554.611L173.112 548.554L157.671 539.646L151.614 541.249L142.706 556.69L144.309 562.807L159.75 571.715L165.807 570.052L174.715 554.611Z" fill="#FF4C16"/>
<path d="M493.74 101.61L506.39 114.26L512.685 114.26L525.274 101.61L525.274 95.3155L512.685 82.7255L506.39 82.7255L493.74 95.3155L493.74 101.61Z" fill="#FF4C16"/>
<path d="M482.754 106.361L470.164 118.951L470.164 125.246L482.754 137.836L489.049 137.836L501.639 125.246L501.639 118.951L489.049 106.361L482.754 106.361Z" fill="#FF4C16"/>
<path d="M459.118 129.997L446.528 142.587L446.528 148.882L459.118 161.472L465.413 161.472L478.003 148.882L478.003 142.587L465.413 129.997L459.118 129.997Z" fill="#FF4C16"/>
<path d="M454.426 166.223L441.777 153.574L435.482 153.574L422.892 166.223L422.892 172.518L435.482 185.108L441.777 185.108L454.426 172.518L454.426 166.223Z" fill="#FF4C16"/>
<path d="M399.256 196.095L411.905 208.744L418.2 208.744L430.79 196.095L430.79 189.8L418.2 177.21L411.905 177.21L399.256 189.8L399.256 196.095Z" fill="#FF4C16"/>
<path d="M375.68 219.73L388.27 232.32L394.565 232.32L407.155 219.73L407.155 213.435L394.565 200.845L388.27 200.845L375.68 213.435L375.68 219.73Z" fill="#FF4C16"/>
<path d="M219.79 407.154L232.38 394.505L232.38 388.21L219.79 375.62L213.495 375.62L200.845 388.21L200.845 394.505L213.495 407.154L219.79 407.154Z" fill="#FF4C16"/>
<path d="M177.269 418.141L189.859 430.731L196.154 430.731L208.744 418.141L208.744 411.846L196.154 399.256L189.859 399.256L177.269 411.846L177.269 418.141Z" fill="#FF4C16"/>
<path d="M153.633 441.777L166.223 454.367L172.518 454.367L185.108 441.777L185.108 435.482L172.518 422.892L166.223 422.892L153.633 435.482L153.633 441.777Z" fill="#FF4C16"/>
<path d="M148.882 478.003L161.532 465.413L161.532 459.118L148.882 446.468L142.587 446.468L129.997 459.118L129.997 465.413L142.587 478.003L148.882 478.003Z" fill="#FF4C16"/>
<path d="M125.306 501.639L137.896 488.989L137.896 482.694L125.306 470.104L119.011 470.104L106.361 482.694L106.361 488.989L119.011 501.639L125.306 501.639Z" fill="#FF4C16"/>
<path d="M114.26 506.33L101.67 493.74L95.3749 493.74L82.7849 506.33L82.7849 512.625L95.3749 525.215L101.67 525.215L114.26 512.625L114.26 506.33Z" fill="#FF4C16"/>
<path d="M539.705 157.612L548.613 173.053L554.671 174.715L570.111 165.807L571.715 159.691L562.807 144.25L556.749 142.647L541.309 151.555L539.705 157.612Z" fill="#FF4C16"/>
<path d="M527.828 159.334L512.388 168.242L510.725 174.359L519.633 189.8L525.75 191.403L541.19 182.495L542.794 176.438L533.886 160.997L527.828 159.334Z" fill="#FF4C16"/>
<path d="M498.847 176.081L483.466 184.989L481.803 191.047L490.711 206.487L496.828 208.091L512.209 199.183L513.872 193.125L504.964 177.685L498.847 176.081Z" fill="#FF4C16"/>
<path d="M469.926 192.769L454.545 201.677L452.882 207.734L461.79 223.175L467.907 224.778L483.288 215.87L484.951 209.813L476.043 194.372L469.926 192.769Z" fill="#FF4C16"/>
<path d="M423.961 224.422L432.869 239.862L438.926 241.525L454.367 232.617L456.03 226.5L447.122 211.06L441.005 209.457L425.564 218.365L423.961 224.422Z" fill="#FF4C16"/>
<path d="M395.04 241.169L403.948 256.609L410.005 258.213L425.446 249.305L427.108 243.248L418.2 227.807L412.084 226.144L396.643 235.052L395.04 241.169Z" fill="#FF4C16"/>
<path d="M195.916 381.796L211.357 372.888L213.02 366.831L204.112 351.39L197.995 349.787L182.554 358.695L180.951 364.752L189.859 380.193L195.916 381.796Z" fill="#FF4C16"/>
<path d="M152.03 381.44L160.938 396.881L166.995 398.484L182.436 389.576L184.098 383.519L175.19 368.078L169.074 366.475L153.633 375.383L152.03 381.44Z" fill="#FF4C16"/>
<path d="M138.074 415.231L153.514 406.323L155.118 400.206L146.21 384.766L140.152 383.162L124.712 392.07L123.108 398.128L132.016 413.568L138.074 415.231Z" fill="#FF4C16"/>
<path d="M109.153 431.919L124.593 423.011L126.197 416.953L117.289 401.513L111.231 399.85L95.7906 408.758L94.1871 414.875L103.095 430.315L109.153 431.919Z" fill="#FF4C16"/>
<path d="M80.2312 448.606L95.6718 439.698L97.2752 433.641L88.3672 418.2L82.3098 416.597L66.8692 425.505L65.2065 431.562L74.1144 447.003L80.2312 448.606Z" fill="#FF4C16"/>
<path d="M68.3539 450.329L59.4459 434.888L53.3885 433.285L37.948 442.193L36.2852 448.25L45.1932 463.691L51.31 465.294L66.7505 456.386L68.3539 450.329Z" fill="#FF4C16"/>
<path d="M569.517 223.591L574.15 240.813L579.613 243.96L596.776 239.387L599.923 233.924L595.351 216.702L589.887 213.554L572.665 218.186L569.517 223.591Z" fill="#FF4C16"/>
<path d="M563.044 225.372L557.64 222.225L540.418 226.797L537.271 232.261L541.843 249.483L547.307 252.631L564.529 247.998L567.676 242.535L563.044 225.372Z" fill="#FF4C16"/>
<path d="M530.797 233.983L525.334 230.836L508.112 235.468L504.964 240.931L509.596 258.094L515.06 261.242L532.282 256.669L535.43 251.205L530.797 233.983Z" fill="#FF4C16"/>
<path d="M498.55 242.654L493.087 239.506L475.865 244.079L472.717 249.542L477.349 266.765L482.813 269.912L499.976 265.28L503.123 259.876L498.55 242.654Z" fill="#FF4C16"/>
<path d="M466.244 251.265L460.84 248.117L443.618 252.749L440.47 258.213L445.043 275.435L450.507 278.583L467.729 273.95L470.876 268.487L466.244 251.265Z" fill="#FF4C16"/>
<path d="M433.997 259.935L428.534 256.788L411.312 261.42L408.164 266.824L412.796 284.046L418.26 287.194L435.482 282.621L438.629 277.157L433.997 259.935Z" fill="#FF4C16"/>
<path d="M174.003 348.065L179.466 351.212L196.688 346.58L199.836 341.117L195.204 323.895L189.8 320.747L172.577 325.379L169.43 330.843L174.003 348.065Z" fill="#FF4C16"/>
<path d="M141.756 356.676L147.219 359.823L164.441 355.251L167.589 349.787L162.957 332.565L157.493 329.417L140.271 333.99L137.124 339.454L141.756 356.676Z" fill="#FF4C16"/>
<path d="M109.509 365.346L114.972 368.494L132.135 363.862L135.283 358.398L130.71 341.176L125.246 338.029L108.024 342.661L104.877 348.124L109.509 365.346Z" fill="#FF4C16"/>
<path d="M77.2026 373.957L82.6661 377.105L99.8882 372.532L103.036 367.069L98.4036 349.846L92.9994 346.699L75.7773 351.331L72.6297 356.795L77.2026 373.957Z" fill="#FF4C16"/>
<path d="M44.9556 382.628L50.4192 385.775L67.6413 381.143L70.7888 375.68L66.1567 358.517L60.693 355.369L43.471 359.942L40.3235 365.406L44.9556 382.628Z" fill="#FF4C16"/>
<path d="M38.4825 384.35L33.9097 367.128L28.4462 363.98L11.224 368.613L8.07658 374.076L12.7087 391.239L18.1723 394.446L35.335 389.814L38.4825 384.35Z" fill="#FF4C16"/>
<path d="M581.276 312.908L585.73 317.362L603.546 317.362L608 312.908L608 295.092L603.546 290.638L585.73 290.638L581.276 295.092L581.276 312.908Z" fill="#FF4C16"/>
<path d="M547.901 312.908L552.295 317.362L570.111 317.362L574.625 312.908L574.625 295.092L570.111 290.638L552.295 290.638L547.901 295.092L547.901 312.908Z" fill="#FF4C16"/>
<path d="M514.466 312.908L518.92 317.362L536.736 317.362L541.19 312.908L541.19 295.092L536.736 290.638L518.92 290.638L514.466 295.092L514.466 312.908Z" fill="#FF4C16"/>
<path d="M481.031 312.908L485.545 317.362L503.361 317.362L507.755 312.908L507.755 295.092L503.361 290.638L485.545 290.638L481.031 295.092L481.031 312.908Z" fill="#FF4C16"/>
<path d="M447.656 312.908L452.11 317.362L469.926 317.362L474.38 312.908L474.38 295.092L469.926 290.638L452.11 290.638L447.656 295.092L447.656 312.908Z" fill="#FF4C16"/>
<path d="M414.281 312.908L418.676 317.362L436.491 317.362L441.005 312.908L441.005 295.092L436.491 290.638L418.676 290.638L414.281 295.092L414.281 312.908Z" fill="#FF4C16"/>
<path d="M193.778 295.092L189.324 290.638L171.508 290.638L167.054 295.092L167.054 312.908L171.508 317.362L189.324 317.362L193.778 312.908L193.778 295.092Z" fill="#FF4C16"/>
<path d="M160.344 295.092L155.949 290.638L138.133 290.638L133.62 295.092L133.62 312.908L138.133 317.362L155.949 317.362L160.344 312.908L160.344 295.092Z" fill="#FF4C16"/>
<path d="M126.969 295.092L122.515 290.638L104.699 290.638L100.245 295.092L100.245 312.908L104.699 317.362L122.515 317.362L126.969 312.908L126.969 295.092Z" fill="#FF4C16"/>
<path d="M93.5932 295.092L89.0799 290.638L71.2639 290.638L66.8692 295.092L66.8692 312.908L71.2639 317.362L89.0799 317.362L93.5932 312.908L93.5932 295.092Z" fill="#FF4C16"/>
<path d="M60.1586 295.092L55.7046 290.638L37.8886 290.638L33.4346 295.092L33.4346 312.908L37.8886 317.362L55.7046 317.362L60.1586 312.908L60.1586 295.092Z" fill="#FF4C16"/>
<path d="M26.7239 295.092L22.3293 290.638L4.51335 290.638L-1.28989e-05 295.092L-1.36776e-05 312.908L4.51335 317.362L22.3293 317.362L26.7239 312.908L26.7239 295.092Z" fill="#FF4C16"/>
</svg>
