<svg width="24" height="24" viewBox="0 0 24 24" fill="none" xmlns="http://www.w3.org/2000/svg">
<mask id="mask0_1_756" style="mask-type:alpha" maskUnits="userSpaceOnUse" x="0" y="0" width="24" height="24">
<rect width="24" height="24" fill="#D9D9D9"/>
</mask>
<g mask="url(#mask0_1_756)">
<path d="M11.423 18.625H12.923V17.625H14.173C14.3858 17.625 14.5641 17.5532 14.7078 17.4095C14.8513 17.266 14.923 17.0878 14.923 16.875V13.875C14.923 13.6622 14.8513 13.484 14.7078 13.3405C14.5641 13.1968 14.3858 13.125 14.173 13.125H10.923V11.625H14.923V10.125H12.923V9.125H11.423V10.125H10.173C9.96017 10.125 9.782 10.1968 9.6385 10.3405C9.49483 10.484 9.423 10.6622 9.423 10.875V13.875C9.423 14.0878 9.49483 14.266 9.6385 14.4095C9.782 14.5532 9.96017 14.625 10.173 14.625H13.423V16.125H9.423V17.625H11.423V18.625ZM6.30775 21.5C5.80258 21.5 5.375 21.325 5.025 20.975C4.675 20.625 4.5 20.1974 4.5 19.6923V4.30775C4.5 3.80258 4.675 3.375 5.025 3.025C5.375 2.675 5.80258 2.5 6.30775 2.5H14.25L19.5 7.75V19.6923C19.5 20.1974 19.325 20.625 18.975 20.975C18.625 21.325 18.1974 21.5 17.6923 21.5H6.30775ZM13.5 7.8845V4H6.30775C6.23075 4 6.16025 4.03208 6.09625 4.09625C6.03208 4.16025 6 4.23075 6 4.30775V19.6923C6 19.7693 6.03208 19.8398 6.09625 19.9038C6.16025 19.9679 6.23075 20 6.30775 20H17.6923C17.7692 20 17.8398 19.9679 17.9038 19.9038C17.9679 19.8398 18 19.7693 18 19.6923V7.8845H13.5Z" fill="#FF4C16"/>
</g>
</svg>
