<svg width="60" height="60" viewBox="0 0 60 60" fill="none" xmlns="http://www.w3.org/2000/svg">
<path d="M20.6602 53.4295L22 52.2303L23.3398 53.4295C25.1914 55.0897 27.5507 55.9998 30 55.9998C32.4493 55.9998 34.8203 55.0896 36.6602 53.4295L38 52.2303L39.3398 53.4295C41.4609 55.3279 44.1796 56.2186 47 55.949C52.0508 55.4607 56 50.9295 56 45.629V10C56 6.6914 53.3086 4 50 4H10C6.6914 4 4 6.6914 4 10V45.641C4 50.9301 7.9609 55.4613 13 55.961C15.8203 56.2305 18.5391 55.3399 20.6602 53.4415V53.4295ZM40.0002 21.9995V7.9995H50.0002C51.1018 7.9995 52.0002 8.89794 52.0002 9.9995V23.9995C52.0002 27.3081 49.3088 29.9995 46.0002 29.9995C42.6916 29.9995 40.0002 27.3081 40.0002 23.9995V21.9995ZM40.0002 36.9995V31.98C41.6721 33.2417 43.7502 33.9995 46.0002 33.9995C48.2502 33.9995 50.3283 33.2378 52.0002 31.98V46C52.0002 49.5703 48.8713 52.4219 45.2111 51.9492C42.1916 51.5586 40.0002 48.8398 40.0002 45.789V36.9995ZM24.0002 21.9995V7.9995H36.0002V23.9995C36.0002 27.3081 33.3088 29.9995 30.0002 29.9995C26.6916 29.9995 24.0002 27.3081 24.0002 23.9995V21.9995ZM24.0002 36.9995V31.98C25.6721 33.2417 27.7502 33.9995 30.0002 33.9995C32.2502 33.9995 34.3283 33.2378 36.0002 31.98V46C36.0002 49.3086 33.3088 52 30.0002 52C26.6916 52 24.0002 49.3086 24.0002 46V36.9995ZM8.0002 21.9995V9.9995C8.0002 8.8979 8.89864 7.9995 10.0002 7.9995H20.0002V23.9995C20.0002 27.3081 17.3088 29.9995 14.0002 29.9995C10.6916 29.9995 8.0002 27.3081 8.0002 23.9995V21.9995ZM8.0002 45.9995V31.9795C9.6721 33.2412 11.7502 33.999 14.0002 33.999C16.2502 33.999 18.3283 33.2373 20.0002 31.9795V45.7885C20.0002 48.8393 17.8088 51.558 14.7893 51.9487C11.1291 52.4175 8.0002 49.5698 8.0002 45.9995Z" fill="#F6F6F4"/>
</svg>
