<svg width="60" height="60" viewBox="0 0 60 60" fill="none" xmlns="http://www.w3.org/2000/svg">
<path d="M57.9882 28.0215H49.9508L49.6501 26.3813C49.1385 23.6006 48.0606 21.023 46.4593 18.6915L45.5103 17.3207L51.0404 11.7906C51.8488 10.9822 51.962 9.64265 51.2786 8.88101C50.9076 8.47093 50.3999 8.2327 49.8375 8.20927C49.2478 8.20927 48.7596 8.40845 48.369 8.78727L42.6788 14.4775L41.308 13.5285C38.9804 11.9194 36.3871 10.8493 33.6182 10.3377L31.9779 10.037V1.99958C31.9779 0.898213 31.0797 0 29.9783 0C28.877 0 27.9787 0.898253 27.9787 1.99958V10.037L26.3385 10.3377C23.5696 10.8493 20.9802 11.9272 18.6487 13.5285L17.2779 14.4775L11.7478 8.94743C10.9277 8.1273 9.59988 8.02575 8.83824 8.70921C8.42816 9.08022 8.18993 9.58793 8.1665 10.1503C8.15478 10.701 8.35786 11.2204 8.74449 11.6188L15.3837 18.2971C15.8328 18.7579 16.4421 19.0079 17.0826 19.0079H17.3716C17.9808 19.0079 18.5901 18.7462 19.1017 18.2776C22.062 15.5282 25.9206 14.0168 29.9584 14.0168C30.8098 14.0168 31.6769 14.0871 32.5282 14.2159C39.5579 15.3251 45.0256 21.0543 45.8264 28.143C46.3458 32.6929 44.9047 37.2505 41.8663 40.6524C38.8279 44.0501 34.4773 46.0029 29.9278 46.0029C28.8265 46.0029 27.9283 46.9012 27.9283 48.0025V58.0004C27.9283 59.1018 28.8265 60 29.9278 60C31.0292 60 31.9274 59.1017 31.9274 58.0004V49.963L33.5677 49.6623C36.3366 49.1507 38.926 48.0728 41.2575 46.4715L42.6283 45.5225L48.1583 51.0526C48.9785 51.861 50.3063 51.9743 51.0679 51.2908C51.478 50.9198 51.7162 50.4121 51.7397 49.8497C51.7514 49.299 51.5483 48.7796 51.1617 48.3812L45.4715 42.691L46.4205 41.3202C48.0295 38.9926 49.0996 36.411 49.6112 33.6304L49.9119 31.9901H57.9494C59.0507 31.9901 59.9489 31.0919 59.9489 29.9905C59.9489 28.8892 59.0507 27.991 57.9494 27.991L57.9882 28.0215Z" fill="#F6F6F4"/>
<path d="M9.53476e-06 39.3781C9.53476e-06 41.3894 1.62857 43.018 3.63985 43.018H13.7977L9.1776 53.1878C8.95889 53.676 8.93936 54.2188 9.12682 54.7187C9.31819 55.2186 9.6853 55.617 10.1657 55.8396C11.1343 56.2809 12.3761 55.8201 12.8136 54.8515L17.6641 44.1737C17.8828 43.6934 17.9922 43.1935 17.9922 42.6624C17.9922 40.6511 16.3636 39.0225 14.3524 39.0225H4.19447L8.81461 28.8526C9.03331 28.3645 9.05284 27.8217 8.86538 27.3218C8.67401 26.8219 8.30691 26.4235 7.8265 26.2009C7.56483 26.0798 7.28755 26.0212 7.00636 26.0212C6.21746 26.0212 5.50667 26.4821 5.17864 27.1929L0.328051 37.8707C0.109346 38.351 0 38.8509 0 39.3821L9.53476e-06 39.3781Z" fill="#F6F6F4"/>
</svg>
