<svg width="60" height="60" viewBox="0 0 60 60" fill="none" xmlns="http://www.w3.org/2000/svg">
<g clip-path="url(#clip0_1_573)">
<path d="M58.0377 28.0215H49.9935L49.6925 26.3813C49.1804 23.6006 48.1017 21.023 46.499 18.6915L45.5492 17.3207L51.084 11.7906C51.8931 10.9822 52.0064 9.64265 51.3224 8.88101C50.9511 8.47093 50.4429 8.2327 49.8801 8.20927C49.2898 8.20927 48.8013 8.40845 48.4103 8.78727L42.7153 14.4775L41.3433 13.5285C39.0137 11.9194 36.4182 10.8493 33.6469 10.3377L32.0053 10.037V1.99958C32.0053 0.898213 31.1063 0 30.004 0C28.9017 0 28.0027 0.898253 28.0027 1.99958V10.037L26.361 10.3377C23.5898 10.8493 20.9982 11.9272 18.6647 13.5285L17.2927 14.4775L11.758 8.94743C10.9371 8.1273 9.60818 8.02575 8.84589 8.70921C8.43547 9.08022 8.19703 9.58793 8.17358 10.1503C8.16185 10.701 8.36511 11.2204 8.75207 11.6188L15.3969 18.2971C15.8464 18.7579 16.4562 19.0079 17.0972 19.0079H17.3865C17.9962 19.0079 18.6061 18.7462 19.1181 18.2776C22.0809 15.5282 25.9428 14.0168 29.9841 14.0168C30.8362 14.0168 31.704 14.0871 32.556 14.2159C39.5917 15.3251 45.0641 21.0543 45.8656 28.143C46.3854 32.6929 44.9431 37.2505 41.9021 40.6524C38.8611 44.0501 34.5068 46.0029 29.9535 46.0029C28.8511 46.0029 27.9522 46.9012 27.9522 48.0025V58.0004C27.9522 59.1018 28.8512 60 29.9535 60C31.0558 60 31.9547 59.1017 31.9547 58.0004V49.963L33.5964 49.6623C36.3677 49.1507 38.9592 48.0728 41.2927 46.4715L42.6647 45.5225L48.1995 51.0526C49.0203 51.861 50.3493 51.9743 51.1115 51.2908C51.522 50.9198 51.7604 50.4121 51.7839 49.8497C51.7956 49.299 51.5923 48.7796 51.2054 48.3812L45.5103 42.691L46.4601 41.3202C48.0706 38.9926 49.1416 36.411 49.6536 33.6304L49.9546 31.9901H57.9988C59.1011 31.9901 60.0001 31.0919 60.0001 29.9905C60.0001 28.8892 59.1011 27.991 57.9988 27.991L58.0377 28.0215Z" fill="#FF4C16"/>
<path d="M9.54287e-06 39.3781C9.54287e-06 41.3893 1.62996 43.0179 3.64295 43.0179H13.8095L9.18541 53.1878C8.96652 53.676 8.94698 54.2188 9.1346 54.7187C9.32613 55.2186 9.69355 55.6169 10.1744 55.8395C11.1437 56.2808 12.3867 55.82 12.8245 54.8515L17.6792 44.1737C17.8981 43.6933 18.0075 43.1934 18.0075 42.6623C18.0075 40.651 16.3776 39.0225 14.3646 39.0225H4.19804L8.82212 28.8526C9.04101 28.3644 9.06055 27.8216 8.87293 27.3217C8.6814 26.8218 8.31398 26.4234 7.83316 26.2008C7.57127 26.0798 7.29376 26.0212 7.01233 26.0212C6.22276 26.0212 5.51136 26.482 5.18305 27.1928L0.32833 37.8706C0.10944 38.351 0 38.8509 0 39.382L9.54287e-06 39.3781Z" fill="#FF4C16"/>
</g>
<defs>
<clipPath id="clip0_1_573">
<rect width="60" height="60" fill="white"/>
</clipPath>
</defs>
</svg>
