<svg width="120" height="120" viewBox="0 0 120 120" fill="none" xmlns="http://www.w3.org/2000/svg">
<path d="M120 22.4182C120 20.2958 119.157 18.2604 117.656 16.76L103.231 2.34185C101.731 0.842351 99.6964 0 97.5753 0L22.4248 0C20.3037 0 18.2694 0.842351 16.7692 2.34185L2.34444 16.76C0.843358 18.2604 0 20.2958 0 22.4182L0 97.5818C0 99.7042 0.843359 101.74 2.34444 103.24L16.7692 117.658C18.2694 119.158 20.3037 120 22.4248 120L97.5753 120C99.6964 120 101.731 119.158 103.231 117.658L117.656 103.24C119.157 101.74 120 99.7042 120 97.5818L120 22.4182Z" fill="#F6F6F4"/>
<path d="M50.9082 45.79H44.0332V51.1067H50.9082V45.79Z" fill="#FF4C16"/>
<path d="M39.6924 55.7484H55.2591C55.8841 55.7484 56.4008 55.2401 56.4008 54.6067V42.2984C56.4008 41.6734 55.8924 41.1567 55.2591 41.1567H39.6924C39.0674 41.1567 38.5508 41.6651 38.5508 42.2984V54.6067C38.5508 55.2401 39.0591 55.7484 39.6924 55.7484ZM42.3674 45.5067C42.3674 44.7484 42.9841 44.1317 43.7424 44.1317H51.1924C51.9508 44.1317 52.5674 44.7484 52.5674 45.5067V51.3984C52.5674 52.1567 51.9508 52.7734 51.1924 52.7734H43.7424C42.9841 52.7734 42.3674 52.1567 42.3674 51.3984V45.5067Z" fill="#FF4C16"/>
<path d="M48.4095 33.8402C47.9678 33.1652 46.9762 33.1652 46.5345 33.8402L42.8262 39.4986H52.1095L48.4095 33.8402Z" fill="#FF4C16"/>
<path d="M59.2176 84.8986H56.3926V79.8403C56.3926 79.2986 55.9509 78.8569 55.4092 78.8569H39.5342C38.9926 78.8569 38.5509 79.2986 38.5509 79.8403V84.8986H35.7259C35.2676 84.8986 34.8926 85.2736 34.8926 85.7319C34.8926 86.1903 35.2676 86.5653 35.7259 86.5653H59.2259C59.6842 86.5653 60.0592 86.1903 60.0592 85.7319C60.0592 85.2736 59.6842 84.8986 59.2176 84.8986Z" fill="#FF4C16"/>
<path d="M58.0566 51.7314V53.2647H64.4566L61.015 45.623L58.0566 51.7314Z" fill="#FF4C16"/>
<path d="M66.3008 53.2564H73.4341L70.0008 45.623L66.3008 53.2564Z" fill="#FF4C16"/>
<path d="M61.9688 43.6479L65.4021 51.2896L69.1104 43.6479H61.9688Z" fill="#FF4C16"/>
<path d="M74.4164 51.3729L78.5414 43.6479H70.9414L74.4164 51.3729Z" fill="#FF4C16"/>
<path d="M83.9263 53.2573C84.343 53.2573 84.6013 52.8073 84.4013 52.449L79.9763 44.5073L75.293 53.2573H83.9263Z" fill="#FF4C16"/>
<path d="M60.1233 43.6479H58.0566V47.9146L60.1233 43.6479Z" fill="#FF4C16"/>
<path d="M34.691 52.8896H36.8827V44.0229H34.691C34.3993 44.0229 34.166 44.2563 34.166 44.5563V52.3646C34.166 52.6563 34.3993 52.8896 34.691 52.8896Z" fill="#FF4C16"/>
<path d="M44.5664 57.415L47.4747 60.34L50.3747 57.415H44.5664Z" fill="#FF4C16"/>
<path d="M47.4724 71.8982L52.0307 67.2982L47.4724 62.7065L42.9141 67.2982L47.4724 71.8982Z" fill="#FF4C16"/>
<path d="M53.2009 57.415H52.7259L48.6426 61.5234L53.2009 66.115V57.415Z" fill="#FF4C16"/>
<path d="M41.7324 77.1902H42.2158L46.2908 73.0819L41.7324 68.4902V77.1902Z" fill="#FF4C16"/>
<path d="M53.2009 77.1902V68.4902L48.6426 73.0819L52.7176 77.1902H53.2009Z" fill="#FF4C16"/>
<path d="M47.4664 74.2646L44.5664 77.1896H50.3664L47.4664 74.2646Z" fill="#FF4C16"/>
<path d="M41.7324 57.415V66.1234L46.2991 61.5234L42.2158 57.415H41.7324Z" fill="#FF4C16"/>
<path d="M85.4392 67.4488L76.4226 59.7822V54.9238H74.7559V59.7738L65.7476 67.4488C65.3642 67.7738 65.5976 68.3988 66.0976 68.3988H85.0892C85.5892 68.3988 85.8226 67.7738 85.4392 67.4488Z" fill="#FF4C16"/>
<path d="M78.1656 77.79H73.024C72.6073 77.79 72.2656 78.1317 72.2656 78.5484V86.565H78.924V78.5484C78.924 78.1317 78.5823 77.79 78.1656 77.79Z" fill="#FF4C16"/>
<path d="M69.0005 41.9813H73.9089L50.1172 33.3979L51.6339 35.7146L69.0005 41.9813Z" fill="#FF4C16"/>
<path d="M82.8651 72.5991H68.3151C68.0151 72.5991 67.7734 72.8408 67.7734 73.1408V86.5658H70.5901V78.5491C70.5901 77.2158 71.6818 76.1241 73.0151 76.1241H78.1568C79.4984 76.1241 80.5818 77.2158 80.5818 78.5491V86.5658H83.3984V73.1408C83.4068 72.8408 83.1651 72.5991 82.8651 72.5991Z" fill="#FF4C16"/>
</svg>
