<svg width="120" height="120" viewBox="0 0 120 120" fill="none" xmlns="http://www.w3.org/2000/svg">
<path d="M120 22.4182C120 20.2958 119.157 18.2604 117.656 16.76L103.231 2.34185C101.731 0.842351 99.6964 0 97.5753 0L22.4248 0C20.3037 0 18.2694 0.842351 16.7692 2.34185L2.34444 16.76C0.843358 18.2604 0 20.2958 0 22.4182L0 97.5818C0 99.7042 0.843359 101.74 2.34444 103.24L16.7692 117.658C18.2694 119.158 20.3037 120 22.4248 120L97.5753 120C99.6964 120 101.731 119.158 103.231 117.658L117.656 103.24C119.157 101.74 120 99.7042 120 97.5818L120 22.4182Z" fill="#0D1318"/>
<path d="M67.9668 79.4C69.2455 79.9 70.5242 80.2 71.9012 80.4V74.4C70.5242 74.2 69.2455 73.9 67.9668 73.5V79.4Z" fill="#F6F6F4"/>
<path d="M67.9668 87.4C69.2455 87.9 70.5242 88.2 71.9012 88.4V82.4C70.5242 82.2 69.2455 81.9 67.9668 81.5V87.4Z" fill="#F6F6F4"/>
<path d="M67.9668 71.4C69.2455 71.9 70.5242 72.2 71.9012 72.4V66.4C70.5242 66.2 69.2455 65.9 67.9668 65.5V71.4Z" fill="#F6F6F4"/>
<path d="M73.8691 82.6006V88.6006C74.4593 88.6006 75.1478 88.7006 75.8364 88.7006C76.5249 88.7006 77.2134 88.7006 77.8036 88.6006V82.6006C77.115 82.6006 76.5249 82.7006 75.8364 82.7006C75.1478 82.7006 74.5577 82.7006 73.8691 82.6006Z" fill="#F6F6F4"/>
<path d="M67.9668 63.4C69.2455 63.9 70.5242 64.2 71.9012 64.4V58.4C70.5242 58.2 69.2455 57.9 67.9668 57.5V63.4Z" fill="#F6F6F4"/>
<path d="M64.0332 83.7004C64.0332 84.6004 64.7217 85.5004 66.0004 86.4004V80.7004C65.3119 80.3004 64.6234 79.9004 64.0332 79.4004V83.7004Z" fill="#F6F6F4"/>
<path d="M64.0332 59.7004C64.0332 60.6004 64.7217 61.5004 66.0004 62.4004V56.7004C65.3119 56.3004 64.6234 55.9004 64.0332 55.4004V59.7004Z" fill="#F6F6F4"/>
<path d="M73.8691 74.6006V80.6006C74.4593 80.6006 75.1478 80.7006 75.8364 80.7006C76.5249 80.7006 77.2134 80.7006 77.8036 80.6006V74.6006C77.115 74.6006 76.5249 74.7006 75.8364 74.7006C75.1478 74.7006 74.5577 74.7006 73.8691 74.6006Z" fill="#F6F6F4"/>
<path d="M64.0332 75.7004C64.0332 76.6004 64.7217 77.5004 66.0004 78.4004V72.7004C65.3119 72.3004 64.6234 71.9004 64.0332 71.4004V75.7004Z" fill="#F6F6F4"/>
<path d="M64.0332 67.7004C64.0332 68.6004 64.7217 69.5004 66.0004 70.4004V64.7004C65.3119 64.3004 64.6234 63.9004 64.0332 63.4004V67.7004Z" fill="#F6F6F4"/>
<path d="M85.6719 62.3998C86.9506 61.5998 87.6391 60.5998 87.6391 59.6998V55.2998C87.0489 55.7998 86.3604 56.1998 85.6719 56.5998V62.3998Z" fill="#F6F6F4"/>
<path d="M85.6719 78.3998C86.9506 77.5998 87.6391 76.5998 87.6391 75.6998V71.2998C87.0489 71.7998 86.3604 72.1998 85.6719 72.5998V78.3998Z" fill="#F6F6F4"/>
<path d="M85.6719 86.3998C86.9506 85.5998 87.6391 84.5998 87.6391 83.6998V79.2998C87.0489 79.7998 86.3604 80.1998 85.6719 80.5998V86.3998Z" fill="#F6F6F4"/>
<path d="M79.7695 64.4C81.1466 64.2 82.4253 63.8 83.704 63.4V57.5C82.4253 57.9 81.1466 58.3 79.7695 58.4V64.4Z" fill="#F6F6F4"/>
<path d="M85.6719 70.3998C86.9506 69.5998 87.6391 68.5998 87.6391 67.6998V63.2998C87.0489 63.7998 86.3604 64.1998 85.6719 64.5998V70.3998Z" fill="#F6F6F4"/>
<path d="M75.8365 56.7002C82.3553 56.7002 87.6398 54.4616 87.6398 51.7002C87.6398 48.9388 82.3553 46.7002 75.8365 46.7002C69.3177 46.7002 64.0332 48.9388 64.0332 51.7002C64.0332 54.4616 69.3177 56.7002 75.8365 56.7002Z" fill="#F6F6F4"/>
<path d="M73.8691 66.6006V72.6006C74.4593 72.6006 75.1478 72.7006 75.8364 72.7006C76.5249 72.7006 77.2134 72.7006 77.8036 72.6006V66.6006C77.115 66.6006 76.5249 66.7006 75.8364 66.7006C75.1478 66.7006 74.5577 66.7006 73.8691 66.6006Z" fill="#F6F6F4"/>
<path d="M79.7695 72.4C81.1466 72.2 82.4253 71.8 83.704 71.4V65.5C82.4253 65.9 81.1466 66.3 79.7695 66.4V72.4Z" fill="#F6F6F4"/>
<path d="M79.7695 88.4C81.1466 88.2 82.4253 87.8 83.704 87.4V81.5C82.4253 81.9 81.1466 82.3 79.7695 82.4V88.4Z" fill="#F6F6F4"/>
<path d="M73.8691 58.6006V64.6006C74.4593 64.6006 75.1478 64.7006 75.8364 64.7006C76.5249 64.7006 77.2134 64.7006 77.8036 64.6006V58.6006C77.115 58.6006 76.5249 58.7006 75.8364 58.7006C75.1478 58.7006 74.5577 58.7006 73.8691 58.6006Z" fill="#F6F6F4"/>
<path d="M79.7695 80.4C81.1466 80.2 82.4253 79.8 83.704 79.4V73.5C82.4253 73.9 81.1466 74.3 79.7695 74.4V80.4Z" fill="#F6F6F4"/>
<path d="M42.3926 66.6006V72.6006C42.9827 72.6006 43.6713 72.7006 44.3598 72.7006C45.0483 72.7006 45.7368 72.7006 46.327 72.6006V66.6006C45.6385 66.6006 45.0483 66.7006 44.3598 66.7006C43.6713 66.7006 43.0811 66.7006 42.3926 66.6006Z" fill="#F6F6F4"/>
<path d="M42.3926 74.6006V80.6006C42.9827 80.6006 43.6713 80.7006 44.3598 80.7006C45.0483 80.7006 45.7368 80.7006 46.327 80.6006V74.6006C45.6385 74.6006 45.0483 74.7006 44.3598 74.7006C43.6713 74.7006 43.0811 74.7006 42.3926 74.6006Z" fill="#F6F6F4"/>
<path d="M42.3926 82.6006V88.6006C42.9827 88.6006 43.6713 88.7006 44.3598 88.7006C45.0483 88.7006 45.7368 88.7006 46.327 88.6006V82.6006C45.6385 82.6006 45.0483 82.7006 44.3598 82.7006C43.6713 82.7006 43.0811 82.7006 42.3926 82.6006Z" fill="#F6F6F4"/>
<path d="M36.4922 79.4C37.7709 79.9 39.0496 80.2 40.4266 80.4V74.4C39.0496 74.2 37.7709 73.9 36.4922 73.5V79.4Z" fill="#F6F6F4"/>
<path d="M36.4922 87.4C37.7709 87.9 39.0496 88.2 40.4266 88.4V82.4C39.0496 82.2 37.7709 81.9 36.4922 81.5V87.4Z" fill="#F6F6F4"/>
<path d="M32.5566 83.7004C32.5566 84.6004 33.2452 85.5004 34.5239 86.4004V80.7004C33.8353 80.3004 33.1468 79.9004 32.5566 79.4004V83.7004Z" fill="#F6F6F4"/>
<path d="M32.5566 67.7004C32.5566 68.6004 33.2452 69.5004 34.5239 70.4004V64.7004C33.8353 64.3004 33.1468 63.9004 32.5566 63.4004V67.7004Z" fill="#F6F6F4"/>
<path d="M32.5566 75.7004C32.5566 76.6004 33.2452 77.5004 34.5239 78.4004V72.7004C33.8353 72.3004 33.1468 71.9004 32.5566 71.4004V75.7004Z" fill="#F6F6F4"/>
<path d="M36.4922 71.4C37.7709 71.9 39.0496 72.2 40.4266 72.4V66.4C39.0496 66.2 37.7709 65.9 36.4922 65.5V71.4Z" fill="#F6F6F4"/>
<path d="M48.2949 88.4C49.672 88.2 50.9507 87.8 52.2293 87.4V81.5C50.9507 81.9 49.672 82.3 48.2949 82.4V88.4Z" fill="#F6F6F4"/>
<path d="M54.1973 70.3998C55.476 69.5998 56.1645 68.5998 56.1645 67.6998V63.2998C55.5743 63.7998 54.8858 64.1998 54.1973 64.5998V70.3998Z" fill="#F6F6F4"/>
<path d="M44.3599 64.7002C50.8787 64.7002 56.1632 62.4616 56.1632 59.7002C56.1632 56.9388 50.8787 54.7002 44.3599 54.7002C37.8411 54.7002 32.5566 56.9388 32.5566 59.7002C32.5566 62.4616 37.8411 64.7002 44.3599 64.7002Z" fill="#F6F6F4"/>
<path d="M54.1973 78.3998C55.476 77.5998 56.1645 76.5998 56.1645 75.6998V71.2998C55.5743 71.7998 54.8858 72.1998 54.1973 72.5998V78.3998Z" fill="#F6F6F4"/>
<path d="M48.2949 80.4C49.672 80.2 50.9507 79.8 52.2293 79.4V73.5C50.9507 73.9 49.672 74.3 48.2949 74.4V80.4Z" fill="#F6F6F4"/>
<path d="M48.2949 72.4C49.672 72.2 50.9507 71.8 52.2293 71.4V65.5C50.9507 65.9 49.672 66.3 48.2949 66.4V72.4Z" fill="#F6F6F4"/>
<path d="M54.1973 86.3998C55.476 85.5998 56.1645 84.5998 56.1645 83.6998V79.2998C55.5743 79.7998 54.8858 80.1998 54.1973 80.5998V86.3998Z" fill="#F6F6F4"/>
<path d="M86.2623 36.7L83.0164 40L84.3934 41.4L90 35.7L84.3934 30L83.0164 31.4L86.2623 34.7H85.6721C65.5082 34.7 58.3279 46.2 56.6557 49.5C40.1311 43.9 30.3934 51.6 30 52L31.1803 53.6C31.2787 53.5 40.8197 46 56.7541 51.8L57.6393 52.1L58.0328 51.2C59.3115 48.4 61.2787 46 63.6393 44C67.4754 40.6 74.3607 36.7 85.6721 36.7H86.2623Z" fill="#F6F6F4"/>
<path d="M59.1137 36.7002H61.0809V34.7002H63.0481V32.7002H61.0809V30.7002H59.1137V32.7002H57.1465V34.7002H59.1137V36.7002Z" fill="#F6F6F4"/>
<path d="M41.4086 42.7002H43.3758V40.7002H45.343V38.7002H43.3758V36.7002H41.4086V38.7002H39.4414V40.7002H41.4086V42.7002Z" fill="#F6F6F4"/>
</svg>
