<svg width="60" height="58" viewBox="0 0 60 58" fill="none" xmlns="http://www.w3.org/2000/svg">
<path d="M60 10C60 4.4883 55.5117 0 50 0H44C40.6914 0 38 2.6914 38 6V12H24C24 5.3789 18.6211 0 12 0C5.3789 0 0 5.3789 0 12V46C0 52.6211 5.3789 58 12 58H49.988C55.4997 58 59.988 53.5117 59.988 48V10H60ZM12 54C7.5898 54 4 50.4102 4 46C4 41.5898 7.5898 38 12 38C16.4102 38 20 41.5898 20 46C20 50.4102 16.4102 54 12 54ZM20 37.078C17.8711 35.1678 15.0703 33.9999 12 33.9999C8.9297 33.9999 6.1289 35.1718 4 37.078V12C4 7.5898 7.5898 4 12 4C16.4102 4 20 7.5898 20 12V37.078ZM55.969 48.59C55.6799 51.6212 52.969 54.0002 49.8206 54.0002H20.9226C22.8328 51.8713 24.0007 49.0705 24.0007 46.0002V16.0002H38.0007V36.0002C38.0007 39.3088 40.6921 42.0002 44.0007 42.0002H50.0007C53.2898 42.0002 55.9695 44.6721 56.0007 47.9494C56.0007 48.1682 56.0003 48.3908 55.969 48.59ZM56.0003 40.0197C54.3284 38.758 52.2503 38.0002 50.0003 38.0002H44.0003C42.8987 38.0002 42.0003 37.1018 42.0003 36.0002V6.0002C42.0003 4.8986 42.8987 4.0002 44.0003 4.0002H50.0003C53.3089 4.0002 56.0003 6.6916 56.0003 10.0002V40.0197Z" fill="#F6F6F4"/>
</svg>
