<svg width="120" height="120" viewBox="0 0 120 120" fill="none" xmlns="http://www.w3.org/2000/svg">
<path d="M120 22.4182C120 20.2958 119.157 18.2604 117.656 16.76L103.231 2.34185C101.731 0.842351 99.6964 0 97.5753 0L22.4248 0C20.3037 0 18.2694 0.842351 16.7692 2.34185L2.34444 16.76C0.843358 18.2604 0 20.2958 0 22.4182L0 97.5818C0 99.7042 0.843359 101.74 2.34444 103.24L16.7692 117.658C18.2694 119.158 20.3037 120 22.4248 120L97.5753 120C99.6964 120 101.731 119.158 103.231 117.658L117.656 103.24C119.157 101.74 120 99.7042 120 97.5818L120 22.4182Z" fill="#F6F6F4"/>
<path d="M42.5665 79.8755H39.9082V86.1005H42.5665V79.8755Z" fill="#FF4C16"/>
<path d="M46.8908 79.8755H44.2324V86.1005H46.8908V79.8755Z" fill="#FF4C16"/>
<path d="M34.166 80.6746V85.308C34.166 85.7496 34.5243 86.108 34.966 86.108H38.241V79.883H34.966C34.5243 79.8746 34.166 80.233 34.166 80.6746Z" fill="#FF4C16"/>
<path d="M51.8316 79.8755H48.5566V86.1005H51.8316C52.2733 86.1005 52.6316 85.7422 52.6316 85.3005V80.6672C52.6316 80.2338 52.2733 79.8755 51.8316 79.8755Z" fill="#FF4C16"/>
<path d="M52.2151 42.1919V33.4336C51.7818 33.5419 51.3818 33.7669 51.0484 34.0836L43.1818 41.7503C42.8651 42.0753 42.6401 42.4669 42.5234 42.8919H51.5151C51.9068 42.8919 52.2151 42.5753 52.2151 42.1919Z" fill="#FF4C16"/>
<path d="M71.1315 42.0838L70.4982 43.5338C70.3648 43.8505 70.0565 44.0338 69.7315 44.0338C69.6232 44.0338 69.5065 44.0088 69.3982 43.9671C68.9732 43.7838 68.7815 43.2921 68.9732 42.8671L69.7148 41.1755C69.0148 40.8338 68.2648 40.6088 67.4648 40.5088V46.7171H73.6648C73.4315 44.8588 72.4982 43.2171 71.1315 42.0838Z" fill="#FF4C16"/>
<path d="M66.6224 48.3838C66.1641 48.3838 65.7891 48.0088 65.7891 47.5505V40.5088C62.2724 40.9255 59.5391 43.9171 59.5391 47.5505C59.5391 49.8005 60.5974 51.8088 62.2307 53.1088L62.9974 51.3588C63.1807 50.9421 63.6724 50.7421 64.0974 50.9338C64.5224 51.1171 64.7141 51.6088 64.5224 52.0338L63.6641 53.9921C64.5641 54.4088 65.5641 54.6505 66.6224 54.6505C70.2474 54.6505 73.2391 51.9088 73.6557 48.3921H66.6224V48.3838Z" fill="#FF4C16"/>
<path d="M69.6832 61.9835H80.8915V36.0752C80.8915 34.5585 79.6665 33.3335 78.1499 33.3335H53.8832V42.1918C53.8832 43.5002 52.8249 44.5585 51.5165 44.5585H42.4082V61.6252C42.7332 61.5918 43.0665 61.5752 43.3999 61.5752C48.9082 61.5752 53.3832 66.0585 53.3832 71.5585C53.3832 74.1168 52.4082 76.4418 50.8249 78.2085H51.8332C53.1915 78.2085 54.2999 79.3168 54.2999 80.6752V85.3085C54.2999 85.5918 54.2415 85.8502 54.1582 86.1085H67.1082C66.9415 85.7502 66.8415 85.3502 66.8415 84.9252V64.8335C66.8332 63.2585 68.1165 61.9835 69.6832 61.9835ZM64.6082 75.2752H54.8915C54.4332 75.2752 54.0582 74.9002 54.0582 74.4418C54.0582 73.9835 54.4332 73.6085 54.8915 73.6085H64.6082C65.0665 73.6085 65.4415 73.9835 65.4415 74.4418C65.4415 74.9002 65.0665 75.2752 64.6082 75.2752ZM64.6082 70.2252H54.8915C54.4332 70.2252 54.0582 69.8502 54.0582 69.3918C54.0582 68.9335 54.4332 68.5585 54.8915 68.5585H64.6082C65.0665 68.5585 65.4415 68.9335 65.4415 69.3918C65.4415 69.8502 65.0665 70.2252 64.6082 70.2252ZM64.6082 65.1752H54.8915C54.4332 65.1752 54.0582 64.8002 54.0582 64.3418C54.0582 63.8835 54.4332 63.5085 54.8915 63.5085H64.6082C65.0665 63.5085 65.4415 63.8835 65.4415 64.3418C65.4415 64.8002 65.0665 65.1752 64.6082 65.1752ZM66.6249 56.3085C65.3332 56.3085 64.1082 56.0168 62.9999 55.5085L62.4249 56.8168C62.2915 57.1168 61.9915 57.3168 61.6582 57.3168H56.6832C56.2249 57.3168 55.8499 56.9418 55.8499 56.4835C55.8499 56.0252 56.2249 55.6502 56.6832 55.6502H61.1165L61.5499 54.6668C59.3332 53.0752 57.8749 50.4835 57.8749 47.5418C57.8749 42.7168 61.7999 38.7835 66.6249 38.7835C67.9665 38.7835 69.2415 39.1002 70.3832 39.6418L71.0749 38.0668C71.2082 37.7668 71.5082 37.5668 71.8415 37.5668H76.8165C77.2749 37.5668 77.6499 37.9418 77.6499 38.4002C77.6499 38.8585 77.2749 39.2335 76.8165 39.2335H72.3832L71.8249 40.5085C73.9749 42.1085 75.3832 44.6585 75.3832 47.5418C75.3749 52.3835 71.4499 56.3085 66.6249 56.3085Z" fill="#FF4C16"/>
<path d="M51.7154 71.5584C51.7154 66.9667 47.9904 63.2417 43.3987 63.2417C38.807 63.2417 35.082 66.9667 35.082 71.5584C35.082 74.2834 36.3987 76.6917 38.4237 78.2084H48.3904C50.407 76.6917 51.7154 74.2834 51.7154 71.5584ZM43.3987 70.725C44.8237 70.725 45.9737 71.8834 45.9737 73.3084C45.9737 74.4334 45.2404 75.3917 44.2237 75.7334V76.0834C44.2237 76.5417 43.8487 76.9167 43.3904 76.9167C42.932 76.9167 42.557 76.5417 42.557 76.0834V75.7334C41.5404 75.3834 40.807 74.4334 40.807 73.3084C40.807 72.85 41.182 72.475 41.6404 72.475C42.0987 72.475 42.4737 72.85 42.4737 73.3084C42.4737 73.8 42.8654 74.1917 43.357 74.2167C43.3654 74.2167 43.3737 74.2084 43.3904 74.2084C43.3987 74.2084 43.407 74.2167 43.4237 74.2167C43.9154 74.2 44.307 73.8 44.307 73.3084C44.307 72.8 43.8987 72.3917 43.3987 72.3917C41.9737 72.3917 40.8154 71.2334 40.8154 69.8167C40.8154 68.6834 41.5487 67.7334 42.5654 67.3834V67.0334C42.5654 66.575 42.9404 66.2 43.3987 66.2C43.857 66.2 44.232 66.575 44.232 67.0334V67.3834C45.2404 67.7334 45.982 68.6834 45.982 69.8167C45.982 70.275 45.607 70.65 45.1487 70.65C44.6904 70.65 44.3154 70.275 44.3154 69.8167C44.3154 69.325 43.9237 68.925 43.432 68.9084C43.4237 68.9084 43.4154 68.9167 43.3987 68.9167C43.3904 68.9167 43.382 68.9084 43.3654 68.9084C42.8737 68.925 42.482 69.325 42.482 69.8167C42.482 70.3167 42.8987 70.725 43.3987 70.725Z" fill="#FF4C16"/>
<path d="M85.2167 63.6499H69.6833C69.0333 63.6499 68.5 64.1749 68.5 64.8332V84.9249C68.5 85.5749 69.025 86.1082 69.6833 86.1082H85.2167C85.8667 86.1082 86.4 85.5832 86.4 84.9249V64.8249C86.4 64.1749 85.8667 63.6499 85.2167 63.6499ZM73.35 82.6082H72.6333C72.175 82.6082 71.8 82.2332 71.8 81.7749C71.8 81.3166 72.175 80.9416 72.6333 80.9416H73.35C73.8083 80.9416 74.1833 81.3166 74.1833 81.7749C74.1833 82.2332 73.8083 82.6082 73.35 82.6082ZM73.35 78.9666H72.6333C72.175 78.9666 71.8 78.5916 71.8 78.1332C71.8 77.6749 72.175 77.2999 72.6333 77.2999H73.35C73.8083 77.2999 74.1833 77.6749 74.1833 78.1332C74.1833 78.5916 73.8083 78.9666 73.35 78.9666ZM73.35 75.3249H72.6333C72.175 75.3249 71.8 74.9499 71.8 74.4916C71.8 74.0332 72.175 73.6582 72.6333 73.6582H73.35C73.8083 73.6582 74.1833 74.0332 74.1833 74.4916C74.1833 74.9499 73.8083 75.3249 73.35 75.3249ZM77.8083 82.6082H77.0917C76.6333 82.6082 76.2583 82.2332 76.2583 81.7749C76.2583 81.3166 76.6333 80.9416 77.0917 80.9416H77.8083C78.2667 80.9416 78.6417 81.3166 78.6417 81.7749C78.6417 82.2332 78.2667 82.6082 77.8083 82.6082ZM77.8083 78.9666H77.0917C76.6333 78.9666 76.2583 78.5916 76.2583 78.1332C76.2583 77.6749 76.6333 77.2999 77.0917 77.2999H77.8083C78.2667 77.2999 78.6417 77.6749 78.6417 78.1332C78.6417 78.5916 78.2667 78.9666 77.8083 78.9666ZM77.8083 75.3249H77.0917C76.6333 75.3249 76.2583 74.9499 76.2583 74.4916C76.2583 74.0332 76.6333 73.6582 77.0917 73.6582H77.8083C78.2667 73.6582 78.6417 74.0332 78.6417 74.4916C78.6417 74.9499 78.2667 75.3249 77.8083 75.3249ZM82.2667 82.6082H81.55C81.0917 82.6082 80.7167 82.2332 80.7167 81.7749C80.7167 81.3166 81.0917 80.9416 81.55 80.9416H82.2667C82.725 80.9416 83.1 81.3166 83.1 81.7749C83.1 82.2332 82.7333 82.6082 82.2667 82.6082ZM82.2667 78.9666H81.55C81.0917 78.9666 80.7167 78.5916 80.7167 78.1332C80.7167 77.6749 81.0917 77.2999 81.55 77.2999H82.2667C82.725 77.2999 83.1 77.6749 83.1 78.1332C83.1 78.5916 82.7333 78.9666 82.2667 78.9666ZM82.2667 75.3249H81.55C81.0917 75.3249 80.7167 74.9499 80.7167 74.4916C80.7167 74.0332 81.0917 73.6582 81.55 73.6582H82.2667C82.725 73.6582 83.1 74.0332 83.1 74.4916C83.1 74.9499 82.7333 75.3249 82.2667 75.3249ZM83.1 70.6582H71.8V67.1999H83.1083V70.6582H83.1Z" fill="#FF4C16"/>
</svg>
