<svg width="32" height="32" viewBox="0 0 32 32" fill="none" xmlns="http://www.w3.org/2000/svg">
<path d="M32.0001 12.689L30.4534 11.1423L23.8357 11.1423L22.2891 12.689L22.2891 19.3112L23.8357 20.8578L30.4534 20.8578L32.0001 19.3112L32.0001 12.689Z" fill="#F6F6F4"/>
<path d="M20.858 1.54665L19.3114 0L12.6892 0L11.1426 1.54665L11.1426 8.16882L12.6892 9.71548L19.3114 9.71548L20.858 8.16882L20.858 1.54665Z" fill="#F6F6F4"/>
<path d="M32.0001 1.54665L30.4534 0L29.8356 0L22.2891 7.54661L22.2891 8.16882L23.8357 9.71548L30.4534 9.71548L32.0001 8.16882L32.0001 1.54665Z" fill="#F6F6F4"/>
<path d="M32.0001 23.8311L30.4534 22.2844L23.8357 22.2844L22.2891 23.8311V24.4533L29.8356 31.9999L30.4534 31.9999L32.0001 30.4532L32.0001 23.8311Z" fill="#F6F6F4"/>
<path d="M9.71543 1.54665L8.16878 0L1.54665 0L0 1.54665L0 2.16887L7.54657 9.71548H8.16878L9.71543 8.16882L9.71543 1.54665Z" fill="#F6F6F4"/>
<path d="M20.858 23.8313L19.3114 22.2847L12.6892 22.2847L11.1426 23.8313L11.1426 30.4535L12.6892 32.0001H13.3114L20.858 24.4535L20.858 23.8313Z" fill="#F6F6F4"/>
<path d="M20.858 12.6887L19.3114 11.1421L18.6891 11.1421L11.1426 18.6887V19.3109L12.6892 20.8576L19.3114 20.8576L20.858 19.3109L20.858 12.6887Z" fill="#F6F6F4"/>
<path d="M9.71543 23.8311L8.16878 22.2844H7.54657L0 29.831L0 30.4532L1.54665 31.9999L8.16878 31.9999L9.71543 30.4532L9.71543 23.8311Z" fill="#F6F6F4"/>
</svg>
