<svg width="60" height="60" viewBox="0 0 60 60" fill="none" xmlns="http://www.w3.org/2000/svg">
<g clip-path="url(#clip0_1_570)">
<path d="M54.2383 43.762C54.0781 43.6018 53.9179 43.4612 53.75 43.3206L53 42.719V8C53 3.5898 49.4102 0 45 0H15C10.5898 0 6.99998 3.5898 6.99998 8V42.719L6.24998 43.3206C6.0781 43.4612 5.91014 43.6018 5.7617 43.762L2.7617 46.762C1.6328 47.8909 1 49.4026 1 51.0003V54.0003C1 57.3089 3.6914 60.0003 7 60.0003H53C56.3086 60.0003 59 57.3089 59 54.0003V51.0003C59 49.3987 58.3789 47.8909 57.2383 46.762L54.2383 43.762ZM32.0003 3.99997H45.0003C47.2112 3.99997 49.0003 5.78907 49.0003 7.99997V22H32.0003V3.99997ZM32.0003 26H49.0003V42H32.0003V26ZM11.0003 7.99997C11.0003 5.78907 12.7894 3.99997 15.0003 3.99997H28.0003V22H11.0003V7.99997ZM11.0003 26H28.0003V42H11.0003V26ZM55.0003 54C55.0003 55.1016 54.1018 56 53.0003 56H7.00026C5.89866 56 5.00026 55.1015 5.00026 54V51C5.00026 50.4687 5.2112 49.9609 5.5901 49.5898L9.1799 46H50.8399L54.4297 49.5898C54.8086 49.9687 55.0195 50.4687 55.0195 51V54H55.0003Z" fill="#F6F6F4"/>
</g>
<defs>
<clipPath id="clip0_1_570">
<rect width="60" height="60" fill="white"/>
</clipPath>
</defs>
</svg>
